<svg width="598" height="459" viewBox="0 0 598 459" fill="none" xmlns="http://www.w3.org/2000/svg">
<path d="M339.819 1.82422H278.721V78.9551H339.819V1.82422Z" fill="#EBEBEB"/>
<path d="M313.891 77.2266H305.418V79.2843H313.891V77.2266Z" fill="#E0E0E0"/>
<path d="M311.226 28.3789L299.971 30.0251L295.771 40.5955L302.823 49.517L314.077 47.8721L318.278 37.3004L311.226 28.3789Z" fill="#E0E0E0"/>
<path d="M316.487 35.2109L305.232 36.8572L301.031 47.4262L308.084 56.3504L319.339 54.7028L323.541 44.1338L316.487 35.2109Z" fill="#FAFAFA"/>
<path d="M315.088 0.777344H306.613V2.53862H315.088V0.777344Z" fill="#E0E0E0"/>
<path d="M414.12 22.0664H372.619V110.902H414.12V22.0664Z" fill="#F5F5F5"/>
<path d="M466.84 117.109H415.844V202.944H466.84V117.109Z" fill="#F5F5F5"/>
<path d="M414.12 117.109H372.619V202.944H414.12V117.109Z" fill="#F5F5F5"/>
<path d="M568.007 117.109H523.191V202.944H568.007V117.109Z" fill="#F5F5F5"/>
<path d="M466.84 22.0664H415.844V110.902H466.84V22.0664Z" fill="#F5F5F5"/>
<path d="M568.007 22.0664H523.191V110.902H568.007V22.0664Z" fill="#F5F5F5"/>
<path d="M414.12 204.479H372.619V281.826H414.12V204.479Z" fill="#F5F5F5"/>
<path d="M466.84 204.479H415.844V281.826H466.84V204.479Z" fill="#F5F5F5"/>
<path d="M568.007 204.479H523.191V281.826H568.007V204.479Z" fill="#F5F5F5"/>
<path d="M521.471 22.0664H473.047V110.902H521.471V22.0664Z" fill="#F5F5F5"/>
<path d="M521.471 204.479H473.047V281.826H521.471V204.479Z" fill="#F5F5F5"/>
<path d="M521.471 117.109H473.047V202.944H521.471V117.109Z" fill="#F5F5F5"/>
<path d="M93.061 22.0664H51.5605V110.902H93.061V22.0664Z" fill="#F5F5F5"/>
<path d="M145.78 117.109H94.7852V202.944H145.78V117.109Z" fill="#F5F5F5"/>
<path d="M93.061 117.109H51.5605V202.944H93.061V117.109Z" fill="#F5F5F5"/>
<path d="M246.949 117.109H202.133V202.944H246.949V117.109Z" fill="#F5F5F5"/>
<path d="M145.78 22.0664H94.7852V110.902H145.78V22.0664Z" fill="#F5F5F5"/>
<path d="M246.949 22.0664H202.133V110.902H246.949V22.0664Z" fill="#F5F5F5"/>
<path d="M93.061 204.479H51.5605V281.826H93.061V204.479Z" fill="#F5F5F5"/>
<path d="M145.78 204.479H94.7852V281.826H145.78V204.479Z" fill="#F5F5F5"/>
<path d="M246.949 204.479H202.133V281.826H246.949V204.479Z" fill="#F5F5F5"/>
<path d="M200.41 22.0664H151.986V110.902H200.41V22.0664Z" fill="#F5F5F5"/>
<path d="M200.41 204.479H151.986V281.826H200.41V204.479Z" fill="#F5F5F5"/>
<path d="M200.41 117.109H151.986V202.944H200.41V117.109Z" fill="#F5F5F5"/>
<path d="M470.52 418.789V458.576H528.701H592.875V418.789H470.52Z" fill="#EBEBEB"/>
<path d="M465.387 407.664V418.788H597.154V407.664H528.702H465.387Z" fill="#E0E0E0"/>
<path d="M531.271 458.575H592.877V418.788H597.155V407.664H528.703V417.758L531.271 458.575Z" fill="#E0E0E0"/>
<path d="M512.445 425.203H487.633V431.192H512.445V425.203Z" fill="#E0E0E0"/>
<path d="M516.299 438.68H484.438V451.327H516.299V438.68Z" fill="#F5F5F5"/>
<path d="M500.748 363.735L500.57 348.777L552.98 353.271L554.615 368.065L500.748 363.735Z" fill="#EBEBEB"/>
<path d="M512.07 355.536L511.84 358.225L544.624 361.031L544.854 358.343L512.07 355.536Z" fill="#E0E0E0"/>
<path d="M494.499 349.532L494.479 334.574L546.838 339.62L548.171 352.987L494.499 349.532Z" fill="#E0E0E0"/>
<path d="M494.481 336.609L494.457 346.702L545.48 350.465L544.627 341.151L494.481 336.609Z" fill="white"/>
<path d="M541.604 345.033C541.598 345.08 540.939 345.061 539.753 344.984C538.432 344.88 536.749 344.747 534.737 344.589C530.504 344.225 524.664 343.675 518.216 343.024C511.766 342.373 505.933 341.743 501.712 341.252C499.709 341.004 498.032 340.798 496.717 340.634C495.538 340.473 494.889 340.361 494.893 340.313C494.897 340.265 495.553 340.285 496.739 340.362C498.06 340.465 499.742 340.598 501.754 340.756C505.986 341.12 511.83 341.67 518.282 342.321C524.733 342.972 530.568 343.602 534.787 344.093C536.79 344.341 538.467 344.548 539.782 344.711C540.959 344.87 541.608 344.983 541.604 345.033Z" fill="#F5F5F5"/>
<path d="M541.497 346.296C541.494 346.343 540.83 346.345 539.632 346.304C538.3 346.24 536.601 346.16 534.569 346.063C530.297 345.83 524.395 345.459 517.884 345.007C511.368 344.553 505.473 344.104 501.212 343.743C499.186 343.557 497.493 343.401 496.165 343.28C494.975 343.154 494.318 343.063 494.322 343.014C494.326 342.965 494.99 342.965 496.188 343.006C497.52 343.07 499.219 343.15 501.251 343.246C505.524 343.48 511.425 343.85 517.939 344.303C524.451 344.757 530.344 345.206 534.608 345.566C536.634 345.753 538.326 345.909 539.655 346.03C540.843 346.155 541.501 346.247 541.497 346.296Z" fill="#F5F5F5"/>
<path d="M501.35 377.522L501.156 362.564L553.57 367.009L555.059 380.359L501.35 377.522Z" fill="#E0E0E0"/>
<path d="M507.124 377.834C506.928 377.837 506.643 374.538 506.484 370.468C506.325 366.395 506.352 363.084 506.547 363.072C506.742 363.059 507.028 366.358 507.188 370.44C507.347 374.521 507.319 377.831 507.124 377.834Z" fill="#F5F5F5"/>
<path d="M509.648 370.586C509.559 366.522 509.33 363.232 509.136 363.236C508.942 363.24 508.856 366.538 508.944 370.601C509.032 374.665 509.261 377.956 509.455 377.951C509.65 377.947 509.736 374.65 509.648 370.586Z" fill="#F5F5F5"/>
<path d="M513.865 369.824C522.999 370.833 533.744 371.41 543.031 372.237L513.865 369.824Z" fill="white"/>
<path d="M543.031 372.237C543.022 372.334 541.384 372.273 538.74 372.128C536.097 371.981 532.446 371.753 528.416 371.454C524.384 371.152 520.738 370.817 518.107 370.504C515.474 370.194 513.854 369.918 513.865 369.824C513.876 369.725 515.513 369.824 518.153 370.007C521.002 370.213 524.548 370.469 528.469 370.752C532.498 371.052 536.143 371.355 538.779 371.632C541.416 371.904 543.039 372.142 543.031 372.237Z" fill="#F5F5F5"/>
<path d="M546.174 373.237C546.355 376.934 546.659 379.924 546.854 379.914C547.049 379.905 547.06 376.9 546.88 373.202C546.699 369.505 546.395 366.516 546.2 366.525C546.005 366.535 545.993 369.54 546.174 373.237Z" fill="#F5F5F5"/>
<path d="M549.061 373.425C549.426 377.128 549.878 380.115 550.072 380.096C550.265 380.077 550.127 377.059 549.762 373.356C549.397 369.653 548.945 366.666 548.751 366.685C548.558 366.704 548.697 369.722 549.061 373.425Z" fill="#F5F5F5"/>
<path d="M521.645 373.174C527.422 373.569 531.821 373.858 536.422 373.963L521.645 373.174Z" fill="white"/>
<path d="M536.423 373.963C536.419 374.157 533.103 374.139 529.017 373.921C524.93 373.703 521.63 373.368 521.645 373.173C521.659 372.978 524.974 372.999 529.05 373.215C533.123 373.433 536.425 373.768 536.423 373.963Z" fill="#F5F5F5"/>
<path d="M504.865 406.734L503.881 391.807L556.455 393.47L558.65 406.723L504.865 406.734Z" fill="#EBEBEB"/>
<path d="M506.946 404.859L558.107 404.128L556.685 394.837L505.982 393.898L506.946 404.859Z" fill="white"/>
<path d="M506.297 392.1L505.812 377.15L558.303 380.574L560.049 393.894L506.297 392.1Z" fill="#F5F5F5"/>
<path d="M517.455 383.694L517.279 386.387L550.113 388.532L550.289 385.84L517.455 383.694Z" fill="#E0E0E0"/>
<path d="M557.208 398.659C557.208 398.708 556.493 398.756 555.2 398.804C553.776 398.838 551.937 398.884 549.725 398.938C545.103 399.02 538.72 399.083 531.67 399.111C524.616 399.14 518.232 399.125 513.609 399.079C511.398 399.042 509.558 399.011 508.134 398.989C506.841 398.953 506.126 398.907 506.125 398.859C506.125 398.811 506.837 398.762 508.129 398.714C509.551 398.681 511.391 398.635 513.602 398.58C518.224 398.498 524.61 398.434 531.667 398.407C538.72 398.379 545.107 398.394 549.729 398.438C551.94 398.475 553.78 398.506 555.203 398.529C556.495 398.565 557.209 398.61 557.208 398.659Z" fill="#EBEBEB"/>
<path d="M557.81 401.557C557.809 401.606 557.089 401.643 555.786 401.667C554.353 401.677 552.499 401.689 550.272 401.702C545.618 401.702 539.188 401.652 532.088 401.555C524.986 401.457 518.557 401.329 513.904 401.201C511.676 401.124 509.824 401.061 508.394 401.012C507.092 400.952 506.373 400.895 506.373 400.848C506.373 400.799 507.092 400.763 508.394 400.738C509.827 400.729 511.679 400.717 513.906 400.703C518.56 400.703 524.992 400.752 532.098 400.849C539.2 400.947 545.63 401.075 550.285 401.204C552.512 401.28 554.364 401.343 555.793 401.392C557.094 401.453 557.812 401.509 557.81 401.557Z" fill="#EBEBEB"/>
<path d="M582.744 458.582C582.744 458.779 452.314 458.936 291.459 458.936C130.549 458.936 0.146484 458.779 0.146484 458.582C0.146484 458.388 130.548 458.23 291.459 458.23C452.315 458.23 582.744 458.388 582.744 458.582Z" fill="#263238"/>
<path d="M45.0113 290.484C37.8471 291.638 34.644 300.44 35.2708 307.669C35.8976 314.899 38.8692 321.967 38.0745 329.178C37.0646 338.338 30.144 346.079 29.3371 355.259C28.3868 366.084 36.0397 375.686 38.3263 386.311C39.4391 391.48 39.2834 396.946 41.2072 401.87C44.4522 410.174 53.9694 415.505 62.746 413.939C71.5226 412.371 78.6043 404.074 78.7749 395.161C78.9333 386.848 73.8037 379.019 74.4278 370.729C74.8881 364.6 78.4797 358.794 77.7108 352.698C76.7956 345.444 70.074 340.293 67.7008 333.376C65.329 326.458 67.6074 318.835 66.7884 311.567C65.3195 298.527 58.0903 289.438 45.0113 290.484Z" fill="#006900"/>
<path d="M8.42847 353.613C7.21006 365.695 12.5521 379.908 18.7647 390.34C24.9772 400.773 34.6081 409.131 45.8107 413.814C47.0738 414.343 48.6469 414.787 49.7096 413.923C50.5801 413.217 50.6884 411.948 50.6965 410.826C50.7818 398.112 46.6446 385.407 39.0905 375.182C31.535 364.954 20.6058 357.269 8.42847 353.613Z" fill="#006900"/>
<g opacity="0.1">
<path opacity="0.1" d="M8.42847 353.613C7.21006 365.695 12.5521 379.908 18.7647 390.34C24.9772 400.773 34.6081 409.131 45.8107 413.814C47.0738 414.343 48.6469 414.787 49.7096 413.923C50.5801 413.217 50.6884 411.948 50.6965 410.826C50.7818 398.112 46.6446 385.407 39.0905 375.182C31.535 364.954 20.6058 357.269 8.42847 353.613Z" fill="black"/>
</g>
<path d="M61.0546 439.074C61.033 439.084 60.9152 438.851 60.7108 438.401C60.4833 437.88 60.1977 437.226 59.8484 436.422C59.1214 434.697 58.037 432.215 56.6548 429.166C53.8958 423.067 49.8074 414.764 44.6602 405.944C39.5009 397.128 34.2726 389.492 30.3128 384.094C28.3349 381.393 26.7036 379.229 25.5555 377.749C25.0276 377.05 24.5984 376.482 24.2546 376.028C23.9635 375.629 23.8186 375.412 23.8376 375.397C23.8565 375.382 24.0366 375.569 24.3629 375.939C24.7324 376.372 25.1954 376.916 25.7654 377.582C26.9784 379.013 28.6706 381.135 30.7013 383.804C34.7681 389.136 40.0763 396.755 45.2532 405.599C50.4152 414.445 54.4482 422.808 57.0989 428.968C58.4269 432.048 59.4463 434.565 60.0962 436.326C60.3981 437.146 60.6431 437.818 60.8394 438.353C61.0018 438.818 61.0763 439.067 61.0546 439.074Z" fill="#263238"/>
<path d="M53.2791 323.906C53.3035 323.905 53.3468 324.304 53.4104 325.064C53.47 325.884 53.5512 326.994 53.6514 328.391C53.8409 331.347 54.109 335.512 54.4393 340.632C55.0918 350.97 56.0083 365.25 57.1171 381.012C58.2272 396.779 59.3197 411.048 60.1225 421.374C60.5137 426.488 60.8319 430.653 61.058 433.604C61.1527 435.001 61.2285 436.112 61.284 436.932C61.3287 437.694 61.3409 438.093 61.3165 438.096C61.2922 438.097 61.234 437.7 61.146 436.944C61.058 436.126 60.9402 435.019 60.7913 433.627C60.5124 430.677 60.1198 426.522 59.6378 421.414C58.7118 411.096 57.5435 396.832 56.4321 381.059C55.3233 365.292 54.484 351.005 53.9546 340.658C53.7164 335.533 53.5228 331.362 53.3847 328.404C53.3373 327.002 53.2994 325.891 53.2723 325.069C53.2534 324.31 53.2561 323.908 53.2791 323.906Z" fill="#263238"/>
<path d="M42.166 421.848H72.4219V444.059C72.4219 452.082 65.9196 458.583 57.8984 458.583C50.1777 458.583 43.8068 452.545 43.3953 444.835L42.166 421.848Z" fill="#455A64"/>
<path d="M436.197 239.103C434.372 237.561 431.88 237.364 430.343 237.417C430.351 236.29 430.301 235.594 430.301 235.594H398.368C398.368 235.594 397.365 256.676 413.51 257.422C420.735 257.755 424.871 254.517 427.237 250.443C428.009 250.626 429.352 250.883 430.86 250.883C432.541 250.883 434.417 250.563 435.891 249.461C436.986 248.643 438.29 247.043 438.29 244.059C438.288 241.422 437.151 239.908 436.197 239.103ZM434.009 246.937C432.646 247.959 430.204 247.802 428.614 247.515C429.514 245.111 429.958 242.646 430.167 240.581C431.261 240.515 433.101 240.605 434.166 241.507C434.823 242.062 435.142 242.896 435.142 244.06C435.142 245.424 434.771 246.366 434.009 246.937Z" fill="#E8505B"/>
<path d="M420.972 233.671C420.93 233.649 421.217 233.431 421.231 232.869C421.234 232.328 420.823 231.488 419.912 230.948C419.459 230.695 418.862 230.545 418.219 230.368C417.58 230.183 416.827 229.997 416.173 229.452C415.522 228.919 415.112 228.013 415.124 227.075C415.119 226.137 415.407 225.169 415.936 224.289C417.03 222.513 419.009 221.392 420.394 219.637C421.745 217.879 422.235 215.297 421.548 212.883C421.228 211.672 420.569 210.53 419.667 209.6C418.751 208.681 417.516 208.069 416.253 207.437C415.003 206.782 413.617 206.144 412.642 204.854C412.182 204.22 411.845 203.493 411.7 202.707C411.545 201.93 411.588 201.055 412.003 200.293C412.219 199.898 412.552 199.586 412.885 199.351L413.248 199.955C410.789 201.326 409.734 204.403 410.174 206.966C410.391 208.272 411.002 209.451 411.925 210.325C412.837 211.22 414 211.96 414.695 213.173C415.03 213.774 415.202 214.473 415.166 215.148C415.128 215.824 414.911 216.457 414.615 217.016C414.007 218.136 413.115 218.994 412.155 219.65C410.192 220.891 408.169 221.515 406.678 222.652C405.148 223.739 404.403 225.369 404.281 226.838C404.13 228.31 404.459 229.601 404.911 230.535C405.855 232.439 407.068 232.942 406.984 233.018C406.977 233.029 406.91 232.997 406.786 232.925C406.665 232.845 406.464 232.756 406.248 232.57C405.792 232.233 405.187 231.617 404.67 230.656C404.162 229.701 403.774 228.363 403.896 226.802C403.959 226.027 404.146 225.193 404.556 224.395C404.958 223.59 405.604 222.861 406.381 222.261C407.938 221.04 410 220.367 411.829 219.172C412.718 218.553 413.543 217.734 414.072 216.729C414.616 215.74 414.735 214.501 414.136 213.488C413.552 212.465 412.45 211.746 411.462 210.805C410.438 209.852 409.736 208.512 409.499 207.082C409.013 204.269 410.122 200.91 412.909 199.336L413.272 199.94C413.024 200.121 412.779 200.343 412.621 200.637C412.006 201.796 412.426 203.369 413.212 204.438C414.01 205.523 415.336 206.182 416.568 206.82C417.822 207.456 419.128 208.096 420.148 209.124C421.136 210.151 421.84 211.402 422.177 212.709C422.9 215.315 422.356 218.091 420.859 219.996C419.337 221.854 417.378 222.932 416.365 224.549C415.357 226.111 415.263 228.188 416.436 229.15C417.589 230.082 419.084 230.085 420.058 230.709C421.033 231.34 421.426 232.262 421.378 232.869C421.358 233.179 421.23 233.385 421.146 233.51C421.037 233.627 420.98 233.679 420.972 233.671Z" fill="#263238"/>
<path d="M221.818 112.66H66.0349C63.6197 112.66 61.6621 110.703 61.6621 108.288V70.904C61.6621 68.4888 63.6197 66.5312 66.0349 66.5312H221.82C224.235 66.5312 226.192 68.4888 226.192 70.904V108.288C226.192 110.703 224.235 112.66 221.818 112.66Z" fill="#455A64"/>
<path d="M88.519 101.042C94.0555 101.042 98.5438 96.5536 98.5438 91.017C98.5438 85.4805 94.0555 80.9922 88.519 80.9922C82.9824 80.9922 78.4941 85.4805 78.4941 91.017C78.4941 96.5536 82.9824 101.042 88.519 101.042Z" fill="white"/>
<path d="M94.1549 87.6153C94.2903 87.7547 91.8656 90.3404 88.7397 93.3892C88.2849 93.8292 87.8435 94.2542 87.4144 94.6672L87.168 94.9054L86.9324 94.6644C84.4942 92.1735 82.7668 90.2484 82.8846 90.1306C83.001 90.0142 84.9275 91.7416 87.4171 94.1798L86.9365 94.1771C87.3602 93.7601 87.7961 93.3296 88.2469 92.8855C91.3729 89.8341 94.0195 87.4758 94.1549 87.6153Z" fill="#3CAB40"/>
<path d="M210.133 86.2147C210.133 86.4096 189.219 86.5667 163.425 86.5667C137.622 86.5667 116.711 86.4083 116.711 86.2147C116.711 86.0197 137.622 85.8613 163.425 85.8613C189.219 85.8613 210.133 86.0197 210.133 86.2147Z" fill="white"/>
<path d="M144.812 95.6903C159.727 95.6903 171.817 95.5327 171.817 95.3383C171.817 95.1439 159.727 94.9863 144.812 94.9863C129.897 94.9863 117.807 95.1439 117.807 95.3383C117.807 95.5327 129.897 95.6903 144.812 95.6903Z" fill="white"/>
<path d="M221.818 165.425H66.0349C63.6197 165.425 61.6621 163.468 61.6621 161.053V123.669C61.6621 121.253 63.6197 119.295 66.0349 119.295H221.82C224.235 119.295 226.192 121.253 226.192 123.669V161.053C226.192 163.468 224.235 165.425 221.818 165.425Z" fill="#455A64"/>
<path d="M88.5203 153.808C94.0576 153.808 98.5465 149.319 98.5465 143.782C98.5465 138.245 94.0576 133.756 88.5203 133.756C82.983 133.756 78.4941 138.245 78.4941 143.782C78.4941 149.319 82.983 153.808 88.5203 153.808Z" fill="white"/>
<path d="M94.1549 140.379C94.2903 140.518 91.8656 143.104 88.7397 146.153C88.2849 146.593 87.8435 147.018 87.4144 147.431L87.168 147.669L86.9324 147.428C84.4942 144.937 82.7668 143.012 82.8846 142.894C83.001 142.776 84.9275 144.504 87.4171 146.942L86.9365 146.939C87.3602 146.521 87.7961 146.092 88.2469 145.647C91.3729 142.598 94.0195 140.239 94.1549 140.379Z" fill="#3CAB40"/>
<path d="M210.133 138.98C210.133 139.175 189.219 139.332 163.425 139.332C137.622 139.332 116.711 139.174 116.711 138.98C116.711 138.785 137.622 138.627 163.425 138.627C189.219 138.627 210.133 138.785 210.133 138.98Z" fill="white"/>
<path d="M144.812 148.457C159.727 148.457 171.817 148.299 171.817 148.103C171.817 147.908 159.727 147.75 144.812 147.75C129.897 147.75 117.807 147.908 117.807 148.103C117.807 148.299 129.897 148.457 144.812 148.457Z" fill="white"/>
<path d="M221.818 218.192H66.0349C63.6197 218.192 61.6621 216.234 61.6621 213.819V176.435C61.6621 174.02 63.6197 172.062 66.0349 172.062H221.82C224.235 172.062 226.192 174.02 226.192 176.435V213.819C226.192 216.234 224.235 218.192 221.818 218.192Z" fill="#455A64"/>
<path d="M88.5203 206.576C94.0576 206.576 98.5465 202.087 98.5465 196.55C98.5465 191.012 94.0576 186.523 88.5203 186.523C82.983 186.523 78.4941 191.012 78.4941 196.55C78.4941 202.087 82.983 206.576 88.5203 206.576Z" fill="white"/>
<path d="M94.1549 193.145C94.2903 193.284 91.8656 195.87 88.7397 198.918C88.2849 199.358 87.8435 199.784 87.4144 200.196L87.168 200.435L86.9324 200.194C84.4942 197.704 82.7668 195.778 82.8846 195.66C83.001 195.542 84.9275 197.27 87.4171 199.709L86.9365 199.706C87.3602 199.288 87.7961 198.859 88.2469 198.414C91.3729 195.365 94.0195 193.005 94.1549 193.145Z" fill="#3CAB40"/>
<path d="M210.133 191.746C210.133 191.941 189.219 192.098 163.425 192.098C137.622 192.098 116.711 191.94 116.711 191.746C116.711 191.551 137.622 191.393 163.425 191.393C189.219 191.393 210.133 191.551 210.133 191.746Z" fill="white"/>
<path d="M144.812 201.222C159.727 201.222 171.817 201.064 171.817 200.87C171.817 200.675 159.727 200.518 144.812 200.518C129.897 200.518 117.807 200.675 117.807 200.87C117.807 201.064 129.897 201.222 144.812 201.222Z" fill="white"/>
<path d="M319.435 346.711L316.848 458.58H311.912L312.226 346.993L319.435 346.711Z" fill="#263238"/>
<path d="M337.256 345.471L361.246 458.58H366.744L346.774 345.471H337.256Z" fill="#263238"/>
<path d="M292.287 346.712L265.741 458.581H260.244L284.332 346.254L292.287 346.712Z" fill="#263238"/>
<path d="M368.407 223.731C368.407 223.731 398.822 221.994 395.782 257.188C392.74 292.381 391.002 328.009 379.706 340.175C368.407 352.341 254.571 352.775 245.011 342.782C235.452 332.791 263.259 333.224 268.475 333.224C273.689 333.224 305.843 336.264 316.27 308.891C326.697 281.52 324.09 221.994 368.407 223.731Z" fill="#263238"/>
<path d="M370.359 223.75C370.359 223.75 393.61 228.513 391.435 252.843C389.263 277.176 383.179 319.754 371.885 330.616C360.586 341.478 316.322 343.845 292.372 342.347C264.566 340.609 247.012 335.315 247.012 335.315C247.012 335.315 241.937 338.579 243.476 340.681C245.013 342.782 258.57 351.236 324.296 349.829C390.021 348.419 385.452 338.722 388.179 328.13C390.909 317.537 396.632 261.06 395.837 248.644C395.045 236.225 388.789 225.928 370.359 223.75Z" fill="#455A64"/>
<path d="M305.05 120.556C312.283 117.865 321.195 120.817 325.392 127.294C328.331 131.83 329.009 137.557 332.01 142.053C334.136 145.238 337.279 147.583 339.872 150.402C342.463 153.22 344.599 156.935 343.945 160.708C343.331 164.254 340.333 167.384 340.936 170.932C341.499 174.255 345.046 176.421 345.731 179.721C346.541 183.606 342.793 187.241 338.873 187.85C334.951 188.459 331.045 186.943 327.355 185.478C323.666 184.013 319.729 182.545 315.823 183.253C311.278 184.077 307.807 187.636 303.833 189.988C295.593 194.863 284.421 194.195 276.818 188.378C273.828 186.092 271.229 182.535 271.952 178.842C272.626 175.401 275.943 173.019 276.911 169.65C278.35 164.638 274.18 159.518 274.81 154.342C275.656 147.377 284.239 144.194 287.372 137.916C288.875 134.902 289.007 131.373 290.331 128.278C291.657 125.182 295.098 122.417 298.197 123.737" fill="#263238"/>
<path d="M302.124 183.892C302.581 181.421 301.781 170.994 301.781 170.994C301.781 170.994 292.539 169.828 292.139 160.395C291.741 150.961 292.68 129.239 292.68 129.239L309.69 121.07L324.536 137.994L324.817 183.739L302.124 183.892Z" fill="#FFBE9D"/>
<path d="M295.058 144.706C294.409 144.695 293.873 145.226 293.861 145.892C293.85 146.558 294.367 147.107 295.017 147.119C295.667 147.13 296.203 146.599 296.214 145.933C296.225 145.266 295.708 144.717 295.058 144.706Z" fill="#263238"/>
<path d="M293.135 143.778C293.284 143.937 294.165 143.195 295.431 143.148C296.697 143.081 297.636 143.741 297.772 143.57C297.839 143.494 297.686 143.203 297.276 142.904C296.873 142.606 296.188 142.327 295.398 142.362C294.609 142.399 293.951 142.737 293.574 143.07C293.189 143.406 293.062 143.708 293.135 143.778Z" fill="#263238"/>
<path d="M308.855 144.671C308.206 144.66 307.671 145.191 307.659 145.857C307.648 146.523 308.164 147.072 308.813 147.083C309.462 147.094 309.998 146.564 310.009 145.897C310.02 145.231 309.504 144.682 308.855 144.671Z" fill="#263238"/>
<path d="M307.16 144.02C307.308 144.178 308.19 143.435 309.456 143.389C310.722 143.321 311.662 143.982 311.797 143.81C311.863 143.734 311.712 143.443 311.3 143.144C310.897 142.846 310.213 142.567 309.424 142.603C308.634 142.639 307.976 142.976 307.599 143.311C307.216 143.646 307.087 143.95 307.16 144.02Z" fill="#263238"/>
<path d="M302.403 154.91C302.409 154.832 301.618 154.717 300.34 154.596C300.017 154.573 299.709 154.516 299.651 154.283C299.57 154.035 299.7 153.657 299.85 153.247C300.141 152.397 300.444 151.505 300.765 150.571C302.035 146.763 302.948 143.637 302.805 143.587C302.665 143.536 301.519 146.582 300.248 150.391C299.944 151.329 299.652 152.224 299.374 153.081C299.257 153.479 299.054 153.934 299.227 154.447C299.318 154.702 299.559 154.88 299.766 154.931C299.975 154.991 300.157 154.987 300.317 154.991C301.603 155.013 302.401 154.987 302.403 154.91Z" fill="#263238"/>
<path d="M301.781 170.994C301.781 170.994 307.963 171.172 314.02 166.988C314.02 166.988 311.143 173.859 301.941 173.309L301.781 170.994Z" fill="#EB996E"/>
<path d="M302.861 158.237C303.006 157.44 303.577 156.734 304.328 156.427C304.848 156.214 305.463 156.194 305.96 156.457C306.457 156.719 306.798 157.291 306.714 157.846C306.618 158.471 306.023 158.927 305.405 159.06C304.786 159.193 304.143 159.068 303.526 158.933C303.354 158.895 303.178 158.854 303.036 158.753C302.895 158.651 302.791 158.473 302.831 158.302" fill="#EB996E"/>
<path d="M305.998 154.86C306.086 154.849 306.239 155.206 306.193 155.821C306.153 156.423 305.856 157.284 305.152 157.95C304.447 158.614 303.57 158.859 302.966 158.865C302.351 158.876 302.002 158.703 302.018 158.616C302.022 158.423 303.501 158.542 304.669 157.437C305.837 156.334 305.805 154.853 305.998 154.86Z" fill="#263238"/>
<path d="M291.904 128.187C292.407 133.659 297.618 138.271 303.112 138.105C302.256 136.226 301.401 134.348 300.545 132.469C302.823 135.117 305.183 137.831 308.299 139.41C311.416 140.988 315.51 141.163 318.167 138.897C319.032 141.205 319.016 143.762 319.808 146.096C320.6 148.431 322.466 158.054 324.904 157.687C327.141 157.35 328.731 147.646 329.301 145.456C330.879 139.404 328.903 132.737 324.879 127.95C320.104 122.268 312.516 119.095 305.113 119.619C301.83 119.85 298.521 120.81 295.938 122.849C293.668 124.641 292.044 127.235 291.426 130.06" fill="#263238"/>
<path d="M279.233 170.691C279.227 170.714 279.007 170.664 278.592 170.545C278.18 170.424 277.574 170.209 276.852 169.817C275.401 169.076 273.421 167.56 271.927 164.988C270.416 162.482 269.617 158.644 271.056 154.911C271.755 153.07 272.914 151.29 274.511 149.851C276.074 148.385 278.167 147.342 280.365 146.886C281.431 146.636 282.451 146.328 283.098 145.589C283.756 144.866 284.061 143.863 284.135 142.877C284.299 140.882 283.515 138.954 283.295 136.998C283.021 135.019 283.514 133.075 284.401 131.557C285.275 130.012 286.601 128.914 287.906 128.227C289.213 127.532 290.455 127.084 291.509 126.631C292.569 126.188 293.443 125.736 294.097 125.277C295.417 124.354 295.805 123.49 295.873 123.541C295.894 123.553 295.79 123.752 295.57 124.129C295.315 124.474 294.924 125.001 294.259 125.497C293.609 126.008 292.725 126.51 291.669 126.992C290.619 127.483 289.392 127.965 288.147 128.663C286.907 129.356 285.708 130.389 284.907 131.848C284.1 133.284 283.667 135.076 283.938 136.918C284.15 138.769 284.976 140.705 284.822 142.93C284.743 144.011 284.42 145.169 283.614 146.062C282.802 146.981 281.59 147.319 280.529 147.57C276.222 148.401 272.98 151.664 271.662 155.141C270.27 158.664 270.962 162.292 272.36 164.744C273.744 167.25 275.608 168.782 276.986 169.577C278.375 170.391 279.259 170.619 279.233 170.691Z" fill="#263238"/>
<path d="M340.544 183.092C340.513 183.041 341.344 182.556 342.744 181.548C344.083 180.53 346.214 178.955 347.379 176.141C347.91 174.749 348.139 173.023 347.638 171.345C347.396 170.511 346.954 169.706 346.295 169.074C345.652 168.423 344.767 167.985 343.876 167.455C341.994 166.477 340.505 164.352 340.443 161.977C340.341 159.527 341.869 157.492 342.41 155.314C342.963 153.104 342.406 150.798 341.382 148.898C340.368 146.965 338.909 145.4 337.367 144.091C334.26 141.488 331.032 139.586 328.799 137.363C326.536 135.182 325.273 132.869 324.82 131.174C324.569 130.33 324.526 129.642 324.492 129.186C324.495 128.724 324.508 128.484 324.531 128.484C324.611 128.478 324.545 129.462 325.081 131.093C325.604 132.718 326.89 134.915 329.144 137.001C331.365 139.128 334.586 140.962 337.788 143.594C339.373 144.917 340.919 146.545 341.991 148.572C343.076 150.562 343.703 153.053 343.092 155.482C342.469 157.856 341.023 159.808 341.132 161.951C341.197 164.082 342.46 165.961 344.209 166.897C345.063 167.419 346.001 167.885 346.728 168.631C347.466 169.355 347.944 170.265 348.197 171.182C348.717 173.028 348.433 174.854 347.84 176.325C347.22 177.807 346.288 178.928 345.396 179.796C344.496 180.664 343.625 181.293 342.898 181.771C342.169 182.249 341.58 182.582 341.178 182.797C340.776 183.015 340.556 183.114 340.544 183.092Z" fill="#263238"/>
<path d="M291.596 139.474C292.94 138.451 293.781 136.878 294.225 135.248C294.67 133.618 294.757 131.915 294.838 130.228C294.862 129.739 294.791 129.11 294.318 128.98C293.862 128.854 293.48 129.326 293.258 129.745C291.611 132.846 291.015 136.496 291.592 139.96C291.692 139.867 291.792 139.773 291.893 139.68" fill="#263238"/>
<path d="M267.971 451.871L267.722 439.699L290.52 439.086L291.074 456.89L289.663 457.02C283.381 457.538 257.688 459.213 253.449 458.053C248.719 456.754 267.971 451.871 267.971 451.871Z" fill="#00B3B1"/>
<g opacity="0.5">
<g opacity="0.5">
<path opacity="0.5" d="M282.803 456.933C283.076 455.02 284.087 453.222 285.581 451.994C287.074 450.768 288.935 450.092 290.865 450.194L291.041 456.566L282.803 456.933Z" fill="white"/>
</g>
</g>
<g opacity="0.4">
<g opacity="0.4">
<path opacity="0.4" d="M258.573 454.594C258.573 454.594 251.836 456.735 252.714 457.831C253.589 458.927 279.619 458.21 291.072 456.89L291.02 456.382L260.667 457.476C260.67 457.475 259.902 454.614 258.573 454.594Z" fill="white"/>
</g>
</g>
<path d="M291.38 456.357C291.38 456.367 291.246 456.386 290.989 456.41C290.652 456.44 290.282 456.473 289.865 456.509C288.74 456.589 287.358 456.686 285.726 456.801C282.23 457.023 277.397 457.267 272.052 457.417C266.707 457.568 261.866 457.599 258.364 457.574C256.728 457.551 255.343 457.532 254.216 457.516C253.797 457.503 253.426 457.491 253.088 457.481C252.831 457.47 252.694 457.459 252.695 457.451C252.695 457.442 252.831 457.432 253.088 457.426C253.426 457.42 253.797 457.415 254.216 457.409C255.342 457.4 256.727 457.39 258.362 457.38C261.865 457.354 266.702 457.293 272.044 457.143C277.384 456.991 282.217 456.778 285.714 456.607C287.348 456.525 288.732 456.459 289.857 456.403C290.275 456.385 290.646 456.371 290.985 456.356C291.243 456.347 291.38 456.348 291.38 456.357Z" fill="#263238"/>
<path d="M260.685 457.83C260.601 457.843 260.509 456.855 259.857 455.874C259.222 454.881 258.355 454.398 258.4 454.326C258.415 454.256 259.403 454.659 260.088 455.722C260.785 456.778 260.756 457.845 260.685 457.83Z" fill="#263238"/>
<path d="M266.579 453.401C266.926 453.915 267.258 454.298 267.321 454.255C267.385 454.212 267.155 453.761 266.808 453.246C266.461 452.732 266.128 452.349 266.065 452.392C266.002 452.434 266.232 452.886 266.579 453.401Z" fill="#263238"/>
<path d="M268.325 452.701C268.727 453.042 269.093 453.272 269.143 453.214C269.192 453.156 268.906 452.832 268.504 452.49C268.101 452.148 267.735 451.918 267.686 451.976C267.637 452.034 267.923 452.359 268.325 452.701Z" fill="#263238"/>
<path d="M269.016 451.195C269.673 451.17 270.204 451.087 270.201 451.01C270.198 450.933 269.662 450.891 269.005 450.917C268.347 450.942 267.817 451.025 267.82 451.102C267.823 451.179 268.358 451.221 269.016 451.195Z" fill="#263238"/>
<path d="M270.604 449.493C270.632 449.561 270.058 449.839 269.288 449.917C268.516 449.998 267.899 449.843 267.912 449.772C267.923 449.693 268.527 449.721 269.259 449.642C269.99 449.568 270.577 449.418 270.604 449.493Z" fill="#263238"/>
<path d="M266.49 452.266C266.492 452.295 265.932 452.381 265.025 452.295C264.573 452.255 264.035 452.161 263.456 451.995C263.167 451.9 262.867 451.832 262.553 451.651C262.405 451.559 262.242 451.426 262.178 451.206C262.112 450.988 262.221 450.737 262.384 450.614C263.765 449.85 265.187 450.598 265.728 451.309C266.024 451.67 266.165 452.026 266.232 452.272C266.297 452.523 266.297 452.665 266.281 452.668C266.23 452.688 266.166 452.094 265.58 451.437C265.29 451.115 264.857 450.805 264.306 450.657C263.785 450.518 263.047 450.498 262.564 450.825C262.336 451.004 262.434 451.275 262.696 451.421C262.941 451.57 263.257 451.656 263.53 451.75C264.089 451.926 264.609 452.035 265.049 452.102C265.931 452.233 266.488 452.22 266.49 452.266Z" fill="#263238"/>
<path d="M266.113 452.347C266.092 452.365 265.866 451.996 265.915 451.336C265.942 451.011 266.05 450.625 266.286 450.255C266.536 449.923 266.856 449.465 267.485 449.475C267.825 449.507 268.003 449.89 267.955 450.138C267.935 450.395 267.827 450.619 267.725 450.799C267.517 451.17 267.278 451.474 267.058 451.704C266.611 452.166 266.252 452.347 266.236 452.32C266.209 452.285 266.52 452.05 266.913 451.574C267.108 451.336 267.318 451.037 267.502 450.678C267.694 450.364 267.816 449.804 267.448 449.747C267.081 449.72 266.715 450.096 266.5 450.395C266.278 450.718 266.16 451.063 266.111 451.359C266.014 451.959 266.161 452.335 266.113 452.347Z" fill="#263238"/>
<path d="M290.744 450.131C290.74 450.183 290.09 450.088 289.062 450.237C288.046 450.378 286.636 450.835 285.429 451.852C284.223 452.871 283.534 454.182 283.222 455.161C282.901 456.148 282.885 456.804 282.834 456.8C282.816 456.799 282.804 456.635 282.82 456.34C282.836 456.043 282.895 455.617 283.035 455.104C283.306 454.083 283.994 452.704 285.252 451.639C286.511 450.581 287.988 450.137 289.038 450.041C289.567 449.991 289.999 450.004 290.293 450.039C290.587 450.074 290.747 450.116 290.744 450.131Z" fill="#263238"/>
<path d="M288.457 445.404C288.353 442.817 288.207 440.723 288.131 440.726C288.055 440.729 288.077 442.828 288.181 445.415C288.285 448.001 288.431 450.095 288.507 450.092C288.583 450.089 288.561 447.99 288.457 445.404Z" fill="#263238"/>
<path d="M279.874 454.79C279.884 454.861 278.406 455.146 276.554 455.212C274.702 455.284 273.206 455.108 273.213 455.036C273.218 454.955 274.709 455.006 276.543 454.936C278.378 454.868 279.861 454.71 279.874 454.79Z" fill="#263238"/>
<path d="M284.341 454.661C284.398 454.715 284.229 454.979 284.085 455.324C283.938 455.669 283.867 455.975 283.789 455.973C283.716 455.975 283.661 455.615 283.831 455.217C283.997 454.819 284.29 454.607 284.341 454.661Z" fill="#263238"/>
<path d="M285.644 453.075C285.873 452.829 286.014 452.588 285.958 452.536C285.903 452.484 285.672 452.641 285.442 452.886C285.213 453.131 285.073 453.372 285.128 453.424C285.184 453.476 285.415 453.32 285.644 453.075Z" fill="#263238"/>
<path d="M288.348 451.493C288.335 451.572 288.032 451.577 287.7 451.703C287.366 451.824 287.131 452.016 287.07 451.966C287.008 451.925 287.191 451.596 287.604 451.443C288.015 451.292 288.37 451.422 288.348 451.493Z" fill="#263238"/>
<path d="M289.783 451.222C289.97 451.144 290.097 451.023 290.068 450.953C290.038 450.882 289.863 450.889 289.676 450.967C289.489 451.046 289.362 451.166 289.391 451.237C289.421 451.307 289.596 451.301 289.783 451.222Z" fill="#263238"/>
<path d="M212.914 386.748L218.2 375.779L238.808 385.548L231.246 401.676L229.929 401.152C224.093 398.772 200.422 388.64 197.166 385.686C193.536 382.391 212.914 386.748 212.914 386.748Z" fill="#00B3B1"/>
<g opacity="0.5">
<g opacity="0.5">
<path opacity="0.5" d="M223.85 397.973C224.958 396.39 226.675 395.244 228.561 394.825C230.448 394.406 232.414 394.645 234.088 395.61L231.363 401.372L223.85 397.973Z" fill="white"/>
</g>
</g>
<g opacity="0.4">
<g opacity="0.4">
<path opacity="0.4" d="M203.301 384.923C203.301 384.923 196.325 383.785 196.612 385.159C196.898 386.533 220.435 397.671 231.246 401.675L231.432 401.199L203.868 388.439C203.867 388.44 204.476 385.542 203.301 384.923Z" fill="white"/>
</g>
</g>
<path d="M231.76 401.34C231.756 401.349 231.627 401.305 231.387 401.21C231.073 401.084 230.729 400.947 230.341 400.79C229.303 400.352 228.026 399.813 226.518 399.178C223.3 397.796 218.878 395.823 214.045 393.541C209.212 391.258 204.88 389.095 201.768 387.486C200.319 386.726 199.093 386.083 198.095 385.557C197.728 385.357 197.403 385.18 197.105 385.017C196.881 384.89 196.766 384.819 196.77 384.811C196.774 384.803 196.898 384.857 197.131 384.967C197.436 385.116 197.769 385.278 198.145 385.463C199.154 385.965 200.394 386.583 201.857 387.312C204.991 388.873 209.333 391.006 214.166 393.292C218.996 395.573 223.403 397.569 226.599 398.999C228.092 399.667 229.357 400.231 230.386 400.691C230.766 400.865 231.103 401.018 231.412 401.16C231.642 401.271 231.762 401.332 231.76 401.34Z" fill="#263238"/>
<path d="M203.72 388.765C203.639 388.738 204.005 387.816 203.867 386.645C203.75 385.473 203.195 384.649 203.268 384.606C203.313 384.552 204.012 385.359 204.141 386.615C204.285 387.871 203.776 388.808 203.72 388.765Z" fill="#263238"/>
<path d="M210.988 387.481C211.064 388.097 211.188 388.589 211.263 388.58C211.339 388.571 211.338 388.063 211.262 387.447C211.185 386.83 211.062 386.338 210.986 386.347C210.91 386.356 210.911 386.864 210.988 387.481Z" fill="#263238"/>
<path d="M212.843 387.618C213.048 388.106 213.27 388.477 213.34 388.448C213.411 388.419 213.302 387.999 213.098 387.512C212.894 387.024 212.672 386.653 212.601 386.682C212.531 386.712 212.639 387.131 212.843 387.618Z" fill="#263238"/>
<path d="M214.171 386.628C214.769 386.903 215.279 387.069 215.311 386.999C215.344 386.929 214.885 386.65 214.287 386.375C213.69 386.1 213.179 385.934 213.147 386.004C213.115 386.074 213.573 386.353 214.171 386.628Z" fill="#263238"/>
<path d="M216.337 385.818C216.332 385.891 215.694 385.879 214.973 385.599C214.249 385.322 213.768 384.904 213.811 384.847C213.857 384.781 214.383 385.079 215.072 385.34C215.757 385.607 216.347 385.738 216.337 385.818Z" fill="#263238"/>
<path d="M211.416 386.43C211.404 386.458 210.866 386.28 210.095 385.794C209.71 385.551 209.273 385.226 208.832 384.815C208.616 384.601 208.379 384.403 208.182 384.1C208.092 383.951 208.004 383.759 208.049 383.534C208.088 383.309 208.3 383.136 208.5 383.099C210.077 383.043 211.007 384.356 211.168 385.232C211.268 385.688 211.233 386.07 211.182 386.32C211.128 386.573 211.063 386.699 211.046 386.694C210.992 386.688 211.203 386.131 210.979 385.279C210.866 384.859 210.62 384.388 210.195 384.008C209.793 383.648 209.146 383.296 208.565 383.367C208.282 383.424 208.245 383.71 208.413 383.96C208.565 384.206 208.807 384.425 209.008 384.632C209.427 385.042 209.842 385.375 210.204 385.631C210.93 386.148 211.435 386.388 211.416 386.43Z" fill="#263238"/>
<path d="M211.041 386.33C211.015 386.336 210.98 385.906 211.324 385.339C211.494 385.062 211.766 384.765 212.143 384.542C212.515 384.359 213.008 384.096 213.565 384.389C213.854 384.574 213.838 384.994 213.683 385.194C213.549 385.415 213.35 385.564 213.178 385.679C212.825 385.917 212.476 386.08 212.174 386.185C211.566 386.394 211.165 386.394 211.161 386.363C211.153 386.319 211.538 386.249 212.101 386.003C212.382 385.878 212.704 385.706 213.032 385.469C213.346 385.276 213.709 384.832 213.406 384.614C213.089 384.425 212.595 384.595 212.267 384.762C211.923 384.952 211.662 385.205 211.485 385.448C211.129 385.939 211.089 386.342 211.041 386.33Z" fill="#263238"/>
<path d="M234.008 395.501C233.981 395.546 233.443 395.167 232.461 394.835C231.49 394.501 230.026 394.272 228.49 394.632C226.953 394.996 225.746 395.852 225.024 396.584C224.292 397.318 223.98 397.899 223.936 397.87C223.921 397.861 223.984 397.71 224.132 397.453C224.28 397.197 224.526 396.841 224.883 396.447C225.587 395.661 226.823 394.74 228.426 394.362C230.029 393.987 231.547 394.26 232.525 394.651C233.021 394.844 233.4 395.053 233.646 395.217C233.894 395.379 234.019 395.487 234.008 395.501Z" fill="#263238"/>
<path d="M234.091 390.229C235.168 387.875 235.986 385.942 235.916 385.91C235.847 385.878 234.917 387.76 233.84 390.114C232.762 392.467 231.945 394.401 232.014 394.432C232.084 394.464 233.013 392.582 234.091 390.229Z" fill="#263238"/>
<path d="M222.207 394.735C222.185 394.804 220.738 394.388 219.056 393.61C217.372 392.836 216.119 392.002 216.155 391.942C216.196 391.873 217.503 392.592 219.171 393.36C220.838 394.131 222.234 394.661 222.207 394.735Z" fill="#263238"/>
<path d="M226.25 396.643C226.277 396.718 226.005 396.876 225.72 397.121C225.433 397.361 225.232 397.602 225.163 397.564C225.096 397.533 225.211 397.189 225.542 396.91C225.872 396.629 226.229 396.572 226.25 396.643Z" fill="#263238"/>
<path d="M228.132 395.799C228.448 395.683 228.682 395.532 228.656 395.46C228.63 395.389 228.353 395.424 228.038 395.539C227.722 395.655 227.488 395.806 227.514 395.878C227.54 395.949 227.817 395.914 228.132 395.799Z" fill="#263238"/>
<path d="M231.257 395.635C231.21 395.697 230.936 395.564 230.583 395.529C230.231 395.484 229.935 395.551 229.904 395.477C229.866 395.414 230.178 395.203 230.614 395.254C231.052 395.301 231.307 395.579 231.257 395.635Z" fill="#263238"/>
<path d="M232.596 396.079C232.798 396.094 232.966 396.044 232.972 395.968C232.977 395.892 232.818 395.818 232.616 395.804C232.414 395.789 232.246 395.839 232.24 395.915C232.235 395.991 232.394 396.065 232.596 396.079Z" fill="#263238"/>
<path d="M363.257 227.421L358.409 203.107C354.836 183.206 326.939 181.836 326.939 181.836L305.044 181.48C305.044 181.48 288.812 179.299 278.794 190.592C268.425 202.281 255.691 216.094 255.691 216.094L265.421 240.561L288.455 221.552C288.455 221.552 285.365 226.572 285.365 232.61C285.365 239.092 292.129 242.081 292.129 242.081L294.201 261.811L287.327 293.664L358.825 290.798C357.429 279.249 353.742 269.358 348.284 260.755L349.612 227.419H363.257V227.421Z" fill="#00B3B1"/>
<path d="M332.567 200.166C332.616 200.159 332.747 200.713 332.941 201.72C333.167 202.874 333.447 204.298 333.778 205.985C334.505 209.744 335.452 214.646 336.502 220.065C337.545 225.57 338.448 230.564 339.024 234.194C339.312 236.009 339.519 237.482 339.64 238.503C339.752 239.526 339.791 240.095 339.743 240.102C339.695 240.108 339.564 239.553 339.369 238.547C339.143 237.394 338.864 235.97 338.534 234.283C337.807 230.523 336.858 225.621 335.808 220.199C334.765 214.696 333.863 209.704 333.288 206.074C332.999 204.259 332.792 202.786 332.67 201.764C332.558 200.74 332.519 200.173 332.567 200.166Z" fill="#263238"/>
<path d="M350.409 226.549C357.704 226.524 363.617 226.345 363.616 226.15C363.616 225.954 357.701 225.817 350.406 225.842C343.111 225.868 337.198 226.047 337.199 226.242C337.199 226.437 343.114 226.575 350.409 226.549Z" fill="#263238"/>
<path d="M366.344 248.176C364.93 236.497 363.051 226.541 363.051 226.541H337.738C337.738 226.541 340.882 241.358 340.179 244.794C339.567 247.786 290.511 249.771 277.729 249.97C276.969 249.397 275.862 250.358 274.879 249.501C274.008 248.743 273.277 247.832 272.705 246.819C272.009 245.593 271.149 243.921 270.956 242.858C270.716 241.542 269.041 241.207 268.53 242.302C268.018 243.398 268.593 247.041 271.023 250.563C273.453 254.084 267.085 252.254 264.753 251.629C262.42 251.005 255.119 249.424 254.364 250.008C253.26 250.863 253.952 252.236 256.294 252.805C258.666 253.379 265.547 255.581 265.17 256.828C264.797 258.057 252.968 254.715 252.968 254.715C252.968 254.715 250.551 253.58 250.068 255.007C249.195 257.579 262.025 260.183 263.251 260.399C264.104 260.55 263.74 261.92 262.833 261.71C261.899 261.49 251.109 258.094 250.197 260.705C249.497 262.708 260.73 262.946 262.589 264.926C264.448 266.907 254.086 263.857 253.493 265.8C253.272 266.523 257.583 266.857 263.778 267.727C269.573 268.544 280.35 268.469 282.93 268.41C297.3 269.196 348.093 270.247 358.934 269.481C371.573 268.586 366.83 252.187 366.344 248.176Z" fill="#FFBE9D"/>
<path d="M285.899 228.109C285.808 228.076 286.162 226.832 286.757 224.823C287.059 223.82 287.426 222.626 287.885 221.313C288.115 220.656 288.368 219.97 288.659 219.266C288.819 218.885 289.019 218.56 289.12 218.245C289.221 217.927 289.26 217.564 289.25 217.196C289.229 216.455 289.041 215.696 288.91 214.951C288.773 214.219 288.642 213.507 288.513 212.816C288.287 211.518 288.076 210.306 287.881 209.191C287.542 207.125 287.38 205.836 287.475 205.819C287.569 205.801 287.905 207.053 288.37 209.096C288.609 210.201 288.87 211.403 289.151 212.692C289.291 213.379 289.438 214.088 289.588 214.819C289.726 215.555 289.928 216.317 289.955 217.178C289.966 217.606 289.924 218.042 289.786 218.464C289.641 218.889 289.427 219.221 289.296 219.534C289.003 220.219 288.739 220.89 288.495 221.535C288.042 222.769 287.62 223.923 287.23 224.98C286.514 226.95 285.991 228.144 285.899 228.109Z" fill="#263238"/>
<path d="M315.402 135.77C317.364 138.282 319.437 141.166 319.047 144.331C318.707 147.095 316.499 149.552 316.871 152.313C317.298 155.496 320.992 157.571 321.176 160.777C321.328 163.437 319.04 165.491 317.421 167.605C315.091 170.647 313.928 174.608 314.466 178.403C315.003 182.196 317.303 185.749 320.654 187.605C324.004 189.461 328.353 189.491 331.624 187.495C334.652 185.647 336.524 182.357 337.686 179.004C339.194 174.646 339.61 169.501 337.014 165.688C335.964 164.145 334.43 162.811 334.09 160.977C333.66 158.646 335.311 156.447 335.574 154.09C335.924 150.936 333.746 148.055 331.328 145.999C328.911 143.942 326.078 142.268 324.283 139.651" fill="#263238"/>
<g opacity="0.3">
<path opacity="0.3" d="M333.4 206.756C334.287 220.317 334.815 232.81 335.076 246.398C337.104 246.167 338.941 245.76 340.179 244.792C340.879 239 336.49 221.366 333.4 206.756Z" fill="black"/>
</g>
<path d="M300.406 200.522C300.218 200.499 300.243 199.095 300.716 197.446C301.185 195.793 301.905 194.588 302.077 194.668C302.258 194.75 301.847 196.043 301.395 197.639C300.936 199.231 300.604 200.549 300.406 200.522Z" fill="#FAFAFA"/>
<path d="M286.009 200.481C285.902 200.64 284.941 200.168 283.998 199.272C283.05 198.379 282.529 197.445 282.68 197.328C282.837 197.206 283.579 197.909 284.482 198.761C285.381 199.615 286.122 200.319 286.009 200.481Z" fill="#FAFAFA"/>
<path d="M272.285 211.707C272.229 211.713 272.164 211.585 272.092 211.34L272.401 211.315C272.551 211.896 272.662 213.194 272.401 214.663C272.056 216.731 271.15 218.201 270.989 218.111C270.804 218.026 271.382 216.5 271.707 214.543C271.954 213.148 272.007 211.919 272.092 211.333L272.401 211.309C272.379 211.564 272.34 211.701 272.285 211.707Z" fill="#FAFAFA"/>
<path d="M268.709 224.983C270.277 225.593 271.606 225.94 271.677 225.759C271.747 225.577 270.533 224.934 268.965 224.324C267.396 223.714 266.068 223.366 265.997 223.548C265.926 223.73 267.14 224.372 268.709 224.983Z" fill="#FAFAFA"/>
<path d="M283.266 217.98C283.078 217.951 283.114 216.757 283.549 215.365C283.979 213.974 284.627 212.968 284.799 213.052C284.979 213.137 284.636 214.235 284.222 215.574C283.803 216.914 283.461 218.012 283.266 217.98Z" fill="#FAFAFA"/>
<path d="M293.233 187.627C294.503 187.567 295.524 187.36 295.515 187.165C295.506 186.97 294.469 186.861 293.199 186.921C291.93 186.982 290.908 187.189 290.917 187.384C290.927 187.579 291.963 187.688 293.233 187.627Z" fill="#FAFAFA"/>
<path d="M297.988 213.603C297.869 213.745 296.765 212.926 296.035 211.438C295.296 209.954 295.316 208.58 295.5 208.571C295.703 208.545 295.986 209.772 296.666 211.127C297.329 212.487 298.132 213.457 297.988 213.603Z" fill="#FAFAFA"/>
<path d="M322.034 207.939C322.171 208.075 321.31 209.156 320.024 210.258C318.741 211.362 317.541 212.049 317.427 211.895C317.31 211.737 318.303 210.808 319.565 209.724C320.828 208.64 321.896 207.798 322.034 207.939Z" fill="#FAFAFA"/>
<path d="M308.449 205.874C309.492 205.101 310.244 204.348 310.129 204.192C310.013 204.035 309.073 204.536 308.03 205.309C306.986 206.082 306.234 206.836 306.35 206.992C306.466 207.148 307.406 206.648 308.449 205.874Z" fill="#FAFAFA"/>
<path d="M315.972 194.474C315.889 194.642 314.487 194.077 313.093 192.875C311.693 191.679 310.923 190.38 311.076 190.272C311.237 190.148 312.218 191.202 313.553 192.339C314.879 193.485 316.069 194.296 315.972 194.474Z" fill="#FAFAFA"/>
<path d="M327.947 192.434C329.015 191.626 329.785 190.844 329.667 190.689C329.55 190.535 328.59 191.065 327.522 191.873C326.455 192.682 325.685 193.463 325.802 193.618C325.92 193.773 326.88 193.243 327.947 192.434Z" fill="#FAFAFA"/>
<path d="M341.093 196.105C340.907 196.034 341.219 194.772 341.527 193.217C341.842 191.663 342.04 190.377 342.239 190.385C342.428 190.388 342.546 191.736 342.217 193.355C341.898 194.976 341.269 196.175 341.093 196.105Z" fill="#FAFAFA"/>
<path d="M340.362 207.082C341.747 208.35 342.976 209.262 343.108 209.119C343.239 208.976 342.223 207.831 340.838 206.562C339.453 205.294 338.224 204.382 338.092 204.525C337.961 204.669 338.977 205.813 340.362 207.082Z" fill="#FAFAFA"/>
<path d="M353.16 200.893C352.546 202.333 352.194 203.563 352.373 203.639C352.552 203.715 353.194 202.609 353.807 201.169C354.421 199.728 354.773 198.499 354.594 198.423C354.415 198.346 353.773 199.452 353.16 200.893Z" fill="#FAFAFA"/>
<path d="M354.159 216.177C353.259 217.819 352.668 219.227 352.839 219.32C353.009 219.414 353.877 218.158 354.777 216.515C355.677 214.873 356.268 213.465 356.098 213.372C355.927 213.278 355.059 214.534 354.159 216.177Z" fill="#FAFAFA"/>
<path d="M341.622 219.518C342.615 220.837 343.546 221.812 343.701 221.695C343.856 221.578 343.177 220.414 342.184 219.095C341.192 217.776 340.261 216.802 340.106 216.919C339.95 217.036 340.629 218.2 341.622 219.518Z" fill="#FAFAFA"/>
<path d="M326.5 228.412C326.329 228.332 327.029 226.514 328.356 224.525C329.677 222.529 331.084 221.181 331.223 221.307C331.374 221.44 330.234 222.967 328.942 224.915C327.647 226.859 326.68 228.5 326.5 228.412Z" fill="#FAFAFA"/>
<path d="M312.214 224.061C313.095 225.873 313.95 227.273 314.125 227.188C314.3 227.103 313.728 225.565 312.848 223.753C311.967 221.941 311.112 220.542 310.937 220.626C310.762 220.711 311.334 222.249 312.214 224.061Z" fill="#FAFAFA"/>
<path d="M295.718 226.499C297.412 225.017 298.682 223.697 298.555 223.551C298.427 223.404 296.949 224.487 295.254 225.969C293.559 227.451 292.289 228.771 292.417 228.917C292.545 229.064 294.023 227.981 295.718 226.499Z" fill="#FAFAFA"/>
<path d="M304.459 240.471C304.297 240.591 303.18 239.328 301.723 237.866C300.272 236.397 299.017 235.269 299.139 235.108C299.249 234.957 300.73 235.858 302.223 237.369C303.722 238.875 304.612 240.362 304.459 240.471Z" fill="#FAFAFA"/>
<path d="M315.366 240.981C315.187 240.928 315.553 239.298 316.577 237.536C317.594 235.766 318.823 234.637 318.96 234.766C319.112 234.9 318.163 236.191 317.188 237.889C316.204 239.58 315.558 241.047 315.366 240.981Z" fill="#FAFAFA"/>
<path d="M330.658 242.706C330.524 242.848 329.022 241.799 327.303 240.364C325.584 238.929 324.285 237.636 324.402 237.48C324.518 237.324 326.018 238.372 327.755 239.822C329.492 241.272 330.79 242.564 330.658 242.706Z" fill="#FAFAFA"/>
<path d="M329.317 202.452C329.233 202.621 327.878 202.112 326.454 201.06C325.025 200.011 324.139 198.865 324.278 198.735C324.42 198.595 325.498 199.483 326.873 200.491C328.242 201.507 329.409 202.273 329.317 202.452Z" fill="#FAFAFA"/>
<path d="M307.196 271.829C307.271 272.018 306.171 272.61 304.955 273.511C303.73 274.403 302.836 275.277 302.678 275.148C302.529 275.037 303.228 273.9 304.537 272.944C305.84 271.982 307.135 271.653 307.196 271.829Z" fill="#FAFAFA"/>
<path d="M322.118 275.636C322.734 277.308 323.381 278.608 323.564 278.541C323.746 278.474 323.394 277.064 322.778 275.392C322.162 273.721 321.514 272.42 321.332 272.487C321.149 272.554 321.501 273.964 322.118 275.636Z" fill="#FAFAFA"/>
<path d="M338.227 275.13C339.407 273.896 340.249 272.787 340.108 272.652C339.967 272.517 338.896 273.408 337.716 274.641C336.537 275.875 335.694 276.984 335.835 277.119C335.976 277.254 337.047 276.363 338.227 275.13Z" fill="#FAFAFA"/>
<path d="M352.309 281.58C352.172 281.736 351.074 280.868 349.451 280.554C347.835 280.205 346.484 280.571 346.419 280.375C346.323 280.215 347.748 279.476 349.593 279.862C351.438 280.232 352.461 281.472 352.309 281.58Z" fill="#FAFAFA"/>
<path d="M359.039 287.605C359.039 287.605 265.546 268.02 256.493 272.307C247.441 276.596 205.699 379.774 205.699 379.774L239.307 394.233L275.478 306.562C275.478 306.562 340.933 330.47 352.368 328.094C363.803 325.719 359.039 287.605 359.039 287.605Z" fill="#455A64"/>
<path d="M317.253 293.104C315.824 293.581 261.743 315.811 257.932 322.959C254.121 330.107 263.484 448.769 263.484 448.769H294.243L292.338 343.305L352.369 328.094L317.253 293.104Z" fill="#455A64"/>
<path d="M352.682 328.334C352.678 328.359 352.372 328.321 351.797 328.226C351.148 328.111 350.314 327.963 349.28 327.78C347.099 327.378 343.949 326.758 340.066 325.933C332.303 324.293 321.615 321.816 309.97 318.477C304.15 316.792 298.651 315.035 293.687 313.327C288.74 311.567 284.305 309.92 280.654 308.358C278.814 307.613 277.176 306.874 275.741 306.223C274.299 305.584 273.068 305.008 272.079 304.502C271.14 304.028 270.384 303.648 269.796 303.351C269.278 303.082 269.011 302.928 269.022 302.907C269.033 302.884 269.321 302.994 269.858 303.223C270.46 303.487 271.235 303.829 272.195 304.253C273.201 304.719 274.445 305.257 275.898 305.861C277.346 306.479 278.994 307.183 280.842 307.896C284.508 309.396 288.951 310.991 293.896 312.714C298.863 314.382 304.357 316.118 310.166 317.8C321.791 321.132 332.446 323.684 340.174 325.445C343.98 326.303 347.088 327.003 349.337 327.51C350.36 327.747 351.186 327.938 351.826 328.086C352.391 328.225 352.687 328.31 352.682 328.334Z" fill="#263238"/>
<path d="M257.944 350.219C257.895 350.223 257.796 349.59 257.659 348.442C257.523 347.153 257.351 345.523 257.146 343.575C256.95 341.47 256.724 339.033 256.473 336.351C256.254 333.645 255.87 330.593 256.46 327.404C257.031 324.185 258.906 321.52 260.949 319.671C263.003 317.785 265.223 316.587 267.101 315.714C268.991 314.845 270.575 314.292 271.668 313.915C272.764 313.544 273.378 313.366 273.396 313.411C273.449 313.537 271.019 314.383 267.317 316.163C265.488 317.081 263.348 318.301 261.392 320.145C259.44 321.967 257.695 324.488 257.152 327.535C256.586 330.574 256.932 333.583 257.121 336.297C257.314 338.983 257.49 341.425 257.642 343.534C257.758 345.488 257.856 347.126 257.933 348.419C257.986 349.573 257.992 350.215 257.944 350.219Z" fill="#263238"/>
<path d="M288.682 341.302C286.671 340.418 284.978 339.845 284.9 340.022C284.821 340.2 286.388 341.062 288.399 341.947C290.409 342.832 292.103 343.405 292.181 343.227C292.259 343.049 290.693 342.187 288.682 341.302Z" fill="#263238"/>
<path d="M287.639 336.78C287.828 336.699 288.681 338.405 290.088 340.253C291.481 342.111 292.889 343.396 292.76 343.556C292.654 343.706 290.984 342.619 289.526 340.676C288.056 338.744 287.465 336.841 287.639 336.78Z" fill="#263238"/>
<path d="M299.447 341.649C299.47 341.665 299.358 341.903 298.973 342.132C298.598 342.375 297.954 342.537 297.19 342.555C296.432 342.593 295.526 342.473 294.634 342.621C293.716 342.739 293.1 343.474 293.106 344.579C293.071 349.084 292.923 352.796 292.723 352.787C292.534 352.777 292.364 349.122 292.402 344.537C292.434 343.95 292.555 343.284 292.983 342.789C293.386 342.284 294.005 342.048 294.529 341.978C295.594 341.849 296.467 342.033 297.194 342.055C298.674 342.207 299.377 341.573 299.447 341.649Z" fill="#263238"/>
<path opacity="0.3" d="M292.068 271.694L355.799 276.813L353.077 269.686L292.691 268.811L292.068 271.694Z" fill="black"/>
<path d="M464.547 257.705H88.877V267.737H108.971L98.6134 458.268L104.332 458.579L114.707 267.737H444.056L452.892 458.424H458.627L449.789 267.737H464.547V257.705Z" fill="#263238"/>
<path d="M198.447 198.464L219.279 259.339H313.606L312.91 256.203L274.769 255.024L257.196 198.432L198.447 198.464Z" fill="#263238"/>
<path d="M240.248 227.057C240.871 229.552 239.803 231.993 237.861 232.512C235.921 233.032 233.843 231.431 233.22 228.936C232.598 226.441 233.666 224 235.607 223.48C237.547 222.963 239.625 224.562 240.248 227.057Z" fill="white"/>
</svg>
