<svg width="509" height="438" viewBox="0 0 509 438" fill="none" xmlns="http://www.w3.org/2000/svg">
<path d="M196.094 83.1816H55.7026V166.699H196.094V83.1816Z" fill="white"/>
<path d="M196.089 166.699C196.089 166.699 196.075 166.177 196.067 165.18C196.062 164.176 196.055 162.701 196.045 160.774C196.033 156.908 196.015 151.237 195.994 143.976C195.968 129.466 195.932 108.609 195.889 83.1822L196.089 83.3605C157.404 83.3734 108.601 83.3884 55.7088 83.4053H55.6976L55.9487 83.1822C55.942 112.935 55.9342 141.229 55.9274 166.7L55.6965 166.494C97.0249 166.535 132.093 166.57 156.84 166.595C169.223 166.618 179.021 166.637 185.736 166.65C189.089 166.661 191.67 166.669 193.422 166.675C194.29 166.68 194.951 166.684 195.407 166.687C195.855 166.691 196.089 166.699 196.089 166.699C196.089 166.699 195.873 166.707 195.436 166.711C194.986 166.714 194.334 166.718 193.477 166.723C191.735 166.729 189.169 166.737 185.837 166.747C179.135 166.76 169.353 166.779 156.992 166.802C132.208 166.827 97.0877 166.862 55.6976 166.904H55.4666V166.699C55.4599 141.228 55.4532 112.934 55.4453 83.1812V82.957H55.6976H55.7088C108.601 82.974 157.404 82.9899 196.089 83.0019H196.291V83.1802C196.246 108.654 196.21 129.549 196.186 144.086C196.163 151.329 196.147 156.986 196.135 160.842C196.125 162.755 196.117 164.219 196.113 165.215C196.104 166.203 196.089 166.699 196.089 166.699Z" fill="#E0E0E0"/>
<path d="M55.7036 90.6343C55.7036 90.5108 87.1083 90.4102 125.838 90.4102C164.581 90.4102 195.979 90.5108 195.979 90.6343C195.979 90.7578 164.581 90.8574 125.838 90.8574C87.1083 90.8584 55.7036 90.7578 55.7036 90.6343Z" fill="#E0E0E0"/>
<g opacity="0.3">
<g opacity="0.3">
<path opacity="0.3" d="M60.1138 87.8772C60.7349 87.8772 61.2384 87.4299 61.2384 86.878C61.2384 86.3262 60.7349 85.8789 60.1138 85.8789C59.4927 85.8789 58.9893 86.3262 58.9893 86.878C58.9893 87.4299 59.4927 87.8772 60.1138 87.8772Z" fill="#E0E0E0"/>
</g>
</g>
<g opacity="0.3">
<g opacity="0.3">
<path opacity="0.3" d="M63.967 87.8772C64.5887 87.8772 65.0927 87.4294 65.0927 86.8771C65.0927 86.3247 64.5887 85.877 63.967 85.877C63.3453 85.877 62.8413 86.3247 62.8413 86.8771C62.8413 87.4294 63.3453 87.8772 63.967 87.8772Z" fill="#E0E0E0"/>
</g>
</g>
<g opacity="0.3">
<g opacity="0.3">
<path opacity="0.3" d="M67.7735 87.8772C68.3946 87.8772 68.898 87.4299 68.898 86.878C68.898 86.3262 68.3946 85.8789 67.7735 85.8789C67.1524 85.8789 66.6489 86.3262 66.6489 86.878C66.6489 87.4299 67.1524 87.8772 67.7735 87.8772Z" fill="#E0E0E0"/>
</g>
</g>
<path d="M105.218 99.3438H67.769V132.616H105.218V99.3438Z" fill="#E0E0E0"/>
<path d="M176.84 108.748C176.84 108.871 162.234 108.972 144.221 108.972C126.202 108.972 111.599 108.871 111.599 108.748C111.599 108.624 126.201 108.523 144.221 108.523C162.234 108.524 176.84 108.624 176.84 108.748Z" fill="#E0E0E0"/>
<path d="M176.84 114.93C176.84 115.054 162.234 115.154 144.221 115.154C126.202 115.154 111.599 115.054 111.599 114.93C111.599 114.807 126.201 114.707 144.221 114.707C162.234 114.707 176.84 114.808 176.84 114.93Z" fill="#E0E0E0"/>
<path d="M176.84 121.114C176.84 121.237 162.234 121.338 144.221 121.338C126.202 121.338 111.599 121.237 111.599 121.114C111.599 120.99 126.201 120.891 144.221 120.891C162.234 120.891 176.84 120.991 176.84 121.114Z" fill="#E0E0E0"/>
<path d="M150.158 127.298C150.158 127.329 149.618 127.359 148.642 127.385C147.577 127.404 146.186 127.427 144.51 127.456C141.021 127.497 136.202 127.521 130.879 127.521C125.553 127.521 120.734 127.497 117.245 127.456C115.569 127.427 114.18 127.403 113.113 127.385C112.138 127.358 111.599 127.329 111.599 127.298C111.599 127.267 112.138 127.238 113.113 127.212C114.18 127.194 115.569 127.17 117.245 127.141C120.734 127.1 125.554 127.076 130.879 127.076C136.202 127.076 141.021 127.101 144.51 127.141C146.186 127.17 147.577 127.194 148.642 127.212C149.618 127.239 150.158 127.267 150.158 127.298Z" fill="#E0E0E0"/>
<path d="M87.7117 143.834H70.1123V159.471H87.7117V143.834Z" fill="#E0E0E0"/>
<path d="M119.631 143.834H102.032V159.471H119.631V143.834Z" fill="#E0E0E0"/>
<path d="M151.548 143.836H133.949V159.473H151.548V143.836Z" fill="#E0E0E0"/>
<path d="M183.465 143.836H165.865V159.473H183.465V143.836Z" fill="#E0E0E0"/>
<path d="M451.905 104.314C451.905 104.314 451.767 104.873 451.137 105.724C450.518 106.558 449.282 107.692 447.286 108.23C446.301 108.489 445.143 108.603 443.943 108.404C442.752 108.202 441.503 107.747 440.472 106.934C439.946 106.542 439.482 106.062 439.097 105.522C438.704 104.987 438.398 104.386 438.207 103.743C437.794 102.464 437.871 101.022 438.429 99.7006C439.012 98.3887 440.045 97.272 441.317 96.5707C441.944 96.2071 442.627 95.9441 443.322 95.7818C444.014 95.6114 444.72 95.5317 445.406 95.5546C446.784 95.5676 448.054 95.975 449.09 96.5339C450.13 97.1017 450.902 97.8777 451.437 98.6567C452.509 100.246 452.57 101.822 452.398 102.809C452.223 103.818 451.905 104.314 451.905 104.314C451.856 104.301 452.118 103.783 452.243 102.794C452.362 101.822 452.254 100.301 451.193 98.7921C450.665 98.052 449.913 97.3208 448.914 96.7909C447.92 96.2689 446.708 95.8913 445.401 95.8893C444.75 95.8714 444.081 95.9511 443.427 96.1165C442.769 96.2729 442.124 96.5249 441.535 96.8706C440.334 97.539 439.363 98.5929 438.811 99.8321C438.284 101.08 438.208 102.439 438.595 103.65C438.771 104.259 439.058 104.83 439.428 105.338C439.788 105.85 440.224 106.308 440.72 106.683C441.689 107.46 442.873 107.903 444.005 108.109C445.147 108.312 446.255 108.218 447.206 107.985C449.132 107.5 450.361 106.436 451.007 105.645C451.661 104.836 451.859 104.295 451.905 104.314Z" fill="#E0E0E0"/>
<path d="M458.593 110.325C458.591 110.32 458.674 110.327 458.843 110.344C459.027 110.365 459.276 110.391 459.596 110.426C460.286 110.509 461.279 110.628 462.57 110.781L462.499 110.818C463.1 109.406 463.892 107.55 464.849 105.305L464.887 105.415C463.877 104.817 462.753 104.154 461.548 103.443L461.488 103.407L461.496 103.343C461.637 102.151 461.617 100.862 461.375 99.5304L461.361 99.4597L461.427 99.4168C462.427 98.7504 463.509 98.0292 464.636 97.2791L464.59 97.4355C463.738 95.74 462.836 93.942 461.886 92.0533L462.063 92.136C460.847 92.3511 459.506 92.5892 458.13 92.8323L458.03 92.8502L457.965 92.7795C457.131 91.857 456.076 90.9396 454.86 90.1616L454.774 90.1058L454.79 90.0112C454.967 88.9184 455.164 87.714 455.364 86.4868L455.479 86.6611C453.534 85.9977 451.435 85.2814 449.285 84.5483L449.511 84.4845C448.817 85.406 448.055 86.418 447.282 87.4441L447.216 87.5308L447.1 87.5198C445.768 87.3913 444.291 87.4082 442.827 87.6184L442.709 87.6353L442.638 87.5497C441.887 86.6551 441.069 85.6799 440.24 84.6937L440.481 84.7495C438.562 85.5076 436.503 86.3194 434.418 87.1422L434.534 86.942C434.78 88.0458 435.044 89.2382 435.31 90.4385L435.334 90.5461L435.237 90.6148C434.179 91.3689 433.154 92.3043 432.294 93.3602L432.293 93.3612C432.206 93.3941 432.487 93.2895 432.097 93.4349H432.093L432.084 93.434L432.069 93.432L432.038 93.428L431.976 93.42L431.85 93.4041L431.6 93.3722L431.102 93.3074L430.107 93.1789C429.445 93.0933 428.786 93.0076 428.129 92.9219L428.349 92.8084C427.541 94.6672 426.745 96.5011 425.96 98.3091L425.885 98.095C427.005 98.7634 428.115 99.4238 429.214 100.079L429.315 100.14L429.302 100.247C429.145 101.524 429.185 102.804 429.407 104.042L429.426 104.147L429.33 104.209C428.241 104.929 427.17 105.637 426.113 106.336L426.175 106.128C427.091 107.968 427.985 109.766 428.859 111.518L428.65 111.422C429.986 111.189 431.297 110.961 432.587 110.737L432.695 110.717L432.766 110.795C433.679 111.808 434.727 112.689 435.86 113.42L435.946 113.476L435.93 113.569C435.728 114.778 435.533 115.949 435.345 117.093L435.237 116.93C437.412 117.68 439.468 118.388 441.424 119.062L441.238 119.114C442.025 118.076 442.765 117.101 443.478 116.16L443.529 116.094L443.616 116.103C445.137 116.253 446.568 116.203 447.903 116.018L447.983 116.007L448.031 116.065C448.898 117.106 449.679 118.043 450.417 118.929L450.271 118.895C452.626 117.978 454.632 117.196 456.348 116.528L456.296 116.617C455.995 115.22 455.75 114.073 455.544 113.118L455.537 113.082L455.567 113.061C456.708 112.254 457.439 111.538 457.907 111.057C458.127 110.82 458.296 110.639 458.419 110.505C458.536 110.379 458.591 110.321 458.593 110.325C458.595 110.329 458.546 110.397 458.448 110.524C458.344 110.652 458.188 110.847 457.961 111.096C457.508 111.592 456.788 112.325 455.651 113.153L455.674 113.096C455.893 114.049 456.155 115.193 456.476 116.588L456.491 116.65L456.423 116.677C454.714 117.36 452.714 118.155 450.37 119.091L450.283 119.126L450.224 119.057C449.48 118.175 448.693 117.243 447.818 116.207L447.946 116.253C446.591 116.448 445.135 116.507 443.585 116.361L443.721 116.305C443.014 117.248 442.281 118.226 441.498 119.268L441.429 119.361L441.312 119.321C439.353 118.655 437.296 117.953 435.116 117.211L434.991 117.168L435.011 117.049C435.196 115.904 435.386 114.733 435.583 113.523L435.653 113.673C434.495 112.929 433.42 112.031 432.482 110.996L432.66 111.054C431.373 111.281 430.062 111.512 428.726 111.747L428.578 111.773L428.517 111.651C427.641 109.899 426.741 108.103 425.821 106.264L425.758 106.139L425.882 106.056C426.938 105.355 428.009 104.646 429.095 103.924L429.019 104.093C428.789 102.825 428.747 101.513 428.907 100.204L428.993 100.37C427.895 99.7167 426.783 99.0562 425.662 98.3888L425.529 98.3091L425.587 98.1746C426.37 96.3666 427.165 94.5317 427.971 92.6729L428.03 92.5374L428.192 92.5583C428.849 92.643 429.508 92.7287 430.169 92.8153L431.165 92.9438L431.663 93.0086L431.913 93.0415L432.038 93.0574L432.101 93.0654L432.132 93.0694L432.147 93.0714L432.156 93.0723L432.16 93.0733C431.771 93.2188 432.052 93.1132 431.966 93.1461V93.1451L431.967 93.1441C432.848 92.0613 433.9 91.102 434.985 90.3289L434.913 90.5053C434.647 89.3049 434.383 88.1135 434.138 87.0088L434.107 86.8673L434.255 86.8085C436.343 85.9867 438.401 85.1758 440.322 84.4208L440.469 84.363L440.564 84.4765C441.389 85.4637 442.208 86.44 442.958 87.3355L442.768 87.2668C444.269 87.0536 445.781 87.0387 447.144 87.1721L446.963 87.2478C447.736 86.2238 448.502 85.2127 449.198 84.2923L449.282 84.1797L449.424 84.2285C451.572 84.9667 453.669 85.6869 455.613 86.3553L455.748 86.4021L455.727 86.5296C455.523 87.7559 455.324 88.9602 455.142 90.053L455.071 89.9046C456.31 90.7025 457.384 91.6439 458.231 92.5882L458.067 92.5344C459.443 92.2963 460.785 92.0632 462.004 91.8511L462.129 91.8291L462.181 91.9337C463.12 93.8264 464.015 95.6285 464.858 97.3269L464.905 97.4216L464.812 97.4833C463.681 98.2284 462.593 98.9437 461.589 99.6041L461.641 99.4896C461.88 100.844 461.89 102.154 461.737 103.363L461.684 103.263C462.88 103.981 463.998 104.654 465.005 105.257L465.075 105.299L465.045 105.367C464.059 107.602 463.244 109.45 462.624 110.856L462.603 110.899L462.552 110.892C461.277 110.713 460.296 110.576 459.615 110.48C459.291 110.432 459.043 110.395 458.856 110.368C458.683 110.346 458.595 110.33 458.593 110.325Z" fill="#E0E0E0"/>
<path fill-rule="evenodd" clip-rule="evenodd" d="M493.878 93.5559C493.164 94.4296 492.33 95.2036 491.404 95.865L492.047 98.7648L487.015 100.748L485.028 98.3783C483.855 98.5447 482.649 98.5756 481.441 98.459L479.588 100.914L474.452 99.1533L474.933 96.2296C473.949 95.5951 473.079 94.8539 472.335 94.0301L469.07 94.6029L466.839 90.1332L469.507 88.367C469.319 87.325 469.286 86.2531 469.417 85.1793L466.654 83.5346L468.634 78.9703L471.926 79.3976C472.639 78.523 473.475 77.75 474.401 77.0885L473.757 74.1877L478.788 72.2044L480.776 74.5752C481.949 74.4089 483.154 74.379 484.364 74.4945L486.215 72.041L491.349 73.7992L490.868 76.7229C491.852 77.3565 492.723 78.0986 493.467 78.9224L496.732 78.3506L498.963 82.8204L496.294 84.5866C496.482 85.6285 496.516 86.6994 496.384 87.7743L499.147 89.4199L497.167 93.9833L493.878 93.5559ZM488.32 88.5702C489.493 85.8666 487.977 82.8294 484.933 81.7874C481.89 80.7454 478.472 82.0932 477.299 84.7968C476.126 87.5003 477.643 90.5376 480.686 91.5796C483.729 92.6215 487.148 91.2737 488.32 88.5702Z" fill="#E0E0E0"/>
<path fill-rule="evenodd" clip-rule="evenodd" d="M472.191 66.3052C471.072 67.6759 469.764 68.8892 468.311 69.9262L469.321 74.4736L461.43 77.5836L458.313 73.866C456.473 74.1269 454.583 74.1758 452.686 73.9925L449.781 77.8416L441.726 75.0823L442.48 70.497C440.936 69.5028 439.57 68.3393 438.404 67.0483L433.286 67.9458L429.786 60.9359L433.969 58.1656C433.675 56.5309 433.621 54.8514 433.827 53.1669L429.495 50.5869L432.601 43.4295L437.762 44.0999C438.881 42.7282 440.19 41.5159 441.643 40.4789L440.633 35.9305L448.524 32.8205L451.641 36.5381C453.481 36.2771 455.371 36.2293 457.268 36.4126L460.172 32.5645L468.228 35.3228L467.473 39.9081C469.017 40.9023 470.384 42.0658 471.55 43.3568L476.668 42.4592L480.169 49.4692L475.986 52.2395C476.279 53.8742 476.333 55.5537 476.127 57.2382L480.458 59.8182L477.353 66.9746L472.191 66.3052ZM463.478 58.4864C465.316 54.2467 462.94 49.4841 458.168 47.8504C453.395 46.2167 448.035 48.3296 446.195 52.5692C444.355 56.8098 446.734 61.5714 451.505 63.2051C456.278 64.8388 461.638 62.727 463.478 58.4864Z" fill="#E0E0E0"/>
<path d="M393.053 28.3374C393.034 28.3195 393.245 28.1093 393.639 27.7447C394.101 27.3323 394.671 26.8242 395.344 26.2236C396.793 24.9505 398.816 23.2102 401.066 21.3036L401.118 21.2607L401.12 21.5177C398.853 19.647 396.817 17.9406 395.358 16.6934C394.681 16.1056 394.109 15.6076 393.645 15.2031C393.247 14.8455 393.035 14.6403 393.054 14.6224C393.073 14.6044 393.319 14.7768 393.749 15.1035C394.237 15.485 394.838 15.9552 395.548 16.5111C397.055 17.7114 399.121 19.388 401.388 21.2597L401.543 21.3872L401.39 21.5167L401.339 21.5596C399.088 23.4662 397.035 25.1786 395.536 26.4049C394.829 26.9727 394.231 27.4538 393.746 27.8443C393.318 28.179 393.071 28.3553 393.053 28.3374Z" fill="#E0E0E0"/>
<path d="M375.562 14.6243C375.581 14.6422 375.37 14.8524 374.974 15.217C374.514 15.6294 373.944 16.1375 373.271 16.7381C371.821 18.0102 369.799 19.7515 367.549 21.6581L367.498 21.701L367.496 21.444C369.763 23.3147 371.798 25.0211 373.258 26.2683C373.935 26.8571 374.506 27.3541 374.971 27.7586C375.369 28.1152 375.581 28.3214 375.562 28.3393C375.543 28.3573 375.297 28.1849 374.867 27.8582C374.378 27.4767 373.777 27.0065 373.068 26.4506C371.56 25.2503 369.495 23.5727 367.228 21.702L367.072 21.5745L367.226 21.445L367.277 21.4021C369.528 19.4955 371.579 17.7831 373.08 16.5568C373.786 15.988 374.385 15.5069 374.87 15.1174C375.297 14.7827 375.543 14.6064 375.562 14.6243Z" fill="#E0E0E0"/>
<path d="M384.168 21.317C381.801 26.9408 379.965 31.5274 380.068 31.5615C380.17 31.5956 382.173 27.0643 384.54 21.4405C386.908 15.8167 388.743 11.2302 388.641 11.196C388.538 11.1619 386.536 15.6932 384.168 21.317Z" fill="#E0E0E0"/>
<path d="M412.948 41.3842C412.948 41.3842 412.936 41.1172 412.929 40.6172C412.925 40.1061 412.918 39.369 412.91 38.4107C412.9 36.4732 412.887 33.6501 412.868 30.0529C412.846 22.8577 412.818 12.5754 412.783 0.176317L412.947 0.322751C396.665 0.331717 377.085 0.341681 356.03 0.352638H356.024L356.223 0.176317C356.215 15.0728 356.207 29.1415 356.201 41.3842L356.024 41.2268C372.924 41.2597 387.132 41.2866 397.127 41.3055C402.126 41.3234 406.069 41.3374 408.778 41.3473C410.121 41.3553 411.156 41.3623 411.87 41.3663C412.214 41.3702 412.478 41.3732 412.669 41.3752C412.851 41.3772 412.948 41.3842 412.948 41.3842C412.948 41.3842 412.866 41.3902 412.692 41.3932C412.504 41.3951 412.248 41.3981 411.911 41.4021C411.206 41.4061 410.183 41.4131 408.854 41.421C406.154 41.431 402.225 41.445 397.244 41.4629C387.222 41.4828 372.974 41.5097 356.026 41.5416H355.85V41.3842C355.844 29.1405 355.837 15.0728 355.829 0.176317V0H356.026H356.032C377.086 0.0109577 396.666 0.0209185 412.95 0.0288878H413.114L413.113 0.175322C413.079 12.6113 413.048 22.9265 413.028 30.1436C413.009 33.7268 412.996 36.5379 412.986 38.4684C412.978 39.4148 412.971 40.143 412.966 40.647C412.961 41.1381 412.948 41.3842 412.948 41.3842Z" fill="#E0E0E0"/>
<path d="M413.39 6.2896C413.39 6.38723 400.541 6.46592 384.695 6.46592C368.843 6.46592 355.997 6.38723 355.997 6.2896C355.997 6.19198 368.843 6.11328 384.695 6.11328C400.541 6.11328 413.39 6.19198 413.39 6.2896Z" fill="#E0E0E0"/>
<path d="M359.899 3.9643C360.323 3.9643 360.666 3.65924 360.666 3.28293C360.666 2.90662 360.323 2.60156 359.899 2.60156C359.476 2.60156 359.132 2.90662 359.132 3.28293C359.132 3.65924 359.476 3.9643 359.899 3.9643Z" fill="#E0E0E0"/>
<path d="M362.697 3.9643C363.12 3.9643 363.463 3.65924 363.463 3.28293C363.463 2.90662 363.12 2.60156 362.697 2.60156C362.273 2.60156 361.93 2.90662 361.93 3.28293C361.93 3.65924 362.273 3.9643 362.697 3.9643Z" fill="#E0E0E0"/>
<path d="M365.481 3.9643C365.905 3.9643 366.248 3.65924 366.248 3.28293C366.248 2.90662 365.905 2.60156 365.481 2.60156C365.058 2.60156 364.714 2.90662 364.714 3.28293C364.714 3.65924 365.058 3.9643 365.481 3.9643Z" fill="#E0E0E0"/>
<path d="M302.911 20.0508H171.301V67.5474H302.911V20.0508Z" fill="white"/>
<path d="M302.895 67.5452C302.895 67.5452 302.885 67.2533 302.879 66.6964C302.876 66.1336 302.87 65.3098 302.864 64.232C302.855 62.0653 302.842 58.8806 302.828 54.7804C302.809 46.5831 302.782 34.7249 302.749 20.0496L302.895 20.1791C269.416 20.193 222.811 20.2129 171.295 20.2339H171.287L171.495 20.0486C171.492 36.6803 171.49 52.7353 171.486 67.5442L171.287 67.3668C209.421 67.4007 242.296 67.4296 265.648 67.4505C277.333 67.4714 286.633 67.4884 293.021 67.4993C296.213 67.5093 298.674 67.5173 300.348 67.5222C301.176 67.5262 301.81 67.5302 302.244 67.5332C302.672 67.5372 302.895 67.5452 302.895 67.5452C302.895 67.5452 302.688 67.5521 302.268 67.5561C301.839 67.5581 301.214 67.5621 300.395 67.5671C298.731 67.5721 296.282 67.58 293.109 67.589C286.732 67.6009 277.447 67.6169 265.782 67.6378C242.396 67.6587 209.475 67.6876 171.286 67.7215H171.086V67.5442C171.084 52.7363 171.081 36.6813 171.077 20.0486V19.8633H171.286H171.294C222.811 19.8842 269.415 19.9041 302.894 19.9181H303.041V20.0486C303.007 34.7578 302.98 46.6419 302.962 54.8581C302.946 58.9464 302.934 62.1211 302.927 64.2808C302.919 65.3486 302.913 66.1645 302.91 66.7213C302.905 67.2702 302.895 67.5452 302.895 67.5452Z" fill="#E0E0E0"/>
<path d="M171.431 26.4568C171.431 26.3542 200.847 26.2715 237.128 26.2715C273.42 26.2715 302.833 26.3542 302.833 26.4568C302.833 26.5594 273.421 26.6421 237.128 26.6421C200.847 26.6421 171.431 26.5594 171.431 26.4568Z" fill="#E0E0E0"/>
<g opacity="0.3">
<g opacity="0.3">
<path opacity="0.3" d="M175.99 24.4396C176.518 24.4396 176.946 24.0596 176.946 23.5909C176.946 23.1222 176.518 22.7422 175.99 22.7422C175.463 22.7422 175.035 23.1222 175.035 23.5909C175.035 24.0596 175.463 24.4396 175.99 24.4396Z" fill="#EBEBEB"/>
</g>
</g>
<g opacity="0.3">
<g opacity="0.3">
<path opacity="0.3" d="M179.263 24.4396C179.791 24.4396 180.219 24.0596 180.219 23.5909C180.219 23.1222 179.791 22.7422 179.263 22.7422C178.736 22.7422 178.308 23.1222 178.308 23.5909C178.308 24.0596 178.736 24.4396 179.263 24.4396Z" fill="#EBEBEB"/>
</g>
</g>
<g opacity="0.3">
<g opacity="0.3">
<path opacity="0.3" d="M182.49 24.4396C183.018 24.4396 183.446 24.0596 183.446 23.5909C183.446 23.1222 183.018 22.7422 182.49 22.7422C181.963 22.7422 181.535 23.1222 181.535 23.5909C181.535 24.0596 181.963 24.4396 182.49 24.4396Z" fill="#EBEBEB"/>
</g>
</g>
<path d="M214.268 34.1777H182.479V62.4217H214.268V34.1777Z" fill="#E0E0E0"/>
<path d="M293.802 41.7439C293.802 41.8465 277.443 41.9292 257.269 41.9292C237.088 41.9292 220.734 41.8465 220.734 41.7439C220.734 41.6413 237.089 41.5586 257.269 41.5586C277.443 41.5586 293.802 41.6413 293.802 41.7439Z" fill="#E0E0E0"/>
<path d="M293.802 47.4958C293.802 47.5984 277.443 47.6811 257.269 47.6811C237.088 47.6811 220.734 47.5984 220.734 47.4958C220.734 47.3932 237.089 47.3105 257.269 47.3105C277.443 47.3105 293.802 47.3932 293.802 47.4958Z" fill="#E0E0E0"/>
<path d="M267.771 53.2507C267.771 53.2636 267.608 53.2756 267.294 53.2885C266.935 53.2975 266.481 53.3095 265.923 53.3234C264.677 53.3384 262.968 53.3583 260.883 53.3832C256.576 53.3971 250.721 53.4161 244.253 53.437C237.783 53.4161 231.928 53.3961 227.623 53.3832C225.536 53.3583 223.828 53.3384 222.582 53.3234C222.023 53.3095 221.57 53.2985 221.212 53.2885C220.899 53.2766 220.734 53.2636 220.734 53.2507C220.734 53.2377 220.898 53.2258 221.212 53.2138C221.57 53.2049 222.024 53.1929 222.582 53.179C223.827 53.164 225.535 53.1441 227.623 53.1202C231.928 53.1062 237.783 53.0873 244.253 53.0664C250.723 53.0873 256.576 53.1062 260.883 53.1202C262.968 53.1441 264.677 53.164 265.923 53.179C266.481 53.1929 266.934 53.2049 267.294 53.2138C267.608 53.2248 267.771 53.2377 267.771 53.2507Z" fill="#E0E0E0"/>
<path d="M508.811 410.588C508.811 410.732 396.931 410.847 258.951 410.847C120.923 410.847 9.06641 410.732 9.06641 410.588C9.06641 410.444 120.923 410.328 258.951 410.328C396.931 410.329 508.811 410.445 508.811 410.588Z" fill="#263238"/>
<path d="M466.533 102.102H309.421V215.822H466.533V102.102Z" fill="#E0E0E0"/>
<path d="M455.368 109.332H298.255V223.053H455.368V109.332Z" fill="#EBEBEB"/>
<path d="M444.168 117.248H282.864V234.002H444.168V117.248Z" fill="white"/>
<path d="M444.166 234.001C444.166 234.001 444.148 233.261 444.14 231.849C444.133 230.429 444.123 228.34 444.112 225.615C444.097 220.155 444.077 212.155 444.049 201.956C444.019 181.576 443.975 152.413 443.924 117.245L444.167 117.461C398.024 117.473 342.534 117.488 282.877 117.504H282.863L283.155 117.244C283.144 159.464 283.133 199.33 283.124 233.998L282.864 233.767C330.813 233.816 371.105 233.856 399.423 233.884C413.594 233.91 424.766 233.931 432.407 233.946C436.222 233.958 439.155 233.967 441.145 233.973C442.131 233.979 442.881 233.984 443.397 233.986C443.901 233.991 444.166 234.001 444.166 234.001C444.166 234.001 443.92 234.01 443.424 234.014C442.916 234.017 442.175 234.022 441.201 234.028C439.223 234.034 436.309 234.044 432.514 234.055C424.887 234.07 413.735 234.09 399.59 234.117C371.231 234.145 330.88 234.185 282.863 234.234H282.603V234.001C282.594 199.333 282.582 159.467 282.572 117.247V116.988H282.864H282.878C342.535 117.004 398.025 117.019 444.168 117.031H444.413V117.247C444.36 152.471 444.316 181.68 444.287 202.094C444.26 212.271 444.238 220.254 444.223 225.703C444.211 228.411 444.202 230.487 444.196 231.897C444.185 233.292 444.166 234.001 444.166 234.001Z" fill="#263238"/>
<path d="M444.168 126.96C444.168 127.104 408.185 127.22 363.808 127.22C319.416 127.22 283.44 127.104 283.44 126.96C283.44 126.817 319.416 126.701 363.808 126.701C408.187 126.701 444.168 126.817 444.168 126.96Z" fill="#263238"/>
<path d="M287.212 122.778C287.783 122.778 288.246 122.367 288.246 121.86C288.246 121.353 287.783 120.941 287.212 120.941C286.641 120.941 286.178 121.353 286.178 121.86C286.178 122.367 286.641 122.778 287.212 122.778Z" fill="#263238"/>
<path d="M291.188 122.778C291.759 122.778 292.222 122.367 292.222 121.86C292.222 121.353 291.759 120.941 291.188 120.941C290.617 120.941 290.154 121.353 290.154 121.86C290.154 122.367 290.617 122.778 291.188 122.778Z" fill="#263238"/>
<path d="M295.16 122.778C295.731 122.778 296.193 122.367 296.193 121.86C296.193 121.353 295.731 120.941 295.16 120.941C294.589 120.941 294.126 121.353 294.126 121.86C294.126 122.367 294.589 122.778 295.16 122.778Z" fill="#263238"/>
<path d="M293.642 234.965C293.48 234.965 293.349 210.729 293.349 180.838C293.349 150.937 293.48 126.705 293.642 126.705C293.803 126.705 293.934 150.937 293.934 180.838C293.934 210.729 293.803 234.965 293.642 234.965Z" fill="#E0E0E0"/>
<path d="M134.994 21.7812H68.561V63.8558H134.994V21.7812Z" fill="#691B77"/>
<path d="M135.506 28.0256C135.506 28.1691 120.51 28.2846 102.015 28.2846C83.5146 28.2846 68.522 28.1681 68.522 28.0256C68.522 27.8822 83.5146 27.7656 102.015 27.7656C120.51 27.7656 135.506 27.8822 135.506 28.0256Z" fill="white"/>
<path d="M73.0974 25.6505C73.5915 25.6505 73.9921 25.3379 73.9921 24.9522C73.9921 24.5665 73.5915 24.2539 73.0974 24.2539C72.6032 24.2539 72.2026 24.5665 72.2026 24.9522C72.2026 25.3379 72.6032 25.6505 73.0974 25.6505Z" fill="white"/>
<path d="M76.3434 25.6505C76.8376 25.6505 77.2382 25.3379 77.2382 24.9522C77.2382 24.5665 76.8376 24.2539 76.3434 24.2539C75.8493 24.2539 75.4487 24.5665 75.4487 24.9522C75.4487 25.3379 75.8493 25.6505 76.3434 25.6505Z" fill="white"/>
<path d="M79.6135 25.6505C80.1076 25.6505 80.5082 25.3379 80.5082 24.9522C80.5082 24.5665 80.1076 24.2539 79.6135 24.2539C79.1193 24.2539 78.7188 24.5665 78.7188 24.9522C78.7188 25.3379 79.1193 25.6505 79.6135 25.6505Z" fill="white"/>
<path d="M489.851 182.686H429.795V220.722H489.851V182.686Z" fill="#175081"/>
<path d="M490.332 188.331C490.332 188.424 476.776 188.499 460.056 188.499C443.331 188.499 429.778 188.423 429.778 188.331C429.778 188.239 443.331 188.164 460.056 188.164C476.776 188.164 490.332 188.239 490.332 188.331Z" fill="white"/>
<path d="M433.874 186.189C434.321 186.189 434.683 185.907 434.683 185.558C434.683 185.21 434.321 184.928 433.874 184.928C433.428 184.928 433.066 185.21 433.066 185.558C433.066 185.907 433.428 186.189 433.874 186.189Z" fill="white"/>
<path d="M436.826 186.187C437.272 186.187 437.634 185.905 437.634 185.556C437.634 185.208 437.272 184.926 436.826 184.926C436.379 184.926 436.018 185.208 436.018 185.556C436.018 185.905 436.379 186.187 436.826 186.187Z" fill="white"/>
<path d="M439.779 186.189C440.225 186.189 440.587 185.907 440.587 185.558C440.587 185.21 440.225 184.928 439.779 184.928C439.332 184.928 438.97 185.21 438.97 185.558C438.97 185.907 439.332 186.189 439.779 186.189Z" fill="white"/>
<path d="M80.9537 182.137H36.6821V210.175H80.9537V182.137Z" fill="#175081"/>
<path d="M58.9709 186.421C71.2971 186.421 81.2894 186.365 81.2894 186.296C81.2894 186.228 71.2971 186.172 58.9709 186.172C46.6447 186.172 36.6523 186.228 36.6523 186.296C36.6523 186.365 46.6447 186.421 58.9709 186.421Z" fill="white"/>
<path d="M39.6966 184.714C40.026 184.714 40.2931 184.505 40.2931 184.248C40.2931 183.991 40.026 183.783 39.6966 183.783C39.3671 183.783 39.1001 183.991 39.1001 184.248C39.1001 184.505 39.3671 184.714 39.6966 184.714Z" fill="white"/>
<path d="M41.8673 184.714C42.1961 184.714 42.4627 184.505 42.4627 184.248C42.4627 183.991 42.1961 183.783 41.8673 183.783C41.5385 183.783 41.272 183.991 41.272 184.248C41.272 184.505 41.5385 184.714 41.8673 184.714Z" fill="white"/>
<path d="M44.0451 184.714C44.3739 184.714 44.6404 184.505 44.6404 184.248C44.6404 183.991 44.3739 183.783 44.0451 183.783C43.7163 183.783 43.4497 183.991 43.4497 184.248C43.4497 184.505 43.7163 184.714 44.0451 184.714Z" fill="white"/>
<path d="M357.823 93.246C357.823 93.246 357.806 92.9741 357.798 92.4651C357.792 91.9391 357.784 91.191 357.773 90.2227C357.759 88.2453 357.74 85.3705 357.714 81.6956C357.686 74.3291 357.643 63.7589 357.593 50.8537L357.824 51.0599C337.601 51.0749 311.875 51.0928 283.952 51.1137H283.945L284.237 50.8547C284.228 65.9096 284.221 80.2433 284.214 93.247L283.946 93.008C305.62 93.0558 324.052 93.0966 337.09 93.1255C343.605 93.1534 348.77 93.1753 352.332 93.1903C354.091 93.2022 355.454 93.2122 356.4 93.2191C356.85 93.2251 357.197 93.2301 357.455 93.2331C357.694 93.2361 357.817 93.2411 357.823 93.246C357.828 93.251 357.714 93.256 357.486 93.26C357.235 93.263 356.898 93.268 356.462 93.2739C355.528 93.2809 354.183 93.2909 352.448 93.3028C348.899 93.3178 343.755 93.3397 337.266 93.3666C324.185 93.3955 305.692 93.4363 283.945 93.4841H283.677V93.245C283.669 80.2423 283.661 65.9076 283.653 50.8527V50.5938H283.946H283.952C311.874 50.6147 337.601 50.6326 357.824 50.6475H358.056L358.055 50.8527C358.004 63.8107 357.963 74.4257 357.934 81.8222C357.909 85.477 357.889 88.336 357.874 90.3034C357.863 91.2547 357.854 91.9899 357.85 92.5069C357.84 93.002 357.823 93.246 357.823 93.246Z" fill="#E8505B"/>
<path d="M357.808 57.1399C357.808 57.2833 341.261 57.3999 320.857 57.3999C300.443 57.3999 283.901 57.2833 283.901 57.1399C283.901 56.9964 300.443 56.8809 320.857 56.8809C341.261 56.8809 357.808 56.9964 357.808 57.1399Z" fill="#E8505B"/>
<path d="M288.503 54.7503C289.001 54.7503 289.404 54.4354 289.404 54.047C289.404 53.6586 289.001 53.3438 288.503 53.3438C288.005 53.3438 287.602 53.6586 287.602 54.047C287.602 54.4354 288.005 54.7503 288.503 54.7503Z" fill="#E8505B"/>
<path d="M291.788 54.7503C292.286 54.7503 292.69 54.4354 292.69 54.047C292.69 53.6586 292.286 53.3438 291.788 53.3438C291.29 53.3438 290.887 53.6586 290.887 54.047C290.887 54.4354 291.29 54.7503 291.788 54.7503Z" fill="#E8505B"/>
<path d="M295.065 54.7503C295.563 54.7503 295.966 54.4354 295.966 54.047C295.966 53.6586 295.563 53.3438 295.065 53.3438C294.567 53.3438 294.164 53.6586 294.164 54.047C294.164 54.4354 294.567 54.7503 295.065 54.7503Z" fill="#E8505B"/>
<path d="M159.486 238.113L185.51 325.957C186.666 329.858 190.249 332.534 194.317 332.534L299.905 332.825C305.51 332.841 309.977 328.144 309.681 322.547C309.406 317.364 305.123 313.303 299.932 313.303H259.553L227.218 223.205H170.62C162.858 223.203 157.281 230.67 159.486 238.113Z" fill="#455A64"/>
<path d="M224.783 320.888C238.063 320.888 248.828 320.721 248.828 320.515C248.828 320.309 238.063 320.143 224.783 320.143C211.504 320.143 200.739 320.309 200.739 320.515C200.739 320.721 211.504 320.888 224.783 320.888Z" fill="#263238"/>
<path d="M167.261 225.996C167.456 225.931 174.646 246.964 183.318 272.968C191.992 298.98 198.865 320.114 198.671 320.18C198.476 320.244 191.287 299.217 182.613 273.204C173.94 247.199 167.066 226.061 167.261 225.996Z" fill="#263238"/>
<path d="M244.436 410.587L238.001 410.435V332.535H244.436V410.587Z" fill="#455A64"/>
<path d="M211.267 410.231H271.168L244.032 400.801H237.598L211.267 410.231Z" fill="#455A64"/>
<path d="M196.12 203.065L206.031 252.582L204.262 289.691L270.883 278.61L268.269 246.115L268.219 219.226L284.555 250.884L297.274 226.316L273.985 184.131L273.983 184.136C269.718 179.709 264.723 176.434 258.747 174.272C255.844 173.222 252.763 172.594 249.199 172.443C241.512 174.819 233.824 174.824 226.136 172.457C225.2 172.575 223.9 172.697 222.263 172.892C222.163 172.904 222.063 172.916 221.963 172.927C207.826 174.649 197.035 186.405 196.254 200.627L196.12 203.065Z" fill="#3CAB40"/>
<path d="M222.263 172.889C222.263 172.889 194.889 173.096 191.498 202.007L191.038 223.206L214.614 223.002L222.263 172.889Z" fill="#3CAB40"/>
<path d="M287.668 210.082C287.668 210.289 266.127 210.455 239.562 210.455C212.988 210.455 191.453 210.289 191.453 210.082C191.453 209.877 212.989 209.711 239.562 209.711C266.127 209.711 287.668 209.877 287.668 210.082Z" fill="#FAFAFA"/>
<path d="M287.668 214.666C287.668 214.871 266.127 215.037 239.562 215.037C212.988 215.037 191.453 214.871 191.453 214.666C191.453 214.459 212.989 214.293 239.562 214.293C266.127 214.294 287.668 214.46 287.668 214.666Z" fill="#FAFAFA"/>
<path d="M286.126 206.281C286.126 206.486 264.93 206.652 238.791 206.652C212.642 206.652 191.453 206.486 191.453 206.281C191.453 206.076 212.643 205.908 238.791 205.908C264.929 205.908 286.126 206.076 286.126 206.281Z" fill="#FAFAFA"/>
<path d="M267.864 250.881C267.657 250.877 267.749 239.16 268.067 224.714C268.385 210.262 268.809 198.556 269.014 198.561C269.219 198.565 269.128 210.279 268.811 224.73C268.493 239.177 268.069 250.886 267.864 250.881Z" fill="#263238"/>
<path d="M258.507 231.877C258.507 231.877 271.456 232.803 273.787 236.226C276.119 239.649 279.67 249.411 278.325 249.483C276.98 249.555 276 248.749 276 248.749L272.45 242.46C272.45 242.46 273.021 248.537 270.899 248.657C268.777 248.778 258.263 250.881 258.263 250.881L258.507 231.877Z" fill="#FFBE9D"/>
<path d="M191.047 217.563L190.999 250.944C191.42 258.746 198.729 264.315 206.363 262.649L258.57 251.894L258.459 230.487L213.413 239.132L212.813 216.475L191.047 217.563Z" fill="#3CAB40"/>
<path d="M220.835 259.977C220.831 259.958 221.066 259.895 221.523 259.786C222.034 259.671 222.705 259.519 223.548 259.33C225.384 258.941 227.969 258.394 231.221 257.706C237.884 256.344 247.263 254.427 258.396 252.152L258.129 252.476C258.117 245.756 258.105 238.331 258.092 230.489L258.53 230.851C255.59 231.417 252.496 232.011 249.353 232.615C236.157 235.126 223.835 237.472 213.475 239.444L213.086 239.517L213.1 239.127C213.441 229.191 213.724 220.916 213.926 215.055C214.045 212.205 214.139 209.945 214.207 208.332C214.247 207.6 214.28 207.016 214.305 206.565C214.333 206.165 214.355 205.96 214.372 205.961C214.389 205.961 214.399 206.169 214.404 206.571C214.403 207.023 214.402 207.609 214.4 208.343C214.375 209.957 214.338 212.219 214.293 215.071C214.157 220.93 213.965 229.204 213.733 239.138L213.358 238.822C223.712 236.819 236.026 234.436 249.213 231.884C252.358 231.282 255.452 230.689 258.393 230.126L258.831 230.042V230.487C258.818 238.329 258.806 245.754 258.794 252.474V252.748L258.527 252.8C247.375 254.968 237.977 256.794 231.301 258.092C228.034 258.702 225.437 259.188 223.591 259.533C222.74 259.68 222.063 259.799 221.547 259.888C221.08 259.964 220.838 259.995 220.835 259.977Z" fill="#263238"/>
<path d="M250.779 172.889C250.803 172.881 250.877 173.049 250.993 173.378C251.124 173.705 251.258 174.202 251.398 174.854C251.659 176.15 251.803 178.145 251.154 180.472C250.527 182.792 249.006 185.359 246.622 187.464C244.279 189.62 240.819 191.088 237.12 191.054C233.424 191.088 229.928 189.58 227.725 187.238C225.494 184.903 224.512 182.046 224.231 179.68C223.972 177.281 224.398 175.331 224.888 174.095C225.137 173.474 225.362 173.01 225.558 172.717C225.739 172.418 225.843 172.267 225.865 172.28C225.941 172.32 225.549 172.945 225.162 174.19C224.768 175.423 224.439 177.317 224.753 179.614C225.087 181.879 226.085 184.586 228.218 186.761C230.315 188.937 233.608 190.341 237.122 190.31C240.64 190.34 243.913 188.977 246.17 186.951C248.488 184.952 249.985 182.53 250.651 180.324C251.337 178.113 251.282 176.184 251.113 174.901C250.939 173.606 250.704 172.911 250.779 172.889Z" fill="#263238"/>
<path d="M253.306 253.663C253.199 253.653 253.239 252.395 253.317 250.368C253.394 248.341 253.491 245.545 253.511 242.456C253.528 239.365 253.464 236.568 253.409 234.54C253.356 232.513 253.331 231.255 253.437 231.246C253.536 231.237 253.746 232.48 253.934 234.509C254.122 236.537 254.271 239.35 254.254 242.46C254.234 245.568 254.053 248.379 253.84 250.405C253.629 252.431 253.403 253.674 253.306 253.663Z" fill="#FAFAFA"/>
<path d="M250.603 254.209C250.499 254.204 250.487 252.953 250.509 250.94C250.534 248.638 250.563 245.994 250.593 243.074C250.591 240.154 250.588 237.509 250.586 235.209C250.584 233.195 250.607 231.945 250.712 231.939C250.813 231.934 250.975 233.176 251.111 235.191C251.249 237.206 251.351 239.996 251.338 243.079C251.322 246.162 251.192 248.951 251.035 250.963C250.878 252.977 250.703 254.216 250.603 254.209Z" fill="#FAFAFA"/>
<path d="M302.886 386.84L312.752 414.012L326.754 433.253C327.763 434.64 327.387 436.592 325.935 437.504C325.122 438.015 324.121 438.104 323.233 437.735C317.587 435.392 296.86 426.672 296.251 424.642C295.543 422.293 282.163 393.07 282.163 393.07L302.886 386.84Z" fill="#175081"/>
<g opacity="0.6">
<g opacity="0.6">
<path opacity="0.6" d="M325.929 437.505L295.537 422.826L295.981 423.968C296.365 424.954 297.082 425.775 298.014 426.278C300.507 427.623 307.473 431.184 323.146 437.769C324.057 438.151 325.106 438.053 325.929 437.505Z" fill="white"/>
</g>
</g>
<g opacity="0.6">
<g opacity="0.6">
<g opacity="0.6">
<path opacity="0.6" d="M297.692 411.979C298.549 412.183 299.167 413.119 298.999 413.982C298.83 414.847 297.885 415.484 297.026 415.294C296.166 415.106 295.388 414.005 295.653 413.166C295.918 412.326 297.069 411.638 297.859 412.028" fill="white"/>
</g>
</g>
</g>
<path d="M315.195 428.13C315.376 428.145 315.434 426.497 316.741 425.116C318.007 423.694 319.643 423.495 319.612 423.315C319.61 423.24 319.187 423.163 318.522 423.32C317.861 423.47 316.984 423.913 316.273 424.686C315.564 425.46 315.199 426.372 315.105 427.043C315.006 427.72 315.119 428.134 315.195 428.13Z" fill="#263238"/>
<path d="M318.517 430.991C318.691 431.057 319.214 429.846 320.452 428.904C321.669 427.934 322.972 427.724 322.951 427.541C322.974 427.373 321.456 427.306 320.063 428.403C318.658 429.483 318.348 430.973 318.517 430.991Z" fill="#263238"/>
<path d="M309.828 424.895C310.005 424.974 310.8 423.105 312.597 421.472C314.369 419.811 316.295 419.168 316.23 418.985C316.218 418.825 314.071 419.229 312.166 421.005C310.244 422.762 309.668 424.87 309.828 424.895Z" fill="#263238"/>
<path d="M306.131 416.888C306.267 417.021 307.513 415.82 309.422 414.996C311.32 414.146 313.048 414.041 313.041 413.852C313.063 413.69 311.209 413.507 309.167 414.415C307.118 415.305 305.998 416.795 306.131 416.888Z" fill="#263238"/>
<path d="M303.034 408.983C303.179 409.107 304.325 407.627 306.407 406.924C308.473 406.175 310.292 406.617 310.329 406.431C310.351 406.358 309.926 406.134 309.165 406.017C308.409 405.897 307.316 405.936 306.198 406.326C305.082 406.719 304.203 407.37 303.687 407.934C303.165 408.5 302.972 408.94 303.034 408.983Z" fill="#263238"/>
<path d="M305.772 405.437C305.806 405.424 305.726 405.039 305.412 404.404C305.1 403.775 304.536 402.888 303.565 402.05C303.078 401.663 302.525 401.138 301.634 401.075C301.191 401.042 300.66 401.328 300.48 401.808C300.298 402.279 300.371 402.759 300.527 403.191C301.222 404.89 303.332 405.973 305.353 405.47C307.366 404.93 308.687 403.146 308.876 401.373C308.895 400.926 308.828 400.411 308.441 400.038C308.057 399.658 307.439 399.688 307.078 399.904C306.325 400.336 305.999 400.993 305.662 401.517C305.025 402.625 304.756 403.634 304.639 404.325C304.523 405.023 304.551 405.415 304.588 405.418C304.709 405.452 304.753 403.829 306.046 401.75C306.385 401.257 306.76 400.652 307.314 400.375C307.584 400.237 307.87 400.255 308.057 400.441C308.244 400.62 308.32 400.979 308.291 401.336C308.115 402.795 306.904 404.423 305.195 404.852C303.499 405.294 301.644 404.338 301.072 402.977C300.939 402.647 300.898 402.279 300.998 402.013C301.098 401.751 301.342 401.595 301.63 401.599C302.236 401.606 302.808 402.035 303.279 402.395C305.183 403.934 305.663 405.511 305.772 405.437Z" fill="#263238"/>
<path d="M344.542 379.734L343.69 401.816C343.69 401.816 365.85 410.1 366.089 414.197L323.212 414.081L323.129 379.617L344.542 379.734Z" fill="#175081"/>
<g opacity="0.6">
<g opacity="0.6">
<path opacity="0.6" d="M330.437 399.922C329.608 400.147 329.032 401.079 329.221 401.918C329.411 402.757 330.354 403.35 331.189 403.141C332.023 402.932 332.749 401.834 332.466 401.022C332.183 400.21 331.037 399.573 330.279 399.976" fill="white"/>
</g>
</g>
<g opacity="0.6">
<path opacity="0.6" d="M323.21 414.079L323.202 410.643L364.4 412.016C364.4 412.016 366.306 412.852 366.086 414.196L323.21 414.079Z" fill="white"/>
</g>
<path d="M344.385 401.598C344.378 401.807 343.33 401.9 342.298 402.57C341.248 403.214 340.715 404.119 340.523 404.036C340.331 403.995 340.647 402.744 341.911 401.954C343.166 401.153 344.432 401.406 344.385 401.598Z" fill="#263238"/>
<path d="M348.875 403.472C348.923 403.675 348.015 404.03 347.301 404.912C346.562 405.775 346.379 406.731 346.171 406.722C345.974 406.754 345.833 405.528 346.741 404.446C347.639 403.357 348.871 403.273 348.875 403.472Z" fill="#263238"/>
<path d="M351.414 408.861C351.223 408.904 350.936 407.857 351.475 406.713C352.008 405.563 352.997 405.114 353.085 405.288C353.203 405.461 352.566 406.074 352.136 407.021C351.685 407.957 351.622 408.84 351.414 408.861Z" fill="#263238"/>
<path d="M344.019 396.546C343.93 396.736 342.971 396.446 341.788 396.523C340.603 396.576 339.681 396.971 339.571 396.792C339.451 396.641 340.352 395.867 341.748 395.796C343.142 395.713 344.123 396.383 344.019 396.546Z" fill="#263238"/>
<g opacity="0.3">
<path opacity="0.3" d="M344.369 384.104L344.222 388.04L323.15 387.791L323.132 384.244L344.369 384.104Z" fill="black"/>
</g>
<path d="M344.107 392.085C344.109 392.171 343.281 392.299 341.959 392.068C341.302 391.952 340.527 391.735 339.715 391.371C339.31 391.189 338.894 390.972 338.484 390.714C338.287 390.586 338.052 390.458 337.837 390.207C337.606 389.988 337.476 389.433 337.744 389.093C337.965 388.765 338.352 388.623 338.663 388.616C338.978 388.607 339.234 388.672 339.468 388.73C339.945 388.846 340.392 389.007 340.802 389.192C341.62 389.566 342.284 390.04 342.778 390.497C343.77 391.421 344.108 392.204 344.036 392.244C343.942 392.313 343.46 391.656 342.448 390.893C341.944 390.514 341.302 390.121 340.536 389.809C340.153 389.656 339.74 389.524 339.305 389.425C338.851 389.305 338.465 389.3 338.347 389.503C338.305 389.579 338.299 389.609 338.394 389.743C338.493 389.865 338.675 389.986 338.87 390.112C339.249 390.361 339.63 390.578 340.004 390.764C340.75 391.137 341.465 391.392 342.077 391.566C343.303 391.911 344.111 391.972 344.107 392.085Z" fill="#263238"/>
<path d="M343.839 392.385C343.764 392.417 343.351 391.666 343.278 390.309C343.244 389.637 343.316 388.822 343.578 387.959C343.711 387.529 343.891 387.09 344.129 386.658C344.381 386.234 344.69 385.668 345.502 385.577C345.926 385.562 346.277 385.893 346.396 386.178C346.538 386.469 346.565 386.718 346.614 386.966C346.692 387.467 346.681 387.958 346.612 388.413C346.475 389.325 346.099 390.083 345.689 390.628C344.848 391.737 343.974 391.985 343.957 391.914C343.887 391.81 344.618 391.406 345.263 390.341C345.579 389.815 345.863 389.122 345.948 388.325C345.991 387.929 345.986 387.507 345.911 387.085C345.846 386.629 345.676 386.261 345.506 386.307C345.293 386.303 344.929 386.646 344.753 387.008C344.53 387.393 344.355 387.784 344.217 388.171C343.947 388.945 343.827 389.686 343.795 390.312C343.732 391.57 343.953 392.354 343.839 392.385Z" fill="#263238"/>
<path d="M323.174 273.868C297.846 276.489 264.264 279.93 264.264 279.93L268.845 321.159C268.845 321.159 318.179 308.121 317.828 309.179C317.476 310.236 320.113 396.904 320.113 396.904H349.823L350.382 298.754C350.585 283.987 337.864 272.349 323.174 273.868Z" fill="#263238"/>
<path d="M203.653 290.5V303.286C203.653 311.989 213.566 321.219 222.269 321.219H228.999C234.303 321.219 242.611 317.358 246.892 314.229L249.465 312.348L280.4 408.187C280.4 408.187 315.799 401.842 315.799 400.725C315.799 399.608 291.827 322.228 280.761 286.313C276.242 271.648 260.532 263.122 246.018 268.1C245.523 268.27 245.028 268.453 244.532 268.652C228.673 274.994 203.653 290.5 203.653 290.5Z" fill="#263238"/>
<path d="M315.802 400.725C315.79 400.73 315.737 400.615 315.645 400.385C315.542 400.114 315.413 399.776 315.254 399.36C314.916 398.456 314.429 397.118 313.85 395.381C312.662 391.915 311.038 386.871 309.06 380.627C305.112 368.139 299.824 350.839 294.062 331.708C291.198 322.136 288.47 313.019 285.986 304.718C284.754 300.571 283.581 296.629 282.483 292.936C281.934 291.092 281.403 289.311 280.892 287.598C280.382 285.883 279.909 284.243 279.282 282.75C278.071 279.736 276.164 277.432 274.284 275.673C272.383 273.925 270.569 272.608 269.049 271.597C267.534 270.578 266.327 269.829 265.502 269.331C265.124 269.095 264.818 268.903 264.571 268.75C264.363 268.614 264.26 268.541 264.266 268.529C264.273 268.518 264.388 268.571 264.609 268.683C264.865 268.82 265.183 268.99 265.577 269.2C266.428 269.657 267.661 270.369 269.208 271.355C270.759 272.333 272.61 273.624 274.566 275.367C276.498 277.118 278.493 279.467 279.766 282.546C280.423 284.067 280.918 285.725 281.442 287.43C281.965 289.14 282.509 290.917 283.073 292.757C284.192 296.445 285.386 300.381 286.642 304.522C289.144 312.817 291.891 321.928 294.775 331.493C300.542 350.594 305.763 367.886 309.563 380.471C311.476 386.684 313.03 391.733 314.125 395.29C314.663 396.993 315.088 398.337 315.395 399.31C315.526 399.736 315.631 400.081 315.715 400.36C315.785 400.597 315.814 400.721 315.802 400.725Z" fill="#455A64"/>
<path d="M323.265 296.815C323.449 296.942 321.765 299.472 320.354 302.905C318.92 306.33 318.318 309.308 318.099 309.269C317.912 309.251 318.195 306.142 319.667 302.62C321.119 299.092 323.121 296.694 323.265 296.815Z" fill="#455A64"/>
<path d="M328.934 300.797C329.022 301.004 326.465 302.123 323.807 304.231C321.13 306.315 319.438 308.534 319.258 308.4C319.095 308.309 320.569 305.813 323.348 303.647C326.11 301.46 328.884 300.618 328.934 300.797Z" fill="#455A64"/>
<path d="M280.734 408.189C280.539 408.252 272.181 382.604 262.069 350.911C251.954 319.208 243.915 293.465 244.111 293.402C244.307 293.34 252.662 318.983 262.778 350.686C272.889 382.378 280.929 408.127 280.734 408.189Z" fill="#455A64"/>
<path d="M242.757 258.679L344.019 259.653L362.901 206.281L289.247 206.779L272.153 254.774L242.757 255.214V258.679Z" fill="#455A64"/>
<path d="M320.106 237.605C322.371 237.605 324.207 235.769 324.207 233.504C324.207 231.239 322.371 229.402 320.106 229.402C317.841 229.402 316.005 231.239 316.005 233.504C316.005 235.769 317.841 237.605 320.106 237.605Z" fill="white"/>
<path d="M234.5 114.211C235.455 110.66 238.128 108.911 241.608 107.725C245.089 106.538 249.142 107.196 252.068 109.423C254.025 110.913 255.557 113.078 257.88 113.885C261.706 115.215 266.189 112.35 269.857 114.067C272.028 115.084 273.29 117.733 272.712 120.059C272.133 122.385 269.778 124.135 267.384 124.017C269.88 124.928 270.656 128.489 269.197 130.712C267.738 132.933 264.743 133.773 262.13 133.285C259.517 132.797 257.24 131.212 255.263 129.436C253.285 127.66 251.514 125.649 249.402 124.036C247.29 122.422 244.728 121.201 242.074 121.344C238.481 121.538 235.397 124.247 233.796 127.469C232.196 130.691 231.825 134.372 231.625 137.965C231.425 141.558 231.361 145.21 230.297 148.648C230.172 149.051 229.982 149.502 229.578 149.627C228.995 149.806 228.499 149.186 228.209 148.65C224.939 142.584 222.876 135.871 222.175 129.016C221.769 125.035 221.874 121.264 224.063 117.914C226.255 114.563 231.786 112.096 234.5 114.211Z" fill="#263238"/>
<path d="M227.529 130.868L225.691 171.173C225.379 178.028 226.32 188.16 237.18 188.16C246.601 187.45 249.387 178.645 249.671 172.248C249.807 169.214 249.926 166.684 249.96 166.373C249.96 166.373 260.265 165.876 261.469 155.754C262.051 150.863 262.429 140.69 262.664 131.485C262.917 121.597 255.523 113.177 245.688 112.13L244.71 112.027C234.099 111.52 227.741 120.248 227.529 130.868Z" fill="#FFBE9D"/>
<path d="M250.007 166.237C250.007 166.237 243.547 166.076 237.194 161.076C237.194 161.076 239.541 168.703 249.751 168.866L250.007 166.237Z" fill="#EB996E"/>
<path d="M258.984 137.973C258.931 138.74 258.236 139.327 257.433 139.285C256.632 139.243 256.026 138.589 256.081 137.821C256.134 137.054 256.829 136.466 257.63 136.508C258.433 136.55 259.038 137.206 258.984 137.973Z" fill="#263238"/>
<path d="M259.983 136.245C259.782 136.414 258.773 135.487 257.214 135.326C255.66 135.141 254.433 135.822 254.285 135.612C254.21 135.519 254.429 135.197 254.966 134.888C255.494 134.579 256.368 134.317 257.337 134.425C258.306 134.534 259.084 134.978 259.515 135.393C259.954 135.812 260.08 136.17 259.983 136.245Z" fill="#263238"/>
<path d="M243.655 136.88C243.601 137.647 242.907 138.233 242.104 138.19C241.303 138.149 240.697 137.494 240.751 136.727C240.806 135.96 241.501 135.372 242.301 135.414C243.102 135.456 243.709 136.113 243.655 136.88Z" fill="#263238"/>
<path d="M244.608 134.898C244.408 135.068 243.397 134.139 241.84 133.978C240.286 133.794 239.058 134.474 238.909 134.265C238.836 134.171 239.053 133.85 239.592 133.541C240.12 133.232 240.992 132.97 241.963 133.077C242.932 133.186 243.71 133.63 244.141 134.046C244.578 134.465 244.705 134.824 244.608 134.898Z" fill="#263238"/>
<path d="M249.072 147.055C249.074 146.965 250.06 146.902 251.65 146.868C252.053 146.869 252.437 146.83 252.533 146.566C252.657 146.288 252.537 145.842 252.392 145.359C252.122 144.356 251.837 143.305 251.539 142.205C250.364 137.719 249.559 134.048 249.741 134.002C249.922 133.957 251.021 137.555 252.194 142.04C252.474 143.145 252.743 144.199 252.997 145.207C253.1 145.675 253.304 146.215 253.038 146.79C252.899 147.076 252.584 147.261 252.322 147.302C252.059 147.353 251.835 147.333 251.636 147.324C250.05 147.241 249.069 147.144 249.072 147.055Z" fill="#263238"/>
<path d="M244.372 147.644C244.627 147.655 244.45 149.346 245.77 150.701C247.086 152.058 248.908 152.06 248.897 152.299C248.909 152.407 248.46 152.584 247.697 152.524C246.949 152.47 245.885 152.114 245.077 151.286C244.272 150.457 243.997 149.435 244.014 148.734C244.024 148.02 244.257 147.621 244.372 147.644Z" fill="#263238"/>
<path d="M245.685 128.839C245.486 129.246 243.953 128.879 242.102 128.905C240.251 128.894 238.72 129.272 238.518 128.866C238.429 128.673 238.728 128.303 239.367 127.956C240.002 127.609 240.985 127.32 242.095 127.314C243.205 127.311 244.191 127.592 244.827 127.934C245.47 128.276 245.773 128.644 245.685 128.839Z" fill="#263238"/>
<path d="M259.882 131.669C259.571 131.994 258.537 131.513 257.249 131.357C255.966 131.157 254.841 131.341 254.629 130.944C254.537 130.752 254.747 130.417 255.26 130.133C255.766 129.849 256.582 129.661 257.466 129.781C258.349 129.904 259.084 130.306 259.494 130.716C259.91 131.129 260.021 131.51 259.882 131.669Z" fill="#263238"/>
<path d="M227.58 138.475C227.415 138.382 220.835 135.674 220.319 142.627C219.803 149.579 226.89 148.663 226.917 148.464C226.944 148.265 227.58 138.475 227.58 138.475Z" fill="#FFBE9D"/>
<path d="M224.988 145.674C224.959 145.649 224.861 145.75 224.649 145.829C224.443 145.905 224.095 145.943 223.743 145.781C223.029 145.456 222.497 144.245 222.555 142.988C222.584 142.354 222.763 141.762 223.024 141.28C223.274 140.787 223.628 140.456 224.004 140.417C224.377 140.36 224.624 140.601 224.694 140.803C224.773 141.004 224.718 141.14 224.754 141.155C224.773 141.173 224.912 141.049 224.878 140.758C224.859 140.618 224.79 140.447 224.636 140.302C224.479 140.153 224.24 140.067 223.98 140.075C223.441 140.072 222.922 140.529 222.634 141.059C222.317 141.588 222.103 142.253 222.07 142.966C222.011 144.37 222.631 145.734 223.614 146.099C224.094 146.264 224.513 146.146 224.736 145.998C224.963 145.84 225.011 145.688 224.988 145.674Z" fill="#EB996E"/>
<path d="M265.055 129.624C260.464 130.337 255.569 128.674 252.363 125.311C250.121 122.958 248.538 119.75 245.55 118.47C243.538 117.608 241.18 117.812 239.163 118.661C237.147 119.511 235.432 120.953 233.924 122.54C235.335 127.9 233.406 133.509 231.505 138.713C231.294 139.289 231.05 139.906 230.528 140.226C229.642 140.769 228.467 140.146 227.832 139.322C226.816 138.004 226.552 136.265 226.433 134.605C226.163 130.821 226.478 126.964 227.696 123.373C228.915 119.781 231.068 116.462 234.072 114.146C237.825 111.252 242.78 110.07 247.485 110.645C252.19 111.219 256.621 113.48 260.08 116.721C261.685 118.224 263.123 119.988 263.814 122.075" fill="#263238"/>
<path d="M44.0193 343.834C48.0164 342.002 52.7232 341.764 57.1597 342.415C59.5434 342.766 62.0291 343.398 63.6515 344.99C65.2738 346.581 65.581 349.38 63.7187 350.748C62.6099 351.561 61.0637 351.684 59.6264 351.67C56.1518 351.634 52.2982 351.091 49.5233 352.947C47.9401 354.006 46.8862 355.768 44.9925 356.288C43.1403 356.799 41.0504 355.827 40.0682 354.343C39.086 352.858 39.0535 351.002 39.511 349.327C39.511 349.327 39.9942 345.679 44.0193 343.834Z" fill="#006900"/>
<path d="M34.8609 328.129C37.3051 331.23 42.0556 330.204 44.2576 328.311C46.4597 326.419 47.3903 323.675 48.2379 321.058C50.1742 315.081 52.1262 308.809 50.6866 302.722C50.256 300.902 49.4903 299.087 48.0506 297.737C46.611 296.386 44.3978 295.583 42.374 296.057C39.9791 296.619 38.4902 298.704 37.415 300.686C34.2521 306.515 32.5781 312.975 32.5534 319.445C32.5422 322.466 32.9425 325.635 34.8609 328.129Z" fill="#006900"/>
<path d="M28.1489 332.581C30.8028 329.782 31.3062 325.701 30.1256 322.196C28.945 318.689 26.2765 315.708 23.2022 313.273C19.5975 310.419 15.3605 308.197 10.8051 306.774C9.01232 306.215 7.12198 305.773 5.2294 305.934C3.33794 306.093 1.43303 306.953 0.550648 308.448C-0.754425 310.659 0.496831 313.34 1.85012 315.528C4.23378 319.382 6.95941 323.069 9.99225 326.544C12.4331 329.34 15.2282 332.097 18.9472 333.361C22.6663 334.625 26.531 334.475 28.5021 332.183" fill="#006900"/>
<path d="M34.6971 374.916C34.7431 374.919 34.8171 374.416 34.918 373.507C35.0301 372.481 35.1714 371.193 35.3395 369.661C35.5414 368.043 35.8071 366.117 36.3127 364.02C36.8173 361.928 37.6066 359.661 38.6213 357.362C39.6718 355.076 40.9511 352.999 42.4479 351.337C43.9335 349.667 45.6613 348.46 47.2859 347.764C48.9049 347.053 50.3569 346.765 51.3603 346.636C52.3728 346.543 52.939 346.473 52.9401 346.433C52.9401 346.393 52.3728 346.386 51.3323 346.411C50.303 346.473 48.7905 346.704 47.0841 347.393C45.372 348.068 43.5389 349.294 41.9804 350.997C40.4096 352.694 39.0821 354.818 38.0136 357.144C36.9821 359.484 36.204 361.773 35.723 363.91C35.242 366.045 35.0222 367.992 34.8787 369.623C34.7408 371.256 34.6893 372.579 34.6646 373.492C34.641 374.407 34.6534 374.914 34.6971 374.916Z" fill="#263238"/>
<path d="M34.9954 371.955C35.0179 371.954 35.0324 371.729 35.038 371.302C35.0369 370.811 35.0347 370.192 35.0324 369.432C35.0268 367.809 35.0279 365.461 35.1255 362.561C35.2869 356.762 35.8498 350.519 36.9351 341.719C37.9632 333.443 39.3423 323.813 40.7987 317.553C41.1104 316.128 41.4255 314.846 41.7215 313.724C42.0029 312.6 42.2451 311.629 42.4772 310.845C42.6768 310.107 42.8404 309.505 42.9694 309.027C43.0748 308.61 43.1196 308.388 43.0983 308.383C43.0759 308.377 42.9884 308.588 42.8427 308.996C42.6824 309.467 42.4794 310.059 42.2316 310.788C41.9603 311.565 41.6822 312.528 41.3661 313.649C41.0353 314.765 40.6889 316.044 40.3469 317.466C38.9062 323.139 37.3802 331.068 36.2848 339.89C35.1961 348.709 34.7073 356.738 34.6636 362.554C34.6254 365.461 34.6949 367.813 34.7779 369.437C34.8306 370.197 34.8721 370.816 34.9069 371.307C34.9427 371.733 34.973 371.956 34.9954 371.955Z" fill="#263238"/>
<path d="M35.0355 356.467C35.0815 356.465 35.0737 355.772 35.0198 354.513C34.9391 353.257 34.744 351.443 34.346 349.221C33.9244 347.003 33.3347 344.372 32.4086 341.511C32.0072 340.203 31.0643 337.07 28.7793 332.387C25.7688 326.042 21.6798 320.855 18.1223 317.643C17.2881 316.79 16.3586 316.175 15.6153 315.572C15.2307 315.283 14.891 314.995 14.5445 314.766C14.1958 314.553 13.8718 314.355 13.5713 314.17C12.4008 313.459 11.7449 313.083 11.7202 313.117C11.6148 313.244 14.3427 314.67 17.787 317.926C21.2179 321.175 25.1925 326.326 28.1794 332.617C29.8444 336.029 31.006 339.072 31.8289 341.656C32.7808 344.49 33.4132 347.096 33.8897 349.291C34.3438 351.49 34.6072 353.287 34.7653 354.53C34.8965 355.778 34.9907 356.468 35.0355 356.467Z" fill="#263238"/>
<path d="M18.1909 383.787L19.9377 405.047H50.6776L52.4244 383.787H18.1909Z" fill="#263238"/>
<path d="M56.0923 375.406H15.2202V383.786H56.0923V375.406Z" fill="#263238"/>
<path d="M15.2202 404.234V406.557H17.1408H55.4162V404.234H15.2202Z" fill="#455A64"/>
<path d="M19.028 410.646L17.1455 406.559H53.9578L51.7613 410.646H19.028Z" fill="#455A64"/>
<path d="M51.8567 390.739C51.8634 390.744 51.8152 390.81 51.7132 390.934C51.591 391.078 51.4396 391.255 51.2535 391.476C50.8174 391.972 50.2175 392.654 49.463 393.512L49.3834 393.602L49.306 393.508C48.1803 392.124 46.6768 390.276 44.9064 388.101H45.1598C43.8514 389.747 42.3938 391.581 40.8286 393.551L40.693 393.721L40.5405 393.561C38.9417 391.871 37.206 390.036 35.4032 388.13L35.6992 388.128C35.6095 388.227 35.513 388.335 35.4166 388.442C33.8234 390.216 32.2817 391.935 30.8231 393.559L30.6695 393.73L30.5282 393.552C28.9686 391.591 27.5122 389.759 26.1948 388.104L26.447 388.115C24.3112 390.276 22.4993 392.11 21.109 393.517L21.0148 393.613L20.9431 393.506C20.2401 392.456 19.6795 391.618 19.2725 391.011C19.0976 390.741 18.9563 390.522 18.8442 390.347C18.75 390.196 18.704 390.115 18.713 390.111C18.7209 390.106 18.7825 390.178 18.8924 390.321C19.0169 390.489 19.1727 390.7 19.3667 390.961C19.7939 391.557 20.3825 392.379 21.1202 393.41L20.9543 393.397C22.3221 391.973 24.1049 390.117 26.206 387.929L26.3383 387.791L26.4582 387.939C27.788 389.587 29.2579 391.411 30.8309 393.362L30.536 393.355C31.9902 391.728 33.5285 390.008 35.1184 388.23C35.2148 388.123 35.3112 388.014 35.4009 387.915L35.5467 387.752L35.6969 387.911C37.4953 389.821 39.2253 391.66 40.8197 393.353L40.5315 393.363C42.1124 391.404 43.5845 389.58 44.9064 387.941L45.0342 387.783L45.1598 387.941C46.8921 390.141 48.3642 392.009 49.4663 393.406L49.3094 393.402C50.0942 392.566 50.7176 391.902 51.1728 391.418C51.3746 391.21 51.5394 391.041 51.6717 390.905C51.7872 390.789 51.85 390.733 51.8567 390.739Z" fill="#E0E0E0"/>
<path d="M35.6415 383.815C45.1422 383.815 52.844 383.739 52.844 383.645C52.844 383.551 45.1422 383.475 35.6415 383.475C26.1408 383.475 18.439 383.551 18.439 383.645C18.439 383.739 26.1408 383.815 35.6415 383.815Z" fill="#455A64"/>
<path d="M35.7023 406.956C46.0278 406.956 54.3983 406.88 54.3983 406.786C54.3983 406.692 46.0278 406.615 35.7023 406.615C25.3768 406.615 17.0063 406.692 17.0063 406.786C17.0063 406.88 25.3768 406.956 35.7023 406.956Z" fill="#263238"/>
<path d="M424.354 162L403 241.358H408.973L430.009 162H424.354Z" fill="#263238"/>
<path d="M416.155 214.268C415.768 215.722 425.825 258.978 425.825 258.978H420.985L413.39 224.699L416.155 214.268Z" fill="#263238"/>
<path d="M480.724 316.193H380.683V410.42H480.724V316.193Z" fill="#00B3B1"/>
<path d="M485.636 329.961H480.723V334.325H485.636V329.961Z" fill="#263238"/>
<path d="M485.636 343.818H480.723V348.183H485.636V343.818Z" fill="#263238"/>
<path d="M485.636 357.674H480.723V362.039H485.636V357.674Z" fill="#263238"/>
<path d="M485.636 371.531H480.723V375.896H485.636V371.531Z" fill="#263238"/>
<path d="M485.82 358.948C485.814 358.914 486.35 358.804 487.331 358.654C488.311 358.511 489.74 358.304 491.539 358.301C493.318 358.302 495.55 358.572 497.619 359.723C498.637 360.297 499.596 361.11 500.218 362.164C500.845 363.215 501.105 364.464 500.995 365.705C500.886 366.949 500.425 368.132 499.718 369.123C499.014 370.116 498.1 370.923 497.131 371.553C495.177 372.815 493.047 373.373 491.281 373.606C489.502 373.843 488.045 373.793 487.053 373.734C486.058 373.666 485.516 373.576 485.519 373.544C485.524 373.505 486.073 373.526 487.062 373.532C488.048 373.528 489.486 373.522 491.214 373.244C492.93 372.972 494.965 372.393 496.812 371.169C498.643 369.974 500.233 368.015 500.412 365.666C500.515 364.512 500.275 363.362 499.71 362.402C499.149 361.437 498.276 360.678 497.326 360.128C495.396 359.023 493.269 358.715 491.53 358.669C489.775 358.627 488.346 358.775 487.36 358.857C486.373 358.944 485.825 358.986 485.82 358.948Z" fill="#263238"/>
<path d="M484.6 345.178C484.593 345.163 484.751 345.073 485.069 344.925C485.389 344.781 485.874 344.589 486.524 344.403C487.814 344.036 489.832 343.693 492.27 344.119C492.876 344.235 493.514 344.417 494.101 344.766C494.686 345.108 495.182 345.661 495.395 346.317C495.817 347.638 495.334 349.148 494.272 350.291C493.739 350.862 493.047 351.365 492.201 351.645C491.372 351.932 490.329 351.937 489.491 351.516C488.668 351.13 487.934 350.365 487.935 349.423C487.931 348.489 488.633 347.675 489.524 347.263C490.435 346.847 491.467 346.83 492.386 346.996C493.318 347.164 494.172 347.549 494.882 348.054C496.303 349.067 497.195 350.534 497.376 352.014C497.574 353.508 496.969 354.926 496.096 355.96C495.22 357.012 494.11 357.758 493.021 358.267C490.804 359.264 488.786 359.445 487.446 359.559C486.769 359.608 486.242 359.623 485.884 359.626C485.528 359.628 485.339 359.619 485.339 359.602C485.336 359.561 486.085 359.512 487.421 359.359C488.742 359.186 490.721 358.944 492.823 357.944C493.856 357.435 494.899 356.704 495.702 355.708C496.506 354.723 497.033 353.422 496.84 352.069C496.664 350.722 495.828 349.37 494.526 348.453C493.876 347.996 493.105 347.651 492.269 347.503C491.44 347.354 490.538 347.382 489.794 347.725C489.062 348.06 488.506 348.734 488.514 349.423C488.503 350.113 489.072 350.744 489.76 351.069C490.455 351.418 491.278 351.42 492.008 351.179C492.738 350.944 493.368 350.5 493.857 349.984C494.835 348.959 495.279 347.573 494.929 346.437C494.578 345.269 493.304 344.69 492.177 344.476C489.85 344.021 487.868 344.293 486.586 344.596C485.291 344.907 484.623 345.223 484.6 345.178Z" fill="#263238"/>
<path d="M484.644 331.652C484.638 331.629 485.019 331.515 485.735 331.473C486.448 331.43 487.507 331.487 488.738 331.848C489.954 332.216 491.35 332.912 492.476 334.084C493.614 335.243 494.349 336.898 494.415 338.667C494.471 340.437 493.85 342.131 492.795 343.349C491.751 344.58 490.407 345.351 489.219 345.785C488.016 346.212 486.963 346.326 486.249 346.322C485.531 346.319 485.145 346.227 485.149 346.203C485.134 346.088 486.774 346.352 489.056 345.448C490.168 344.992 491.414 344.229 492.362 343.064C493.322 341.916 493.883 340.339 493.833 338.683C493.77 337.029 493.101 335.486 492.064 334.39C491.036 333.28 489.742 332.587 488.599 332.191C486.257 331.414 484.637 331.768 484.644 331.652Z" fill="#263238"/>
<path d="M410.39 266.129C410.39 266.129 410.787 266.694 411.232 267.888C411.678 269.08 412.158 270.887 412.56 273.24C412.973 275.592 413.323 278.489 413.67 281.853C414.03 285.215 414.338 289.054 414.946 293.261C415.101 294.313 415.291 295.385 415.532 296.47C415.783 297.548 416.073 298.66 416.613 299.678C417.186 300.649 418.126 301.546 419.066 302.37C420.032 303.194 421.118 303.942 422.302 304.588C424.664 305.879 427.435 306.768 430.378 307.03C433.305 307.299 436.445 306.928 439.214 305.672C441.984 304.453 444.235 302.121 444.923 299.303C445.264 297.911 445.195 296.41 444.587 295.068C443.982 293.719 442.857 292.57 441.48 291.732C440.088 290.914 438.445 290.397 436.748 290.331C435.065 290.276 433.324 290.666 431.96 291.585C431.281 292.037 430.697 292.612 430.337 293.285C429.981 293.958 429.857 294.722 430.023 295.461C430.35 296.949 431.583 298.237 433.126 298.965C434.683 299.717 436.467 300.024 438.236 300.221C440.012 300.43 441.791 300.52 443.56 300.549C447.097 300.606 450.586 300.352 454.001 300.026C460.827 299.348 467.413 298.374 473.776 298.313C480.107 298.22 486.26 299.038 491.382 301.268C493.929 302.376 496.2 303.834 497.935 305.616C499.697 307.38 500.811 309.492 501.337 311.589C502.364 315.826 501.263 319.852 499.394 322.799C497.497 325.776 494.95 327.769 492.743 329.105C490.513 330.443 488.573 331.168 487.25 331.595C485.92 332.015 485.192 332.148 485.192 332.148C485.192 332.148 485.362 332.082 485.704 331.979C486.049 331.882 486.552 331.719 487.21 331.498C488.513 331.041 490.425 330.29 492.615 328.939C494.782 327.591 497.271 325.598 499.108 322.659C500.917 319.755 501.963 315.794 500.935 311.671C500.408 309.629 499.319 307.59 497.596 305.88C495.898 304.154 493.674 302.736 491.17 301.656C486.134 299.483 480.064 298.687 473.784 298.793C467.474 298.865 460.914 299.845 454.064 300.532C450.637 300.863 447.126 301.123 443.551 301.066C441.765 301.038 439.963 300.948 438.162 300.736C436.371 300.535 434.515 300.226 432.847 299.422C431.185 298.634 429.824 297.243 429.452 295.558C429.263 294.722 429.405 293.83 429.813 293.066C430.224 292.299 430.874 291.667 431.613 291.174C433.098 290.177 434.977 289.761 436.775 289.823C438.586 289.895 440.325 290.445 441.802 291.315C443.261 292.204 444.463 293.431 445.114 294.885C445.767 296.336 445.832 297.936 445.469 299.412C444.739 302.387 442.35 304.837 439.461 306.101C436.573 307.402 433.338 307.77 430.327 307.487C427.302 307.211 424.466 306.289 422.048 304.958C420.839 304.292 419.731 303.522 418.743 302.674C417.77 301.804 416.852 300.944 416.21 299.859C415.642 298.77 415.36 297.644 415.11 296.549C414.872 295.451 414.688 294.371 414.539 293.314C413.953 289.085 413.674 285.247 413.347 281.883C413.032 278.519 412.715 275.625 412.338 273.274C411.972 270.923 411.53 269.118 411.122 267.924C410.92 267.327 410.739 266.878 410.593 266.586C410.45 266.286 410.39 266.129 410.39 266.129Z" fill="#263238"/>
<path d="M475.042 406.479C475.042 406.479 475.034 406.335 475.028 406.063C475.025 405.78 475.02 405.38 475.013 404.859C475.007 403.787 474.995 402.223 474.984 400.188C474.967 396.097 474.946 390.126 474.916 382.538C474.886 367.37 474.841 345.755 474.787 319.896L475.042 320.123C448.568 320.133 417.582 320.144 384.615 320.156H384.606L384.897 319.896C384.881 351.727 384.867 381.472 384.855 406.479L384.606 406.258C411.752 406.305 434.328 406.344 450.136 406.371C458.044 406.396 464.255 406.416 468.508 406.429C470.623 406.441 472.246 406.45 473.36 406.454C474.461 406.463 475.042 406.479 475.042 406.479C475.042 406.479 474.499 406.496 473.415 406.504C472.312 406.51 470.703 406.519 468.61 406.529C464.371 406.543 458.179 406.562 450.295 406.587C434.448 406.614 411.818 406.654 384.606 406.701H384.356V406.478C384.342 381.471 384.329 351.726 384.313 319.895V319.635H384.606H384.615C417.582 319.647 448.568 319.658 475.042 319.667H475.299V319.895C475.245 345.815 475.201 367.48 475.17 382.682C475.141 390.248 475.118 396.201 475.102 400.28C475.088 402.296 475.078 403.846 475.073 404.907C475.066 405.419 475.062 405.81 475.058 406.089C475.051 406.352 475.042 406.479 475.042 406.479Z" fill="#263238"/>
<path d="M449.106 330.958C449.363 330.958 449.571 330.773 449.571 330.544C449.571 330.316 449.363 330.131 449.106 330.131C448.849 330.131 448.641 330.316 448.641 330.544C448.641 330.773 448.849 330.958 449.106 330.958Z" fill="#263238"/>
<path d="M451.661 330.96C451.918 330.96 452.126 330.775 452.126 330.546C452.126 330.318 451.918 330.133 451.661 330.133C451.404 330.133 451.195 330.318 451.195 330.546C451.195 330.775 451.404 330.96 451.661 330.96Z" fill="#263238"/>
<path d="M454.22 330.958C454.477 330.958 454.685 330.773 454.685 330.544C454.685 330.316 454.477 330.131 454.22 330.131C453.963 330.131 453.754 330.316 453.754 330.544C453.754 330.773 453.963 330.958 454.22 330.958Z" fill="#263238"/>
<path d="M456.769 330.958C457.026 330.958 457.235 330.773 457.235 330.544C457.235 330.316 457.026 330.131 456.769 330.131C456.512 330.131 456.304 330.316 456.304 330.544C456.304 330.773 456.512 330.958 456.769 330.958Z" fill="#263238"/>
<path d="M459.329 330.958C459.586 330.958 459.794 330.773 459.794 330.544C459.794 330.316 459.586 330.131 459.329 330.131C459.072 330.131 458.863 330.316 458.863 330.544C458.863 330.773 459.072 330.958 459.329 330.958Z" fill="#263238"/>
<path d="M461.883 330.96C462.14 330.96 462.348 330.775 462.348 330.546C462.348 330.318 462.14 330.133 461.883 330.133C461.626 330.133 461.417 330.318 461.417 330.546C461.417 330.775 461.626 330.96 461.883 330.96Z" fill="#263238"/>
<path d="M464.442 330.958C464.699 330.958 464.907 330.773 464.907 330.544C464.907 330.316 464.699 330.131 464.442 330.131C464.185 330.131 463.977 330.316 463.977 330.544C463.977 330.773 464.185 330.958 464.442 330.958Z" fill="#263238"/>
<path d="M463.259 332.483C463.516 332.483 463.724 332.298 463.724 332.07C463.724 331.841 463.516 331.656 463.259 331.656C463.002 331.656 462.793 331.841 462.793 332.07C462.793 332.298 463.002 332.483 463.259 332.483Z" fill="#263238"/>
<path d="M460.645 332.485C460.902 332.485 461.11 332.3 461.11 332.072C461.11 331.843 460.902 331.658 460.645 331.658C460.388 331.658 460.18 331.843 460.18 332.072C460.18 332.3 460.388 332.485 460.645 332.485Z" fill="#263238"/>
<path d="M458.031 332.483C458.288 332.483 458.497 332.298 458.497 332.07C458.497 331.841 458.288 331.656 458.031 331.656C457.774 331.656 457.566 331.841 457.566 332.07C457.566 332.298 457.774 332.483 458.031 332.483Z" fill="#263238"/>
<path d="M455.421 332.483C455.678 332.483 455.887 332.298 455.887 332.07C455.887 331.841 455.678 331.656 455.421 331.656C455.164 331.656 454.956 331.841 454.956 332.07C454.956 332.298 455.164 332.483 455.421 332.483Z" fill="#263238"/>
<path d="M452.803 332.485C453.06 332.485 453.268 332.3 453.268 332.072C453.268 331.843 453.06 331.658 452.803 331.658C452.546 331.658 452.337 331.843 452.337 332.072C452.337 332.3 452.546 332.485 452.803 332.485Z" fill="#263238"/>
<path d="M450.188 332.483C450.445 332.483 450.653 332.298 450.653 332.07C450.653 331.841 450.445 331.656 450.188 331.656C449.931 331.656 449.723 331.841 449.723 332.07C449.723 332.298 449.931 332.483 450.188 332.483Z" fill="#263238"/>
<path d="M449.106 334.212C449.363 334.212 449.571 334.026 449.571 333.798C449.571 333.57 449.363 333.385 449.106 333.385C448.849 333.385 448.641 333.57 448.641 333.798C448.641 334.026 448.849 334.212 449.106 334.212Z" fill="#263238"/>
<path d="M451.661 334.21C451.918 334.21 452.126 334.025 452.126 333.796C452.126 333.568 451.918 333.383 451.661 333.383C451.404 333.383 451.195 333.568 451.195 333.796C451.195 334.025 451.404 334.21 451.661 334.21Z" fill="#263238"/>
<path d="M454.22 334.212C454.477 334.212 454.685 334.026 454.685 333.798C454.685 333.57 454.477 333.385 454.22 333.385C453.963 333.385 453.754 333.57 453.754 333.798C453.754 334.026 453.963 334.212 454.22 334.212Z" fill="#263238"/>
<path d="M456.769 334.212C457.026 334.212 457.235 334.026 457.235 333.798C457.235 333.57 457.026 333.385 456.769 333.385C456.512 333.385 456.304 333.57 456.304 333.798C456.304 334.026 456.512 334.212 456.769 334.212Z" fill="#263238"/>
<path d="M459.329 334.212C459.586 334.212 459.794 334.026 459.794 333.798C459.794 333.57 459.586 333.385 459.329 333.385C459.072 333.385 458.863 333.57 458.863 333.798C458.863 334.026 459.072 334.212 459.329 334.212Z" fill="#263238"/>
<path d="M461.883 334.21C462.14 334.21 462.348 334.025 462.348 333.796C462.348 333.568 462.14 333.383 461.883 333.383C461.626 333.383 461.417 333.568 461.417 333.796C461.417 334.025 461.626 334.21 461.883 334.21Z" fill="#263238"/>
<path d="M464.442 334.212C464.699 334.212 464.907 334.026 464.907 333.798C464.907 333.57 464.699 333.385 464.442 333.385C464.185 333.385 463.977 333.57 463.977 333.798C463.977 334.026 464.185 334.212 464.442 334.212Z" fill="#263238"/>
<path d="M463.259 335.737C463.516 335.737 463.724 335.552 463.724 335.324C463.724 335.095 463.516 334.91 463.259 334.91C463.002 334.91 462.793 335.095 462.793 335.324C462.793 335.552 463.002 335.737 463.259 335.737Z" fill="#263238"/>
<path d="M460.645 335.737C460.902 335.737 461.11 335.552 461.11 335.324C461.11 335.095 460.902 334.91 460.645 334.91C460.388 334.91 460.18 335.095 460.18 335.324C460.18 335.552 460.388 335.737 460.645 335.737Z" fill="#263238"/>
<path d="M458.031 335.737C458.288 335.737 458.497 335.552 458.497 335.324C458.497 335.095 458.288 334.91 458.031 334.91C457.774 334.91 457.566 335.095 457.566 335.324C457.566 335.552 457.774 335.737 458.031 335.737Z" fill="#263238"/>
<path d="M455.421 335.737C455.678 335.737 455.887 335.552 455.887 335.324C455.887 335.095 455.678 334.91 455.421 334.91C455.164 334.91 454.956 335.095 454.956 335.324C454.956 335.552 455.164 335.737 455.421 335.737Z" fill="#263238"/>
<path d="M452.803 335.737C453.06 335.737 453.268 335.552 453.268 335.324C453.268 335.095 453.06 334.91 452.803 334.91C452.546 334.91 452.337 335.095 452.337 335.324C452.337 335.552 452.546 335.737 452.803 335.737Z" fill="#263238"/>
<path d="M450.188 335.737C450.445 335.737 450.653 335.552 450.653 335.324C450.653 335.095 450.445 334.91 450.188 334.91C449.931 334.91 449.723 335.095 449.723 335.324C449.723 335.552 449.931 335.737 450.188 335.737Z" fill="#263238"/>
<path d="M449.106 337.462C449.363 337.462 449.571 337.276 449.571 337.048C449.571 336.82 449.363 336.635 449.106 336.635C448.849 336.635 448.641 336.82 448.641 337.048C448.641 337.276 448.849 337.462 449.106 337.462Z" fill="#263238"/>
<path d="M451.661 337.462C451.918 337.462 452.126 337.276 452.126 337.048C452.126 336.82 451.918 336.635 451.661 336.635C451.404 336.635 451.195 336.82 451.195 337.048C451.195 337.276 451.404 337.462 451.661 337.462Z" fill="#263238"/>
<path d="M454.22 337.464C454.477 337.464 454.685 337.278 454.685 337.05C454.685 336.822 454.477 336.637 454.22 336.637C453.963 336.637 453.754 336.822 453.754 337.05C453.754 337.278 453.963 337.464 454.22 337.464Z" fill="#263238"/>
<path d="M456.769 337.462C457.026 337.462 457.235 337.276 457.235 337.048C457.235 336.82 457.026 336.635 456.769 336.635C456.512 336.635 456.304 336.82 456.304 337.048C456.304 337.276 456.512 337.462 456.769 337.462Z" fill="#263238"/>
<path d="M459.329 337.462C459.586 337.462 459.794 337.276 459.794 337.048C459.794 336.82 459.586 336.635 459.329 336.635C459.072 336.635 458.863 336.82 458.863 337.048C458.863 337.276 459.072 337.462 459.329 337.462Z" fill="#263238"/>
<path d="M461.883 337.462C462.14 337.462 462.348 337.276 462.348 337.048C462.348 336.82 462.14 336.635 461.883 336.635C461.626 336.635 461.417 336.82 461.417 337.048C461.417 337.276 461.626 337.462 461.883 337.462Z" fill="#263238"/>
<path d="M464.442 337.464C464.699 337.464 464.907 337.278 464.907 337.05C464.907 336.822 464.699 336.637 464.442 336.637C464.185 336.637 463.977 336.822 463.977 337.05C463.977 337.278 464.185 337.464 464.442 337.464Z" fill="#263238"/>
<path d="M463.259 338.989C463.516 338.989 463.724 338.804 463.724 338.576C463.724 338.347 463.516 338.162 463.259 338.162C463.002 338.162 462.793 338.347 462.793 338.576C462.793 338.804 463.002 338.989 463.259 338.989Z" fill="#263238"/>
<path d="M460.645 338.987C460.902 338.987 461.11 338.802 461.11 338.574C461.11 338.345 460.902 338.16 460.645 338.16C460.388 338.16 460.18 338.345 460.18 338.574C460.18 338.802 460.388 338.987 460.645 338.987Z" fill="#263238"/>
<path d="M458.031 338.987C458.288 338.987 458.497 338.802 458.497 338.574C458.497 338.345 458.288 338.16 458.031 338.16C457.774 338.16 457.566 338.345 457.566 338.574C457.566 338.802 457.774 338.987 458.031 338.987Z" fill="#263238"/>
<path d="M455.421 338.989C455.678 338.989 455.887 338.804 455.887 338.576C455.887 338.347 455.678 338.162 455.421 338.162C455.164 338.162 454.956 338.347 454.956 338.576C454.956 338.804 455.164 338.989 455.421 338.989Z" fill="#263238"/>
<path d="M452.803 338.987C453.06 338.987 453.268 338.802 453.268 338.574C453.268 338.345 453.06 338.16 452.803 338.16C452.546 338.16 452.337 338.345 452.337 338.574C452.337 338.802 452.546 338.987 452.803 338.987Z" fill="#263238"/>
<path d="M450.188 338.987C450.445 338.987 450.653 338.802 450.653 338.574C450.653 338.345 450.445 338.16 450.188 338.16C449.931 338.16 449.723 338.345 449.723 338.574C449.723 338.802 449.931 338.987 450.188 338.987Z" fill="#263238"/>
<path d="M414.217 237.464C414.217 237.464 414.869 237.426 416.039 237.746C417.194 238.058 418.87 238.795 420.456 240.313C422.058 241.817 423.391 244.11 424.362 246.887C425.331 249.666 426.22 252.892 426.823 256.514C428.071 263.761 428.252 272.509 427.538 282.166C427.266 284.565 426.685 287.124 425.027 289.281C424.211 290.349 423.159 291.314 421.868 292C420.591 292.685 419.037 293.075 417.494 292.923C415.968 292.785 414.451 292.217 413.34 291.206C412.788 290.702 412.352 290.081 412.112 289.397C411.865 288.704 411.871 287.949 412.08 287.254C412.501 285.872 413.628 284.629 415.209 284.121C415.995 283.867 416.893 283.875 417.688 284.127C418.481 284.386 419.159 284.869 419.664 285.452C420.695 286.626 420.994 288.182 420.753 289.582C420.53 291.001 419.891 292.3 419.139 293.501C417.605 295.905 415.358 297.886 412.753 299.22C407.52 301.945 400.982 301.787 396.152 299.426C393.717 298.259 391.697 296.61 390.099 294.79C388.491 292.968 387.296 290.965 386.423 288.944C384.685 284.884 384.183 280.83 383.968 277.186C383.745 273.528 383.976 270.215 383.568 267.35C383.363 265.921 383.031 264.605 382.525 263.46C382.033 262.31 381.354 261.344 380.65 260.552C379.225 258.961 377.616 258.157 376.489 257.818C375.349 257.473 374.699 257.474 374.706 257.436C374.706 257.436 375.357 257.401 376.526 257.718C377.682 258.03 379.346 258.822 380.826 260.425C381.558 261.223 382.264 262.199 382.784 263.368C383.315 264.533 383.668 265.869 383.89 267.313C384.334 270.215 384.13 273.533 384.38 277.167C384.62 280.79 385.146 284.803 386.876 288.79C387.743 290.771 388.926 292.733 390.503 294.509C392.074 296.283 394.046 297.882 396.407 299.007C401.086 301.28 407.424 301.419 412.468 298.781C414.982 297.488 417.156 295.568 418.634 293.247C419.363 292.086 419.972 290.831 420.178 289.512C420.399 288.203 420.121 286.818 419.204 285.768C418.754 285.25 418.163 284.833 417.489 284.613C416.814 284.404 416.08 284.394 415.406 284.61C414.05 285.037 413.01 286.162 412.645 287.385C412.238 288.622 412.757 289.95 413.758 290.849C414.754 291.759 416.15 292.29 417.554 292.417C418.969 292.558 420.381 292.207 421.584 291.567C422.79 290.93 423.791 290.02 424.57 289.003C426.155 286.954 426.734 284.486 427.007 282.12C427.747 272.519 427.612 263.778 426.421 256.569C425.846 252.961 424.991 249.745 424.057 246.975C423.122 244.211 421.838 241.947 420.295 240.451C418.763 238.939 417.137 238.186 416.007 237.847C414.861 237.498 414.209 237.502 414.217 237.464Z" fill="#E0E0E0"/>
<path d="M405.418 251.877H368.17V258.182H405.418V251.877Z" fill="#E0E0E0"/>
<path d="M136.559 317.059H87.9756V409.972H136.559V317.059Z" fill="#263238"/>
<path d="M132.371 400.187C132.371 400.187 132.36 400.046 132.354 399.786C132.35 399.508 132.344 399.126 132.336 398.631C132.328 397.602 132.316 396.111 132.302 394.185C132.284 390.301 132.258 384.666 132.225 377.586C132.193 363.424 132.147 343.482 132.093 320.276L132.37 320.523C119.758 320.527 106.011 320.531 91.7276 320.536H91.722L92.0135 320.276C91.9822 351.318 91.9541 379.506 91.9328 400.188L91.722 400.001C104.235 400.043 114.369 400.077 121.399 400.101C124.904 400.122 127.634 400.137 129.51 400.148C130.427 400.158 131.132 400.165 131.632 400.169C132.113 400.173 132.371 400.187 132.371 400.187C132.371 400.187 132.142 400.2 131.676 400.207C131.185 400.212 130.492 400.219 129.592 400.228C127.726 400.239 125.013 400.254 121.528 400.275C114.469 400.298 104.29 400.333 91.7232 400.375L91.5124 400.376V400.189C91.4911 379.507 91.463 351.319 91.4316 320.277V320.018H91.7243H91.7299C106.013 320.022 119.76 320.027 132.372 320.031H132.65V320.277C132.596 343.55 132.55 363.55 132.518 377.754C132.485 384.809 132.46 390.425 132.442 394.296C132.427 396.198 132.415 397.673 132.407 398.691C132.399 399.173 132.393 399.544 132.39 399.816C132.382 400.066 132.371 400.187 132.371 400.187Z" fill="#455A64"/>
<path d="M129.869 327.038C129.853 327.023 129.837 326.689 129.814 326.068C129.796 325.405 129.772 324.511 129.741 323.376L129.869 323.489C123.583 323.576 110.107 323.635 94.5257 323.635H94.5246C94.6546 323.519 94.2319 323.894 94.8161 323.375V323.377V323.381V323.388V323.403V323.433V323.491V323.609V323.843V324.311C94.8161 324.622 94.8161 324.931 94.8161 325.238C94.8161 325.85 94.815 326.453 94.815 327.038L94.5246 326.78C104.411 326.785 113.196 326.838 119.552 326.89C122.691 326.921 125.239 326.948 127.073 326.966C127.921 326.981 128.602 326.992 129.128 327.002C129.601 327.015 129.856 327.027 129.869 327.038C129.883 327.049 129.654 327.061 129.205 327.073C128.695 327.082 128.036 327.093 127.215 327.107C125.398 327.126 122.872 327.152 119.762 327.184C113.419 327.237 104.53 327.289 94.5234 327.295H94.2331V327.037C94.2331 326.452 94.2331 325.85 94.2319 325.237C94.2319 324.93 94.2319 324.621 94.2319 324.31V323.842V323.608V323.49V323.432V323.402V323.387V323.38V323.376V323.374C94.8161 322.855 94.3945 323.229 94.5246 323.114H94.5257C110.107 323.114 123.583 323.174 129.869 323.259L130 323.261L129.998 323.373C129.968 324.536 129.943 325.452 129.925 326.132C129.902 326.748 129.886 327.052 129.869 327.038Z" fill="#455A64"/>
<path d="M96.4505 329.928C97.3509 329.928 98.0808 329.812 98.0808 329.668C98.0808 329.525 97.3509 329.408 96.4505 329.408C95.5502 329.408 94.8203 329.525 94.8203 329.668C94.8203 329.812 95.5502 329.928 96.4505 329.928Z" fill="#455A64"/>
<path d="M112.12 334.723C121.4 334.723 128.922 334.607 128.922 334.463C128.922 334.32 121.4 334.203 112.12 334.203C102.84 334.203 95.3179 334.32 95.3179 334.463C95.3179 334.607 102.84 334.723 112.12 334.723Z" fill="#455A64"/>
<path d="M112.554 340.512C121.674 340.512 129.066 340.396 129.066 340.252C129.066 340.109 121.674 339.992 112.554 339.992C103.435 339.992 96.0425 340.109 96.0425 340.252C96.0425 340.396 103.435 340.512 112.554 340.512Z" fill="#455A64"/>
<path d="M112.126 356.16C113.603 356.16 114.8 355.096 114.8 353.784C114.8 352.472 113.603 351.408 112.126 351.408C110.649 351.408 109.452 352.472 109.452 353.784C109.452 355.096 110.649 356.16 112.126 356.16Z" fill="#00B3B1"/>
<path d="M101.019 353.936C102.993 353.936 104.594 353.82 104.594 353.676C104.594 353.532 102.993 353.416 101.019 353.416C99.0451 353.416 97.4448 353.532 97.4448 353.676C97.4448 353.82 99.0451 353.936 101.019 353.936Z" fill="#455A64"/>
<path d="M122.888 353.323C124.767 353.323 126.29 353.207 126.29 353.064C126.29 352.921 124.767 352.805 122.888 352.805C121.009 352.805 119.486 352.921 119.486 353.064C119.486 353.207 121.009 353.323 122.888 353.323Z" fill="#455A64"/>
<path d="M89.6456 363.687C89.6456 363.687 89.0043 363.66 87.8259 363.39C86.6565 363.114 84.9377 362.567 83.016 361.412C81.0953 360.273 78.9897 358.506 77.2171 356.04C75.4333 353.581 73.9993 350.465 72.988 346.913C71.9688 343.366 71.3006 339.333 71.647 335.009C71.9744 330.712 73.4645 326.07 76.7473 322.125C78.3652 320.154 80.4125 318.371 82.8388 316.983C84.0576 316.298 85.3649 315.713 86.7484 315.258C88.1398 314.819 89.594 314.518 91.0751 314.341C94.0396 313.975 97.069 314.026 100.102 313.867C103.118 313.716 106.217 313.286 108.975 312.049C111.729 310.852 113.897 308.654 114.483 306.037C115.151 303.457 114.397 300.672 112.487 298.751C110.62 296.822 107.791 295.629 105.044 295.777C103.679 295.864 102.33 296.267 101.303 297.011C100.27 297.74 99.6478 298.879 99.7364 300.016C99.9202 302.31 102.284 304.22 104.736 304.308C107.236 304.46 109.577 303.276 111.147 301.75C112.728 300.176 113.634 298.233 114.248 296.342C114.855 294.438 115.226 292.551 115.542 290.756C116.681 283.53 116.296 277.585 116.135 273.515C116.02 271.496 115.93 269.918 115.867 268.816C115.84 268.298 115.819 267.894 115.802 267.594C115.791 267.318 115.79 267.177 115.801 267.176C115.811 267.176 115.831 267.316 115.863 267.59C115.893 267.889 115.933 268.292 115.985 268.809C116.082 269.881 116.225 271.463 116.361 273.504C116.592 277.575 117.043 283.528 115.95 290.807C115.644 292.619 115.286 294.514 114.682 296.452C114.068 298.375 113.156 300.381 111.507 302.037C109.865 303.642 107.419 304.913 104.701 304.763C102.001 304.653 99.4292 302.627 99.1982 300.042C99.0906 298.749 99.8081 297.444 100.953 296.634C102.093 295.808 103.541 295.38 105.005 295.283C107.972 295.125 110.935 296.383 112.921 298.419C114.951 300.454 115.757 303.425 115.05 306.148C114.714 307.509 114.028 308.827 112.992 309.91C111.983 311.01 110.661 311.87 109.239 312.513C106.365 313.799 103.19 314.23 100.134 314.382C97.0702 314.539 94.0575 314.488 91.1525 314.845C89.7005 315.016 88.2878 315.307 86.939 315.731C85.597 316.171 84.3244 316.738 83.137 317.402C80.7724 318.749 78.7677 320.485 77.179 322.408C73.9556 326.262 72.4722 330.804 72.128 335.043C71.7647 339.303 72.4005 343.3 73.3871 346.823C74.3659 350.356 75.7573 353.444 77.4918 355.885C79.2162 358.334 81.2658 360.096 83.1438 361.246C85.0218 362.413 86.7069 362.984 87.8573 363.291C88.4358 363.44 88.8843 363.539 89.1881 363.59C89.492 363.645 89.6467 363.679 89.6456 363.687Z" fill="#263238"/>
<path d="M188.128 172.928H73.0889V243.114H188.128V172.928Z" fill="#263238"/>
<path d="M137.382 233.543H121.719V260.019H137.382V233.543Z" fill="#263238"/>
<path d="M84.543 259V268.529H143.895V410.435H149.356V268.529L397.249 269.616V410.435H402.604V269.351L440.859 269.624V258.178L84.543 259Z" fill="#263238"/>
<path d="M122.525 266.678L145.928 281.651L143.895 283.385L120.298 267.589L122.525 266.678Z" fill="#263238"/>
<path d="M424.66 268.074L397.504 285.256L399.539 286.99L426.887 268.986L424.66 268.074Z" fill="#263238"/>
<path d="M232.208 255.494H170.86V259.505H232.208V255.494Z" fill="#263238"/>
<path d="M364.615 200C364.297 200 363.982 199.916 363.703 199.756L360.799 198.036C360.365 197.794 360.576 197.708 360.72 197.658C361.298 197.456 361.415 197.41 362.033 197.06C362.098 197.023 362.182 197.036 362.249 197.075L364.48 198.399C364.561 198.442 364.675 198.442 364.75 198.399L373.45 193.377C373.53 193.331 373.582 193.238 373.582 193.142V183.103C373.582 183.003 373.53 182.913 373.448 182.863L364.751 177.846C364.671 177.798 364.564 177.798 364.484 177.846L355.789 182.863C355.705 182.911 355.651 183.005 355.651 183.101V193.14C355.651 193.236 355.703 193.327 355.786 193.373L358.169 194.749C359.462 195.396 360.253 194.634 360.253 193.867V183.959C360.253 183.817 360.364 183.708 360.505 183.708H361.607C361.744 183.708 361.858 183.817 361.858 183.959V193.871C361.858 195.596 360.917 196.587 359.281 196.587C358.778 196.587 358.382 196.587 357.276 196.043L354.994 194.727C354.429 194.401 354.081 193.791 354.081 193.14V183.101C354.081 182.447 354.429 181.838 354.994 181.515L363.702 176.491C364.253 176.18 364.985 176.18 365.531 176.491L374.229 181.517C374.791 181.842 375.141 182.45 375.141 183.103V193.142C375.141 193.793 374.791 194.401 374.229 194.727L365.531 199.751C365.253 199.912 364.937 199.995 364.615 199.995" fill="#689F63"/>
<path d="M367.301 193.082C363.494 193.082 362.696 191.335 362.696 189.869C362.696 189.73 362.808 189.619 362.948 189.619H364.071C364.196 189.619 364.3 189.709 364.32 189.832C364.49 190.977 364.995 191.555 367.297 191.555C369.13 191.555 369.91 191.14 369.91 190.168C369.91 189.608 369.688 189.192 366.839 188.914C364.457 188.678 362.985 188.154 362.985 186.248C362.985 184.493 364.466 183.448 366.946 183.448C369.731 183.448 371.112 184.415 371.286 186.492C371.293 186.564 371.267 186.634 371.219 186.686C371.171 186.736 371.103 186.766 371.033 186.766H369.903C369.786 186.766 369.683 186.684 369.659 186.57C369.387 185.366 368.73 184.981 366.942 184.981C364.94 184.981 364.707 185.678 364.707 186.2C364.707 186.834 364.982 187.019 367.682 187.376C370.356 187.731 371.626 188.232 371.626 190.111C371.626 192.006 370.045 193.093 367.288 193.093L367.301 193.082ZM377.884 182.446H378.176C378.416 182.446 378.462 182.278 378.462 182.18C378.462 181.923 378.285 181.923 378.187 181.923H377.887L377.884 182.446ZM377.53 181.623H378.176C378.398 181.623 378.834 181.623 378.834 182.119C378.834 182.466 378.612 182.537 378.479 182.581C378.738 182.598 378.756 182.768 378.79 183.008C378.808 183.158 378.836 183.417 378.888 183.504H378.49C378.479 183.417 378.418 182.938 378.418 182.912C378.392 182.805 378.355 182.753 378.222 182.753H377.893V183.506H377.53V181.623ZM376.752 182.559C376.752 183.339 377.381 183.97 378.155 183.97C378.934 183.97 379.563 183.326 379.563 182.559C379.563 181.777 378.925 181.157 378.152 181.157C377.39 181.157 376.75 181.769 376.75 182.557L376.752 182.559ZM379.834 182.564C379.834 183.487 379.078 184.24 378.157 184.24C377.242 184.24 376.48 183.496 376.48 182.564C376.48 181.614 377.259 180.887 378.157 180.887C379.06 180.887 379.831 181.616 379.831 182.564" fill="#689F63"/>
<path fill-rule="evenodd" clip-rule="evenodd" d="M337.674 160.719C337.674 160.318 337.463 159.95 337.117 159.751L327.893 154.444C327.738 154.352 327.563 154.305 327.386 154.298H327.291C327.114 154.305 326.94 154.352 326.781 154.444L317.558 159.751C317.214 159.951 317 160.319 317 160.72L317.02 175.014C317.02 175.212 317.123 175.398 317.297 175.496C317.467 175.6 317.68 175.6 317.85 175.496L323.333 172.355C323.68 172.149 323.891 171.785 323.891 171.388V164.711C323.891 164.312 324.102 163.944 324.447 163.746L326.782 162.401C326.955 162.301 327.145 162.252 327.339 162.252C327.53 162.252 327.725 162.301 327.893 162.401L330.227 163.745C330.572 163.943 330.784 164.311 330.784 164.71V171.387C330.784 171.784 330.998 172.15 331.343 172.354L336.823 175.492C336.995 175.595 337.209 175.595 337.38 175.492C337.549 175.394 337.656 175.209 337.656 175.011L337.674 160.719ZM381.199 168.161C381.199 168.261 381.146 168.353 381.06 168.402L377.892 170.228C377.806 170.278 377.699 170.278 377.613 170.228L374.445 168.402C374.358 168.353 374.306 168.261 374.306 168.161V164.504C374.306 164.404 374.358 164.312 374.443 164.262L377.609 162.433C377.696 162.383 377.803 162.383 377.89 162.433L381.059 164.262C381.146 164.312 381.198 164.404 381.198 164.504L381.199 168.161ZM382.055 141.071C381.882 140.974 381.672 140.977 381.501 141.076C381.331 141.177 381.226 141.359 381.226 141.558V155.713C381.226 155.852 381.152 155.98 381.031 156.05C380.912 156.12 380.762 156.12 380.642 156.05L378.331 154.719C377.987 154.52 377.563 154.52 377.218 154.719L367.991 160.044C367.646 160.243 367.433 160.611 367.433 161.007V171.66C367.433 172.059 367.646 172.425 367.991 172.625L377.218 177.954C377.562 178.152 377.986 178.152 378.332 177.954L387.559 172.623C387.903 172.422 388.116 172.057 388.116 171.658V145.108C388.116 144.704 387.896 144.332 387.544 144.134L382.055 141.071ZM412.78 164.407C413.123 164.208 413.334 163.841 413.334 163.444V160.863C413.334 160.465 413.123 160.099 412.78 159.899L403.612 154.577C403.265 154.376 402.841 154.376 402.494 154.577L393.27 159.901C392.923 160.102 392.712 160.467 392.712 160.866V171.515C392.712 171.915 392.928 172.286 393.274 172.484L402.44 177.708C402.777 177.902 403.191 177.904 403.533 177.715L409.077 174.633C409.252 174.535 409.363 174.35 409.363 174.15C409.363 173.949 409.256 173.762 409.082 173.664L399.801 168.338C399.626 168.24 399.52 168.054 399.52 167.856V164.516C399.52 164.316 399.624 164.132 399.798 164.033L402.686 162.367C402.858 162.267 403.069 162.267 403.241 162.367L406.131 164.033C406.303 164.131 406.41 164.316 406.41 164.514V167.141C406.41 167.339 406.517 167.524 406.689 167.624C406.861 167.722 407.074 167.722 407.246 167.622L412.78 164.407Z" fill="#333333"/>
<path fill-rule="evenodd" clip-rule="evenodd" d="M402.919 163.91C402.985 163.871 403.066 163.871 403.133 163.91L404.903 164.931C404.969 164.969 405.01 165.04 405.01 165.116V167.161C405.01 167.237 404.969 167.308 404.903 167.346L403.133 168.367C403.066 168.406 402.985 168.406 402.919 168.367L401.15 167.346C401.082 167.308 401.041 167.237 401.041 167.161V165.116C401.041 165.04 401.08 164.969 401.148 164.931L402.919 163.91Z" fill="#689F63"/>
<mask id="mask0" mask-type="alpha" maskUnits="userSpaceOnUse" x="341" y="153" width="23" height="26">
<path d="M351.603 153.989C352.222 153.632 352.984 153.632 353.603 153.989L362.635 159.204C363.254 159.562 363.635 160.222 363.635 160.937V171.367C363.635 172.081 363.254 172.741 362.635 173.099L353.603 178.314C352.984 178.671 352.222 178.671 351.603 178.314L342.57 173.099C341.951 172.741 341.57 172.081 341.57 171.367V160.937C341.57 160.222 341.951 159.562 342.57 159.204L351.603 153.989Z" fill="#C4C4C4"/>
</mask>
<g mask="url(#mask0)">
<path d="M332.927 161.587C332.039 162.243 331.85 163.496 332.507 164.384L348.384 185.873C349.041 186.762 350.293 186.95 351.181 186.293L372.106 170.834C372.994 170.177 373.182 168.925 372.526 168.037L356.648 146.548C355.991 145.66 354.739 145.472 353.851 146.128L332.927 161.587Z" fill="url(#paint0_linear)"/>
<path d="M360.253 173.63C360.856 173.496 361.364 173.09 361.628 172.531L372.149 150.265C372.86 148.761 371.531 147.098 369.908 147.458L351.365 151.572C350.761 151.706 350.254 152.111 349.99 152.67L339.47 174.937C338.759 176.44 340.088 178.104 341.711 177.744L360.253 173.63Z" fill="url(#paint1_linear)"/>
<path d="M342.88 158.551C341.924 159.103 341.596 160.326 342.148 161.283L351.826 178.045C352.379 179.002 353.602 179.33 354.558 178.777L362.976 173.918C363.932 173.365 364.26 172.142 363.708 171.186L354.03 154.423C353.478 153.467 352.254 153.139 351.298 153.691L342.88 158.551Z" fill="url(#paint2_linear)"/>
</g>
<defs>
<linearGradient id="paint0_linear" x1="340.555" y1="175.27" x2="364.698" y2="157.432" gradientUnits="userSpaceOnUse">
<stop offset="0.57" stop-color="#3E863D"/>
<stop offset="0.72" stop-color="#619857"/>
<stop offset="1" stop-color="#76AC64"/>
</linearGradient>
<linearGradient id="paint1_linear" x1="367.622" y1="159.84" x2="350.435" y2="151.719" gradientUnits="userSpaceOnUse">
<stop offset="0.57" stop-color="#3E863D"/>
<stop offset="0.72" stop-color="#619857"/>
<stop offset="1" stop-color="#76AC64"/>
</linearGradient>
<linearGradient id="paint2_linear" x1="346.992" y1="169.662" x2="358.871" y2="162.804" gradientUnits="userSpaceOnUse">
<stop offset="0.16" stop-color="#6BBF47"/>
<stop offset="0.38" stop-color="#79B461"/>
<stop offset="0.47" stop-color="#75AC64"/>
<stop offset="0.7" stop-color="#659E5A"/>
<stop offset="0.9" stop-color="#3E863D"/>
</linearGradient>
</defs>
</svg>
