<svg width="467" height="412" viewBox="0 0 467 412" fill="none" xmlns="http://www.w3.org/2000/svg">
<path d="M198.739 57.8398H25.1494V213.144H198.739V57.8398Z" fill="#FAFAFA"/>
<path d="M198.741 213.145C198.741 213.145 198.712 212.149 198.697 210.263C198.687 208.357 198.672 205.571 198.652 201.942C198.629 194.65 198.594 183.992 198.55 170.417C198.501 143.282 198.431 104.508 198.347 57.842L198.741 58.235C148.748 58.256 89.0855 58.279 25.1655 58.305H25.1495L25.6135 57.842C25.5935 114.343 25.5745 167.511 25.5575 213.146L25.1495 212.737C76.9355 212.822 120.279 212.894 150.703 212.944C165.925 212.99 177.91 213.027 186.115 213.051C190.202 213.072 193.344 213.088 195.49 213.099C196.54 213.109 197.343 213.117 197.907 213.122C198.452 213.129 198.741 213.145 198.741 213.145C198.741 213.145 198.483 213.161 197.954 213.168C197.4 213.173 196.612 213.181 195.581 213.191C193.453 213.202 190.339 213.218 186.286 213.239C178.101 213.264 166.148 213.301 150.966 213.347C120.478 213.397 77.0435 213.468 25.1495 213.554H24.7415V213.145C24.7245 167.51 24.7055 114.343 24.6855 57.841V57.377H25.1495H25.1655C89.0855 57.403 148.748 57.427 198.741 57.447H199.136V57.841C199.052 104.61 198.982 143.47 198.933 170.665C198.889 184.202 198.855 194.831 198.831 202.102C198.811 205.699 198.796 208.459 198.786 210.348C198.77 212.207 198.741 213.145 198.741 213.145Z" fill="#E0E0E0"/>
<path d="M71.3054 85.8987C82.5753 85.8987 91.7114 85.691 91.7114 85.4347C91.7114 85.1784 82.5753 84.9707 71.3054 84.9707C60.0355 84.9707 50.8994 85.1784 50.8994 85.4347C50.8994 85.691 60.0355 85.8987 71.3054 85.8987Z" fill="#E0E0E0"/>
<path d="M165.264 97.0968C165.264 97.3528 140.162 97.5608 109.205 97.5608C78.2366 97.5608 53.1406 97.3528 53.1406 97.0968C53.1406 96.8408 78.2366 96.6328 109.205 96.6328C140.163 96.6328 165.264 96.8408 165.264 97.0968Z" fill="#E0E0E0"/>
<path d="M58.5103 116.848H51.1973V124.161H58.5103V116.848Z" fill="#E0E0E0"/>
<path d="M76.5122 116.848H69.1992V124.161H76.5122V116.848Z" fill="#E0E0E0"/>
<path d="M94.8472 116.516H87.5342V123.829H94.8472V116.516Z" fill="#E0E0E0"/>
<path d="M112.517 116.848H105.204V124.161H112.517V116.848Z" fill="#E0E0E0"/>
<path d="M130.519 116.848H123.206V124.161H130.519V116.848Z" fill="#E0E0E0"/>
<path d="M148.521 116.848H141.208V124.161H148.521V116.848Z" fill="#E0E0E0"/>
<path d="M166.522 116.848H159.209V124.161H166.522V116.848Z" fill="#EBEBEB"/>
<path d="M58.5103 132.396H51.1973V139.709H58.5103V132.396Z" fill="#EBEBEB"/>
<path d="M76.5122 132.396H69.1992V139.709H76.5122V132.396Z" fill="#E0E0E0"/>
<path d="M94.5142 132.396H87.2012V139.709H94.5142V132.396Z" fill="#EBEBEB"/>
<path d="M112.517 132.396H105.204V139.709H112.517V132.396Z" fill="#E0E0E0"/>
<path d="M130.519 132.396H123.206V139.709H130.519V132.396Z" fill="#E0E0E0"/>
<path d="M148.853 132.064H141.54V139.377H148.853V132.064Z" fill="#E0E0E0"/>
<path d="M166.522 132.396H159.209V139.709H166.522V132.396Z" fill="#E0E0E0"/>
<path d="M58.5103 147.943H51.1973V155.256H58.5103V147.943Z" fill="#E0E0E0"/>
<path d="M76.8443 147.611H69.5312V154.924H76.8443V147.611Z" fill="#E0E0E0"/>
<path d="M94.5142 147.943H87.2012V155.256H94.5142V147.943Z" fill="#E0E0E0"/>
<path d="M112.517 147.943H105.204V155.256H112.517V147.943Z" fill="#EBEBEB"/>
<path d="M130.519 147.943H123.206V155.256H130.519V147.943Z" fill="#E0E0E0"/>
<path d="M148.521 147.943H141.208V155.256H148.521V147.943Z" fill="#E0E0E0"/>
<path d="M166.522 147.943H159.209V155.256H166.522V147.943Z" fill="#E0E0E0"/>
<path d="M58.5103 163.49H51.1973V170.804H58.5103V163.49Z" fill="#E0E0E0"/>
<path d="M76.5122 163.49H69.1992V170.804H76.5122V163.49Z" fill="#E0E0E0"/>
<path d="M94.5142 163.49H87.2012V170.804H94.5142V163.49Z" fill="#E0E0E0"/>
<path d="M112.849 163.16H105.536V170.473H112.849V163.16Z" fill="#E0E0E0"/>
<path d="M130.519 163.49H123.206V170.804H130.519V163.49Z" fill="#E0E0E0"/>
<path d="M148.521 163.49H141.208V170.804H148.521V163.49Z" fill="#EBEBEB"/>
<path d="M166.522 163.49H159.209V170.804H166.522V163.49Z" fill="#E0E0E0"/>
<path d="M58.5103 179.039H51.1973V186.352H58.5103V179.039Z" fill="#E0E0E0"/>
<path d="M76.5122 179.039H69.1992V186.352H76.5122V179.039Z" fill="#EBEBEB"/>
<path d="M94.5142 179.039H87.2012V186.352H94.5142V179.039Z" fill="#E0E0E0"/>
<path d="M112.517 179.039H105.204V186.352H112.517V179.039Z" fill="#E0E0E0"/>
<path d="M130.519 179.039H123.206V186.352H130.519V179.039Z" fill="#E0E0E0"/>
<path d="M148.853 178.707H141.54V186.02H148.853V178.707Z" fill="#E0E0E0"/>
<path d="M166.522 179.039H159.209V186.352H166.522V179.039Z" fill="#E0E0E0"/>
<path d="M394.767 20.8792L383.611 20.9395L383.911 76.4495L395.067 76.3892L394.767 20.8792Z" fill="#E0E0E0"/>
<path d="M315.853 21.0461L286.965 21.1992L287.127 51.8442L316.015 51.6911L315.853 21.0461Z" fill="#EBEBEB"/>
<path d="M344.61 20.8635L315.721 21.0195L315.886 51.6645L344.775 51.5085L344.61 20.8635Z" fill="#F5F5F5"/>
<path d="M287.008 29.6504C306.206 29.8084 325.451 29.6964 344.648 29.3854C345.044 29.3794 345.041 28.7734 344.645 28.7714C325.447 28.6654 306.201 28.7594 287.005 29.1244C286.667 29.1304 286.668 29.6474 287.008 29.6504Z" fill="#E0E0E0"/>
<path d="M321.445 51.1502L268.959 51.4336L269.094 76.4076L321.58 76.1242L321.445 51.1502Z" fill="#EBEBEB"/>
<path d="M373.682 50.8689L321.196 51.1523L321.331 76.1263L373.817 75.8429L373.682 50.8689Z" fill="#F5F5F5"/>
<path d="M268.989 58.3912C303.856 58.7862 338.846 58.4322 373.712 57.8742C374.107 57.8672 374.105 57.2622 373.709 57.2602C338.839 57.0762 303.848 57.0962 268.986 57.8652C268.648 57.8722 268.65 58.3872 268.989 58.3912Z" fill="#E0E0E0"/>
<path d="M452.707 76.418H249.361V85.365H452.707V76.418Z" fill="#E0E0E0"/>
<path d="M290.908 80.7207H282.653V111.249H290.908V80.7207Z" fill="#E0E0E0"/>
<path d="M414.134 80.7207H405.879V111.249H414.134V80.7207Z" fill="#E0E0E0"/>
<path d="M405.652 0.202597L394.497 0.261719L394.902 76.6067L406.057 76.5476L405.652 0.202597Z" fill="#EBEBEB"/>
<path d="M423.085 14.3908L405.751 14.4844L406.085 76.3534L423.419 76.2598L423.085 14.3908Z" fill="#F5F5F5"/>
<path d="M414.294 26.6196C419.081 26.6196 422.961 26.4848 422.961 26.3186C422.961 26.1523 419.081 26.0176 414.294 26.0176C409.507 26.0176 405.627 26.1523 405.627 26.3186C405.627 26.4848 409.507 26.6196 414.294 26.6196Z" fill="#E0E0E0"/>
<path d="M414.294 24.0199C419.081 24.0199 422.961 23.8856 422.961 23.7199C422.961 23.5542 419.081 23.4199 414.294 23.4199C409.507 23.4199 405.627 23.5542 405.627 23.7199C405.627 23.8856 409.507 24.0199 414.294 24.0199Z" fill="#E0E0E0"/>
<path d="M414.294 67.2582C419.081 67.2582 422.961 67.1239 422.961 66.9582C422.961 66.7925 419.081 66.6582 414.294 66.6582C409.507 66.6582 405.627 66.7925 405.627 66.9582C405.627 67.1239 409.507 67.2582 414.294 67.2582Z" fill="#E0E0E0"/>
<path d="M414.294 64.6605C419.081 64.6605 422.961 64.5262 422.961 64.3605C422.961 64.1949 419.081 64.0605 414.294 64.0605C409.507 64.0605 405.627 64.1949 405.627 64.3605C405.627 64.5262 409.507 64.6605 414.294 64.6605Z" fill="#E0E0E0"/>
<path d="M414.574 58.6906C414.741 58.6906 414.875 52.449 414.875 44.7496C414.875 37.0502 414.741 30.8086 414.574 30.8086C414.408 30.8086 414.273 37.0502 414.273 44.7496C414.273 52.449 414.408 58.6906 414.574 58.6906Z" fill="#E0E0E0"/>
<path d="M442.016 29.5918H423.148V76.2898H442.016V29.5918Z" fill="#EBEBEB"/>
<path d="M399.906 16.4276C401.677 16.4276 403.112 14.9923 403.112 13.2216C403.112 11.451 401.677 10.0156 399.906 10.0156C398.136 10.0156 396.7 11.451 396.7 13.2216C396.7 14.9923 398.136 16.4276 399.906 16.4276Z" fill="#E0E0E0"/>
<path d="M400.896 22.0391H398.915V67.4551H400.896V22.0391Z" fill="#E0E0E0"/>
<path d="M428.212 84.0026L425.662 79.8536C404.169 44.8806 365.31 23.7976 324.339 26.3556C319.072 26.6846 313.829 27.3886 308.655 28.4816C271.404 36.3556 238.992 64.1716 225.557 99.7956C217.656 120.747 215.448 144.87 200.454 161.5C180.94 183.144 147.81 183.823 118.682 182.926C89.5536 182.029 56.4016 182.794 36.9826 204.523C24.8206 218.131 20.9556 237.483 21.9366 255.708C24.5336 303.958 42.4556 346.463 85.7556 367.907C129.056 389.35 196.163 391.908 243.553 382.475C309.94 369.26 373.074 332.969 411.022 276.917C448.97 220.865 458.575 144.501 428.212 84.0026Z" fill="#EBEBEB"/>
<path d="M58.2624 311.832C63.4954 309.132 69.6584 308.78 75.4684 309.741C78.5904 310.257 81.8434 311.19 83.9684 313.535C86.0934 315.88 86.4944 320.006 84.0554 322.02C82.6034 323.219 80.5794 323.401 78.6964 323.379C74.1484 323.326 69.1014 322.525 65.4684 325.262C63.3954 326.824 62.0154 329.419 59.5364 330.187C57.1114 330.938 54.3754 329.507 53.0894 327.319C51.8034 325.131 51.7604 322.394 52.3604 319.928C52.3594 319.929 52.9914 314.552 58.2624 311.832Z" fill="#006900"/>
<path d="M46.2733 288.687C49.4733 293.257 55.6923 291.744 58.5763 288.955C61.4603 286.165 62.6793 282.122 63.7883 278.267C66.3233 269.456 68.8793 260.215 66.9943 251.244C66.4313 248.562 65.4283 245.888 63.5433 243.897C61.6583 241.908 58.7603 240.723 56.1103 241.423C52.9743 242.252 51.0253 245.323 49.6163 248.245C45.4753 256.833 43.2833 266.354 43.2513 275.889C43.2363 280.341 43.7613 285.01 46.2733 288.687Z" fill="#006900"/>
<path d="M37.4854 295.246C40.9604 291.123 41.6194 285.108 40.0734 279.942C38.5274 274.776 35.0344 270.381 31.0094 266.794C26.2894 262.587 20.7414 259.314 14.7784 257.217C12.4314 256.392 9.95538 255.74 7.47938 255.977C5.00238 256.213 2.50838 257.48 1.35338 259.683C-0.354622 262.942 1.28338 266.893 3.05438 270.117C6.17538 275.797 9.74338 281.23 13.7154 286.351C16.9104 290.471 20.5704 294.535 25.4414 296.397C30.3114 298.258 35.3704 298.04 37.9514 294.662" fill="#006900"/>
<path d="M46.0562 357.632C46.1162 357.636 46.2132 356.896 46.3452 355.555C46.4922 354.044 46.6772 352.146 46.8972 349.888C47.1612 347.503 47.5102 344.664 48.1722 341.575C48.8332 338.492 49.8662 335.151 51.1942 331.762C52.5692 328.394 54.2452 325.332 56.2042 322.884C58.1492 320.425 60.4122 318.645 62.5382 317.618C64.6582 316.57 66.5592 316.145 67.8722 315.956C69.1972 315.82 69.9392 315.716 69.9402 315.657C69.9402 315.597 69.1972 315.589 67.8362 315.625C66.4872 315.715 64.5082 316.057 62.2732 317.072C60.0322 318.066 57.6322 319.874 55.5912 322.384C53.5342 324.884 51.7962 328.013 50.3972 331.442C49.0462 334.889 48.0282 338.264 47.3972 341.414C46.7682 344.559 46.4802 347.429 46.2922 349.833C46.1122 352.239 46.0442 354.188 46.0112 355.536C45.9822 356.882 45.9982 357.629 46.0562 357.632Z" fill="#263238"/>
<path d="M46.4476 353.27C46.4766 353.269 46.4956 352.937 46.5036 352.306C46.5016 351.582 46.4996 350.67 46.4966 349.55C46.4896 347.159 46.4916 343.698 46.6196 339.425C46.8306 330.877 47.5666 321.679 48.9886 308.71C50.3346 296.515 52.1416 282.323 54.0476 273.097C54.4566 270.997 54.8686 269.109 55.2556 267.456C55.6246 265.798 55.9406 264.369 56.2456 263.213C56.5076 262.125 56.7206 261.238 56.8896 260.534C57.0276 259.919 57.0866 259.592 57.0586 259.584C57.0296 259.576 56.9156 259.887 56.7236 260.487C56.5136 261.18 56.2486 262.054 55.9236 263.128C55.5686 264.274 55.2046 265.693 54.7896 267.344C54.3566 268.99 53.9026 270.874 53.4546 272.97C51.5686 281.33 49.5706 293.016 48.1356 306.016C46.7116 319.012 46.0696 330.845 46.0126 339.413C45.9616 343.697 46.0526 347.165 46.1616 349.559C46.2306 350.678 46.2856 351.589 46.3296 352.313C46.3776 352.942 46.4176 353.272 46.4476 353.27Z" fill="#263238"/>
<path d="M46.5035 330.448C46.5635 330.446 46.5525 329.424 46.4835 327.569C46.3775 325.719 46.1235 323.046 45.6025 319.77C45.0505 316.502 44.2785 312.623 43.0655 308.408C42.5405 306.48 41.3055 301.862 38.3145 294.962C34.3735 285.612 29.0185 277.969 24.3605 273.233C23.2675 271.977 22.0505 271.07 21.0775 270.182C20.5735 269.756 20.1285 269.331 19.6745 268.994C19.2185 268.68 18.7945 268.388 18.4015 268.116C16.8685 267.068 16.0095 266.514 15.9785 266.564C15.8405 266.752 19.4125 268.853 23.9225 273.651C28.4135 278.439 33.6195 286.03 37.5285 295.301C39.7085 300.329 41.2285 304.815 42.3065 308.622C43.5525 312.798 44.3805 316.638 45.0055 319.872C45.5995 323.115 45.9435 325.762 46.1515 327.595C46.3225 329.432 46.4455 330.45 46.5035 330.448Z" fill="#263238"/>
<path d="M24.4443 370.707L26.7313 402.038H66.9813L69.2683 370.707H24.4443Z" fill="#263238"/>
<path d="M74.0706 358.359H20.5566V370.708H74.0706V358.359Z" fill="#263238"/>
<path d="M20.5566 400.84V404.263H23.0706H73.1856V400.84H20.5566Z" fill="#455A64"/>
<path d="M25.5363 410.288L23.0713 404.262H71.2693L68.3943 410.288H25.5363Z" fill="#455A64"/>
<path d="M68.5211 380.949C68.5301 380.956 68.4661 381.053 68.3331 381.236C68.1731 381.448 67.9761 381.711 67.7321 382.034C67.1601 382.765 66.3751 383.77 65.3871 385.035L65.2831 385.168L65.1821 385.029C63.7081 382.99 61.7391 380.267 59.4211 377.061H59.7531C58.0401 379.488 56.1311 382.19 54.0821 385.091L53.9041 385.343L53.7051 385.107C51.6121 382.617 49.3391 379.912 46.9791 377.104L47.3671 377.099C47.2501 377.245 47.1241 377.405 46.9971 377.564C44.9111 380.179 42.8921 382.71 40.9831 385.104L40.7821 385.355L40.5971 385.093C38.5551 382.204 36.6481 379.505 34.9231 377.065L35.2531 377.081C32.4571 380.268 30.0851 382.97 28.2651 385.043L28.1411 385.185L28.0461 385.026C27.1251 383.478 26.3911 382.245 25.8581 381.35C25.6291 380.951 25.4441 380.628 25.2971 380.371C25.1731 380.147 25.1151 380.029 25.1251 380.022C25.1361 380.015 25.2151 380.121 25.3601 380.333C25.5231 380.58 25.7281 380.891 25.9811 381.274C26.5401 382.153 27.3111 383.364 28.2781 384.883L28.0591 384.865C29.8501 382.765 32.1841 380.031 34.9351 376.806L35.1081 376.602L35.2651 376.822C37.0051 379.251 38.9301 381.938 40.9901 384.814L40.6051 384.803C42.5101 382.406 44.5241 379.871 46.6051 377.252C46.7311 377.092 46.8581 376.934 46.9751 376.787L47.1661 376.547L47.3631 376.782C49.7161 379.595 51.9831 382.304 54.0701 384.8L53.6941 384.815C55.7641 381.928 57.6921 379.24 59.4221 376.826L59.5891 376.592L59.7531 376.826C62.0221 380.066 63.9491 382.819 65.3921 384.879L65.1871 384.873C66.2151 383.641 67.0311 382.662 67.6261 381.949C67.8911 381.642 68.1061 381.393 68.2791 381.193C68.4291 381.024 68.5111 380.941 68.5211 380.949Z" fill="#E0E0E0"/>
<path d="M47.3043 370.752C59.7439 370.752 69.8283 370.64 69.8283 370.501C69.8283 370.362 59.7439 370.25 47.3043 370.25C34.8646 370.25 24.7803 370.362 24.7803 370.501C24.7803 370.64 34.8646 370.752 47.3043 370.752Z" fill="#455A64"/>
<path d="M71.8613 404.601C71.8613 404.74 60.9013 404.851 47.3833 404.851C33.8613 404.851 22.9023 404.74 22.9023 404.601C22.9023 404.462 33.8603 404.35 47.3833 404.35C60.9013 404.35 71.8613 404.462 71.8613 404.601Z" fill="#263238"/>
<path d="M455.75 410.855H331.972V293.236C331.972 284.882 338.743 278.111 347.097 278.111H440.623C448.977 278.111 455.749 284.882 455.749 293.236V410.855H455.75Z" fill="#455A64"/>
<path d="M445.343 278.789C445.487 278.789 445.603 308.341 445.603 344.786C445.603 381.244 445.487 410.789 445.343 410.789C445.198 410.789 445.082 381.244 445.082 344.786C445.083 308.34 445.199 278.789 445.343 278.789Z" fill="#263238"/>
<path d="M384.365 134.002C395.706 150.168 402.316 169.611 403.178 189.338C403.76 202.639 401.97 216.813 408.282 228.534C417.337 245.349 436.93 244.778 442.929 262.911C445.537 270.797 440.729 288.153 439.432 296.358C437.958 305.683 443.661 313.514 442.188 322.84C440.837 331.388 434.441 337.489 426.755 341.47C419.919 345.011 413.599 345.105 406.485 342.16C392.932 336.55 381.652 330.627 371.996 319.586C358.439 304.085 354.344 282.622 352.027 262.159C346.921 217.046 347.956 171.242 355.096 126.406" fill="#263238"/>
<path d="M413.348 344.07C413.348 344.07 413.494 344.023 413.785 343.961C414.074 343.892 414.512 343.825 415.066 343.656C416.18 343.36 417.817 342.829 419.749 341.785C421.669 340.745 423.942 339.217 425.935 336.824C426.919 335.632 427.82 334.205 428.353 332.536C428.862 330.866 429.091 328.989 429.199 327.041C429.391 323.121 428.794 318.832 427.903 314.299C427.031 309.762 425.847 304.918 425.563 299.676C425.426 297.064 425.541 294.349 426.128 291.658C426.686 288.961 427.659 286.326 428.671 283.679C429.689 281.033 430.76 278.358 431.535 275.555C432.268 272.758 432.72 269.788 432.228 266.857C431.801 263.92 430.598 261.174 428.983 258.773C427.371 256.359 425.368 254.277 423.312 252.348C419.181 248.493 414.709 245.308 410.889 241.732C403.181 234.633 397.991 226.555 394.71 219.395C393.075 215.803 391.82 212.446 390.985 209.423C390.505 207.929 390.231 206.491 389.887 205.194C389.63 203.879 389.395 202.675 389.183 201.59C388.865 199.406 388.633 197.71 388.57 196.549C388.527 195.989 388.493 195.552 388.468 195.233C388.447 194.936 388.45 194.783 388.45 194.783C388.45 194.783 388.482 194.933 388.52 195.228C388.557 195.546 388.608 195.981 388.673 196.538C388.77 197.694 389.033 199.383 389.382 201.555C389.607 202.634 389.856 203.83 390.128 205.138C390.485 206.428 390.771 207.856 391.263 209.34C392.12 212.343 393.394 215.675 395.042 219.24C398.348 226.344 403.54 234.35 411.212 241.379C415.01 244.919 419.489 248.096 423.658 251.976C425.732 253.917 427.763 256.023 429.41 258.485C431.059 260.932 432.302 263.757 432.74 266.782C433.246 269.805 432.779 272.855 432.032 275.692C431.243 278.535 430.162 281.224 429.143 283.864C428.131 286.505 427.163 289.113 426.612 291.762C426.029 294.403 425.91 297.071 426.039 299.654C426.306 304.836 427.467 309.668 428.323 314.219C429.198 318.767 429.781 323.095 429.562 327.061C429.441 329.04 429.202 330.915 428.665 332.64C428.102 334.356 427.168 335.807 426.155 337.012C424.106 339.427 421.793 340.944 419.841 341.965C417.877 342.99 416.219 343.495 415.089 343.759C413.959 344.027 413.348 344.07 413.348 344.07Z" fill="#455A64"/>
<path d="M227.164 379.802L275.152 357.01C275.152 357.01 293.841 266.265 297.376 259.449C300.909 252.635 315.682 246.746 315.682 246.746L313.207 369.627L308.823 397.972L241.144 404.384L227.164 379.802Z" fill="#00B3B1"/>
<path d="M186.206 401.299C185.941 401.289 184.606 402.125 185.725 404.232C186.844 406.339 194.968 413.306 197.36 410.879C199.752 408.452 196.099 405.49 196.099 405.49L186.206 401.299Z" fill="#FFBE9D"/>
<path d="M196.443 405.585C196.443 405.585 206.255 406.822 210.034 408.259C214.138 409.819 219.135 408.755 222.497 406.476C225.86 404.198 227.821 402.138 227.821 402.138L240.34 401.941C240.34 401.941 246.35 395.712 242.782 386.429C242.159 384.81 241.488 383.529 239.913 381.542C238.427 379.935 236.078 378.631 232.02 377.93L217.147 381.142C217.147 381.142 194.104 379.496 190.009 381.432C190.009 381.432 184.861 384.486 183.267 385.766C182.667 386.248 180.842 392.112 184.59 395.16C184.59 395.16 181.327 397.756 183.094 400.082L183.941 401.115C183.941 401.115 181.747 403.955 182.873 405.191C183.999 406.426 193.859 412.206 197.385 410.828C200.914 409.451 197.996 406.183 196.443 405.585Z" fill="#FFBE9D"/>
<path d="M187.058 390.093C187.07 390.066 187.5 390.233 188.277 390.529C189.054 390.825 190.182 391.245 191.597 391.695C192.304 391.921 193.084 392.15 193.928 392.373C194.768 392.602 195.687 392.783 196.639 393.092C197.579 393.405 198.596 393.849 199.341 394.722C200.047 395.564 200.527 396.822 200.063 398.013C199.837 398.598 199.363 399.043 198.845 399.321C198.319 399.592 197.755 399.721 197.207 399.778C196.102 399.882 195.063 399.743 194.08 399.612C192.115 399.312 190.402 398.786 188.996 398.288C187.587 397.79 186.475 397.318 185.709 396.992C184.944 396.661 184.528 396.463 184.538 396.437C184.549 396.41 184.985 396.559 185.768 396.843C186.552 397.124 187.677 397.553 189.089 398.013C190.498 398.473 192.202 398.964 194.135 399.239C195.099 399.358 196.132 399.484 197.165 399.379C197.68 399.324 198.196 399.2 198.656 398.962C199.105 398.718 199.499 398.343 199.685 397.859C200.077 396.882 199.675 395.744 199.036 394.98C198.383 394.201 197.428 393.759 196.522 393.451C195.604 393.141 194.685 392.947 193.84 392.701C192.994 392.463 192.214 392.216 191.508 391.972C190.096 391.484 188.979 391.02 188.218 390.678C187.456 390.334 187.047 390.118 187.058 390.093Z" fill="#EB996E"/>
<path d="M187.94 383.001C187.952 382.974 188.38 383.141 189.152 383.44C189.925 383.738 191.044 384.168 192.448 384.635C193.851 385.104 195.539 385.611 197.439 386.067C198.376 386.306 199.458 386.498 200.349 387.244C200.785 387.612 201.116 388.154 201.203 388.75C201.297 389.342 201.191 389.952 200.949 390.5C200.455 391.62 199.418 392.337 198.381 392.686C197.331 393.046 196.239 393.071 195.253 392.934C193.267 392.636 191.634 391.924 190.224 391.478C188.875 391.005 187.758 390.615 186.908 390.317C186.128 390.035 185.7 389.865 185.709 389.838C185.718 389.812 186.162 389.929 186.958 390.165C187.818 390.431 188.949 390.78 190.314 391.202C191.735 391.615 193.393 392.297 195.301 392.559C196.252 392.68 197.275 392.646 198.251 392.306C199.213 391.978 200.146 391.315 200.575 390.333C201.028 389.366 200.879 388.178 200.086 387.546C199.323 386.892 198.287 386.676 197.35 386.433C195.441 385.954 193.751 385.414 192.353 384.909C190.954 384.403 189.847 383.93 189.091 383.588C188.335 383.241 187.93 383.024 187.94 383.001Z" fill="#EB996E"/>
<path d="M192.67 385.026C192.551 385.025 192.486 384.123 192.225 383.054C191.972 381.983 191.62 381.15 191.725 381.095C191.817 381.04 192.354 381.828 192.622 382.958C192.897 384.086 192.777 385.033 192.67 385.026Z" fill="#EB996E"/>
<path d="M227.298 385.322L218.55 381.951C218.55 381.951 194.258 370.614 193.848 371.227C193.437 371.841 192.121 371.775 192.409 374.736C192.697 377.698 206.853 383.669 207.3 384.695C207.748 385.721 207.001 390.909 212.229 394.625C217.457 398.341 221.23 398.421 221.23 398.421" fill="#FFBE9D"/>
<path d="M221.23 398.419C221.23 398.426 221.159 398.431 221.022 398.426C220.885 398.419 220.682 398.405 220.417 398.366C219.888 398.292 219.112 398.135 218.146 397.821C217.179 397.509 216.024 397.034 214.755 396.344C213.499 395.641 212.071 394.804 210.727 393.551C209.381 392.313 208.28 390.528 207.745 388.438C207.464 387.399 207.365 386.271 207.228 385.171C207.21 385.031 207.18 384.906 207.142 384.795C207.113 384.719 207.023 384.649 206.913 384.562C206.696 384.399 206.449 384.249 206.203 384.102C205.706 383.809 205.188 383.53 204.662 383.248C202.555 382.125 200.313 380.99 198.051 379.69C196.92 379.041 195.783 378.35 194.678 377.563C194.131 377.163 193.588 376.742 193.095 376.242C192.846 375.996 192.62 375.716 192.428 375.398C192.344 375.228 192.258 375.059 192.226 374.853C192.183 374.656 192.193 374.496 192.174 374.315C192.146 373.617 192.169 372.867 192.549 372.202C192.735 371.87 193.046 371.621 193.32 371.429C193.459 371.33 193.581 371.24 193.655 371.139C193.681 371.115 193.634 371.148 193.739 371.055C193.851 370.986 193.872 371.009 193.91 371.001C193.996 370.995 194.022 371.01 194.081 371.014C194.174 371.033 194.262 371.052 194.346 371.077C195.662 371.482 196.866 372.012 198.075 372.509C200.476 373.521 202.769 374.543 204.951 375.524C209.312 377.489 213.219 379.302 216.494 380.837C217.314 381.213 218.089 381.606 218.83 381.92C219.586 382.217 220.301 382.498 220.97 382.761C222.297 383.286 223.444 383.741 224.394 384.117C225.308 384.487 226.029 384.779 226.553 384.99C226.78 385.087 226.963 385.164 227.111 385.227C227.236 385.283 227.299 385.314 227.296 385.321C227.294 385.328 227.226 385.308 227.096 385.266C226.944 385.213 226.756 385.148 226.523 385.067C225.993 384.873 225.262 384.605 224.335 384.265C223.377 383.907 222.22 383.473 220.882 382.972C220.208 382.717 219.489 382.446 218.728 382.159C217.966 381.846 217.199 381.469 216.372 381.099C213.068 379.606 209.147 377.833 204.796 375.868C202.611 374.898 200.316 373.883 197.919 372.879C196.721 372.389 195.493 371.855 194.238 371.471C194.16 371.449 194.084 371.431 194.012 371.417C193.988 371.415 193.931 371.403 193.932 371.409C193.928 371.394 193.933 371.438 193.919 371.376C193.892 371.301 193.924 371.312 193.903 371.276C193.897 371.264 193.887 371.255 193.875 371.247C194.15 371.434 193.944 371.308 194.003 371.353L193.978 371.384C193.849 371.555 193.691 371.661 193.556 371.76C193.281 371.955 193.048 372.145 192.897 372.412C192.59 372.941 192.548 373.632 192.58 374.296C192.601 374.654 192.617 374.93 192.782 375.199C192.946 375.468 193.149 375.724 193.385 375.957C193.849 376.428 194.378 376.841 194.914 377.233C195.997 378.007 197.125 378.694 198.248 379.342C200.496 380.64 202.73 381.78 204.838 382.914C205.364 383.2 205.883 383.483 206.389 383.785C206.641 383.937 206.89 384.088 207.132 384.271C207.242 384.361 207.396 384.47 207.475 384.66C207.531 384.819 207.563 384.971 207.58 385.113C207.716 386.259 207.802 387.333 208.07 388.353C208.577 390.388 209.624 392.121 210.924 393.342C212.216 394.572 213.629 395.429 214.861 396.143C216.108 396.844 217.242 397.336 218.192 397.668C219.142 398.002 219.905 398.183 220.426 398.283C220.687 398.334 220.887 398.362 221.022 398.382C221.157 398.402 221.23 398.413 221.23 398.419Z" fill="#EB996E"/>
<path d="M194.44 399.561C194.447 399.539 194.788 399.604 195.37 399.832C195.951 400.06 196.774 400.463 197.661 401.156C198.099 401.51 198.563 401.912 198.985 402.44C199.387 402.958 199.797 403.656 199.691 404.485C199.586 405.32 198.873 405.978 198.072 406.235C197.245 406.513 196.349 406.381 195.527 406.155C192.272 405.164 189.439 403.967 187.473 402.922C186.491 402.4 185.723 401.93 185.208 401.582C184.691 401.236 184.422 401.022 184.437 401.001C184.454 400.975 184.752 401.145 185.291 401.446C185.829 401.75 186.613 402.178 187.604 402.663C189.581 403.634 192.423 404.782 195.635 405.76C196.425 405.981 197.243 406.089 197.945 405.855C198.648 405.632 199.229 405.084 199.317 404.432C199.417 403.776 199.086 403.141 198.715 402.648C198.336 402.148 197.889 401.736 197.478 401.381C195.783 399.982 194.4 399.64 194.44 399.561Z" fill="#EB996E"/>
<g opacity="0.3">
<path opacity="0.3" d="M308.477 398.001C300.618 371.492 293.686 337.347 285.826 310.838C282.954 335.314 286.55 367.622 291.055 391.85C291.583 394.689 291.826 397.472 294.028 399.34L308.477 398.001Z" fill="black"/>
</g>
<path d="M295.607 379.801C295.502 379.826 295.169 378.071 294.104 375.424C293.582 374.097 292.818 372.577 291.849 370.964C290.848 369.371 289.623 367.697 288.155 366.097C286.667 364.513 285.089 363.167 283.573 362.051C282.037 360.964 280.577 360.09 279.293 359.472C276.732 358.212 275.007 357.752 275.04 357.649C275.05 357.614 275.481 357.718 276.257 357.937C276.648 358.04 277.12 358.182 277.652 358.398C278.185 358.607 278.807 358.813 279.452 359.139C280.774 359.724 282.276 360.577 283.852 361.66C285.408 362.772 287.024 364.132 288.538 365.743C290.032 367.371 291.267 369.084 292.261 370.717C293.224 372.369 293.964 373.93 294.449 375.291C294.727 375.958 294.887 376.595 295.055 377.142C295.231 377.688 295.337 378.169 295.411 378.567C295.571 379.356 295.642 379.794 295.607 379.801Z" fill="#263238"/>
<path d="M310.594 245.509C310.594 245.509 285.455 301.66 285.455 311.969C285.455 322.279 304.291 393.906 304.291 393.906C304.112 396.749 303.379 411.025 303.379 411.025L408.969 411.386L410.576 388.689L402.335 367.059L410.569 305.914C410.569 305.914 416.11 270.412 416.603 260.483C417.219 248.059 375.138 233.66 376.285 231.94L369.018 222.213L327.384 256.017L319.159 232.258L309.303 241.574L310.594 245.509Z" fill="#00B3B1"/>
<path d="M379.741 260.448C368.314 279.785 347.397 315.024 347.397 315.024L309.917 357.757C309.917 357.757 307.466 379.475 312.369 386.13C317.273 392.785 325.68 397.339 325.68 397.339C325.68 397.339 335.576 397.339 348.142 386.83C360.708 376.322 395.386 332.888 395.386 332.888L407.295 318.527C407.295 318.527 421.49 283.643 418.841 265.89C417.819 259.045 414.905 256.198 411.016 253.059C401.245 245.174 386.127 249.639 379.741 260.448Z" fill="#00B3B1"/>
<path d="M411.696 306.402C411.704 306.406 411.645 306.54 411.523 306.798C411.387 307.076 411.204 307.453 410.968 307.937C410.47 308.933 409.708 310.389 408.666 312.23C406.598 315.92 403.384 321.135 399.177 327.419C397.072 330.56 394.716 333.967 392.134 337.586C389.576 341.228 386.601 344.937 384.179 349.297C381.695 353.616 379.56 358.418 376.907 363.183C374.254 367.944 371.123 372.672 367.382 377.092C363.633 381.499 359.393 385.343 354.756 388.252C350.137 391.185 345.098 393.081 340.139 393.913C335.18 394.77 330.292 394.491 325.976 393.313C323.809 392.744 321.809 391.871 319.988 390.883C318.159 389.904 316.495 388.784 315.052 387.542C313.594 386.321 312.339 384.993 311.33 383.606C310.28 382.247 309.512 380.813 308.868 379.449C307.638 376.682 307.12 374.105 306.853 372.007C306.64 369.897 306.628 368.248 306.682 367.136C306.713 366.599 306.738 366.18 306.755 365.871C306.775 365.586 306.789 365.44 306.798 365.441C306.807 365.441 306.811 365.587 306.809 365.874C306.803 366.183 306.796 366.602 306.788 367.139C306.767 368.248 306.812 369.89 307.055 371.983C307.35 374.063 307.893 376.609 309.134 379.329C309.781 380.67 310.551 382.077 311.595 383.409C312.599 384.767 313.844 386.066 315.289 387.262C316.718 388.477 318.365 389.573 320.178 390.531C321.984 391.497 323.951 392.345 326.09 392.897C330.346 394.039 335.165 394.299 340.06 393.44C344.955 392.605 349.92 390.726 354.485 387.821C359.066 384.938 363.264 381.13 366.986 376.756C370.699 372.369 373.818 367.666 376.462 362.936C379.108 358.202 381.253 353.401 383.765 349.059C386.218 344.672 389.223 340.952 391.786 337.336C394.381 333.731 396.752 330.339 398.874 327.214C403.116 320.962 406.374 315.784 408.493 312.129C409.56 310.307 410.35 308.868 410.877 307.889C411.132 307.416 411.331 307.047 411.478 306.775C411.613 306.524 411.688 306.397 411.696 306.402Z" fill="#263238"/>
<path d="M308.041 355.827C308.086 355.902 307.508 356.228 306.819 356.996C306.133 357.746 305.37 359.016 305.223 360.563C305.083 362.111 305.602 363.499 306.138 364.363C306.674 365.243 307.183 365.67 307.124 365.735C307.095 365.782 306.485 365.45 305.832 364.567C305.183 363.706 304.551 362.216 304.704 360.514C304.865 358.814 305.759 357.465 306.555 356.738C307.36 355.991 308.02 355.776 308.041 355.827Z" fill="#263238"/>
<path d="M314.934 367.173C314.941 367.156 315.144 367.203 315.521 367.308C315.711 367.357 315.941 367.436 316.219 367.499C316.509 367.553 316.832 367.611 317.188 367.677C318.647 367.915 320.838 367.888 323.37 367.103C325.887 366.297 328.703 364.748 331.327 362.425C333.955 360.104 336.317 357.008 338.785 353.771C341.244 350.524 343.727 347.47 346.469 345.181C347.828 344.039 349.164 343.028 350.275 341.94C351.386 340.863 352.278 339.694 352.776 338.495C353.715 336.032 353.085 333.72 352.2 332.595C351.276 331.43 350.346 331.316 350.392 331.245C350.397 331.228 350.597 331.279 350.975 331.412C351.33 331.583 351.868 331.873 352.358 332.468C353.337 333.617 354.064 336.008 353.12 338.629C352.611 339.913 351.704 341.128 350.579 342.248C349.455 343.374 348.117 344.407 346.781 345.547C344.1 347.819 341.659 350.842 339.2 354.088C336.732 357.323 334.343 360.438 331.644 362.787C328.956 365.13 326.064 366.678 323.478 367.455C320.876 368.213 318.629 368.182 317.156 367.878C316.799 367.794 316.473 367.719 316.181 367.65C315.904 367.569 315.676 367.473 315.49 367.409C315.119 367.27 314.928 367.19 314.934 367.173Z" fill="#263238"/>
<path d="M384.826 254.508C384.84 254.519 384.695 254.727 384.406 255.112C384.083 255.533 383.657 256.087 383.126 256.777C381.986 258.2 380.416 260.321 378.504 262.96C374.716 268.262 369.854 275.855 365.167 284.63C360.453 293.393 356.548 301.521 353.562 307.323C352.077 310.228 350.856 312.571 349.976 314.17C349.553 314.933 349.215 315.544 348.957 316.009C348.72 316.427 348.587 316.642 348.571 316.633C348.554 316.625 348.656 316.393 348.864 315.96C349.099 315.483 349.409 314.857 349.796 314.076C350.633 312.39 351.801 310.041 353.233 307.158C356.133 301.316 359.986 293.162 364.71 284.383C369.405 275.591 374.334 268.002 378.206 262.744C380.161 260.127 381.779 258.036 382.969 256.65C383.532 255.984 383.984 255.451 384.326 255.045C384.64 254.681 384.812 254.497 384.826 254.508Z" fill="#263238"/>
<g opacity="0.3">
<path opacity="0.3" d="M306.798 365.443C311.673 368.086 317.025 367.805 322.467 366.736C327.908 365.668 332.947 362.653 336.462 358.363C335.516 363.114 333.481 367.759 330.015 371.142C326.548 374.527 321.531 376.496 316.766 375.622C312 374.751 307.192 370.271 306.798 365.443Z" fill="black"/>
</g>
<g opacity="0.3">
<path opacity="0.3" d="M352.902 336.586C355.967 341.283 357.062 347.224 355.872 352.705C360.001 346.383 360.971 338.379 359.859 330.909C358.747 323.439 355.714 316.396 352.334 309.643C352.334 309.643 348.605 315.937 348.571 316.632C348.39 320.267 349.728 327.111 350.431 330.682C352.308 332.452 353.196 335.209 352.703 337.742" fill="black"/>
</g>
<g opacity="0.3">
<path opacity="0.3" d="M323.323 391.604C333.261 399.349 348.008 399.715 358.881 393.35C369.354 387.22 375.799 376.184 381.784 365.628C391.048 349.287 402.351 329.081 408.97 311.502C408.97 311.502 390.417 336.814 384.826 347.724C380.607 355.955 377.37 361.38 372.175 369.033C361.735 384.408 342.829 393.617 324.287 392.359" fill="black"/>
</g>
<path d="M303.379 411.026C303.368 411.025 303.362 410.919 303.363 410.713C303.367 410.469 303.373 410.169 303.38 409.801C303.41 408.951 303.452 407.791 303.505 406.336C303.645 403.294 303.84 399.028 304.075 393.898L304.084 393.969C302.287 387.971 300.187 380.695 298.014 372.834C295.132 362.416 292.701 352.936 291.065 346.044C290.249 342.598 289.612 339.804 289.212 337.863C289.023 336.93 288.871 336.186 288.757 335.628C288.658 335.116 288.615 334.846 288.633 334.842C288.651 334.838 288.729 335.101 288.86 335.606C288.998 336.159 289.18 336.895 289.411 337.819C289.898 339.793 290.583 342.56 291.423 345.957C293.15 352.822 295.636 362.282 298.517 372.696C300.689 380.553 302.757 387.837 304.498 393.846L304.509 393.884L304.507 393.917C304.196 399.046 303.938 403.309 303.753 406.35C303.651 407.802 303.569 408.96 303.51 409.809C303.478 410.175 303.451 410.474 303.43 410.717C303.408 410.921 303.391 411.026 303.379 411.026Z" fill="#263238"/>
<path d="M409.014 252.456C408.984 252.536 407.934 252.164 406.2 251.734C404.467 251.301 402.029 250.866 399.308 250.781C396.585 250.703 394.125 250.992 392.37 251.32C390.612 251.645 389.542 251.954 389.516 251.873C389.505 251.839 389.762 251.727 390.238 251.556C390.712 251.378 391.414 251.171 392.294 250.96C394.052 250.535 396.552 250.182 399.323 250.261C402.093 250.347 404.566 250.85 406.296 251.379C407.161 251.642 407.851 251.891 408.313 252.097C408.778 252.296 409.028 252.422 409.014 252.456Z" fill="#263238"/>
<path d="M375.568 234.02C375.584 234.03 375.492 234.208 375.301 234.539C375.077 234.916 374.796 235.391 374.45 235.973C373.699 237.211 372.585 238.986 371.176 241.158C368.346 245.493 364.3 251.398 359.513 257.686C355.661 262.753 351.931 267.3 348.874 270.863L348.66 271.114L348.524 270.817C347.073 267.632 345.871 264.996 344.999 263.083C344.61 262.2 344.297 261.485 344.054 260.935C343.844 260.438 343.741 260.17 343.761 260.162C343.781 260.154 343.92 260.402 344.167 260.882C344.436 261.421 344.784 262.119 345.215 262.984C346.127 264.878 347.385 267.488 348.904 270.641L348.554 270.594C351.557 266.994 355.252 262.432 359.097 257.372C363.876 251.095 367.963 245.233 370.868 240.955C372.278 238.851 373.433 237.127 374.278 235.866C374.657 235.305 374.966 234.848 375.212 234.485C375.431 234.17 375.553 234.01 375.568 234.02Z" fill="#263238"/>
<path d="M400.906 383.673C400.198 390.059 399.74 395.25 399.882 395.265C400.025 395.281 400.715 390.117 401.423 383.73C402.131 377.343 402.589 372.153 402.447 372.137C402.304 372.122 401.614 377.286 400.906 383.673Z" fill="#263238"/>
<path d="M328.709 402.604C328.194 397.777 327.661 393.876 327.518 393.891C327.375 393.906 327.677 397.832 328.192 402.66C328.707 407.487 329.241 411.388 329.384 411.373C329.526 411.358 329.225 407.432 328.709 402.604Z" fill="#263238"/>
<path d="M380.91 279.691C380.779 278.864 379.635 278.41 378.972 278.92L378.905 278.976C378.281 279.535 378.517 280.743 379.306 281.024C380.093 281.304 381.041 280.517 380.91 279.691Z" fill="white"/>
<path d="M370.482 254.276C370.35 253.45 369.206 252.995 368.543 253.506L368.477 253.562C367.853 254.12 368.089 255.328 368.877 255.609C369.666 255.89 370.613 255.103 370.482 254.276Z" fill="white"/>
<path d="M346.552 274.742C346.421 273.915 345.277 273.461 344.614 273.971L344.547 274.027C343.923 274.585 344.16 275.794 344.948 276.075C345.737 276.355 346.684 275.568 346.552 274.742Z" fill="white"/>
<path d="M320.684 264.464C320.553 263.637 319.409 263.183 318.746 263.693L318.679 263.749C318.055 264.307 318.292 265.516 319.08 265.796C319.869 266.078 320.816 265.291 320.684 264.464Z" fill="white"/>
<path d="M316.109 254.334C315.978 253.507 314.834 253.052 314.171 253.563L314.104 253.619C313.48 254.177 313.717 255.386 314.505 255.666C315.293 255.948 316.241 255.161 316.109 254.334Z" fill="white"/>
<path d="M318.095 242.628C317.964 241.802 316.819 241.347 316.157 241.858L316.09 241.914C315.466 242.472 315.702 243.681 316.491 243.961C317.279 244.243 318.227 243.456 318.095 242.628Z" fill="white"/>
<path d="M303.769 258.728C303.638 257.901 302.494 257.447 301.831 257.957L301.764 258.013C301.14 258.571 301.377 259.78 302.165 260.061C302.954 260.341 303.901 259.554 303.769 258.728Z" fill="white"/>
<path d="M336.956 263.372C336.824 262.546 335.68 262.091 335.018 262.602L334.951 262.658C334.327 263.216 334.563 264.424 335.351 264.705C336.139 264.986 337.086 264.199 336.956 263.372Z" fill="white"/>
<path d="M308.859 284.238C308.728 283.411 307.584 282.957 306.921 283.467L306.854 283.523C306.23 284.081 306.466 285.29 307.255 285.571C308.042 285.851 308.991 285.064 308.859 284.238Z" fill="white"/>
<path d="M283.142 344.259C283.01 343.433 281.866 342.978 281.203 343.489L281.137 343.545C280.512 344.103 280.749 345.312 281.538 345.592C282.326 345.874 283.273 345.086 283.142 344.259Z" fill="white"/>
<path d="M292.317 309.643C292.186 308.816 291.042 308.361 290.379 308.872L290.312 308.928C289.688 309.486 289.924 310.695 290.713 310.975C291.5 311.256 292.448 310.469 292.317 309.643Z" fill="white"/>
<path d="M359.956 248.856C359.824 248.03 358.68 247.575 358.017 248.086L357.951 248.142C357.326 248.7 357.563 249.909 358.351 250.189C359.139 250.47 360.086 249.683 359.956 248.856Z" fill="white"/>
<path d="M392.236 317.786C392.104 316.96 390.96 316.505 390.298 317.016L390.231 317.072C389.606 317.63 389.843 318.839 390.631 319.119C391.419 319.4 392.367 318.613 392.236 317.786Z" fill="white"/>
<path d="M404.814 258.468C404.682 257.641 403.538 257.187 402.875 257.697L402.809 257.754C402.184 258.312 402.422 259.52 403.21 259.801C403.999 260.082 404.945 259.294 404.814 258.468Z" fill="white"/>
<path d="M399.875 297.314C399.743 296.487 398.599 296.033 397.936 296.543L397.87 296.6C397.245 297.158 397.482 298.366 398.27 298.647C399.059 298.927 400.006 298.14 399.875 297.314Z" fill="white"/>
<path d="M371.668 325.362C371.537 324.536 370.394 324.081 369.731 324.592L369.663 324.648C369.039 325.206 369.275 326.414 370.064 326.695C370.852 326.975 371.8 326.189 371.668 325.362Z" fill="white"/>
<path d="M372.856 302.013C372.724 301.186 371.58 300.732 370.917 301.242L370.851 301.298C370.226 301.856 370.463 303.065 371.251 303.346C372.04 303.626 372.987 302.839 372.856 302.013Z" fill="white"/>
<path d="M389.874 258.669C389.743 257.843 388.599 257.388 387.936 257.899L387.869 257.955C387.245 258.513 387.482 259.722 388.27 260.002C389.058 260.284 390.005 259.497 389.874 258.669Z" fill="white"/>
<path d="M366.964 236.049C366.833 235.222 365.689 234.767 365.026 235.278L364.959 235.334C364.335 235.892 364.572 237.101 365.36 237.381C366.149 237.663 367.096 236.876 366.964 236.049Z" fill="white"/>
<path d="M366.133 272.517C366.002 271.691 364.858 271.236 364.195 271.747L364.128 271.803C363.504 272.361 363.741 273.569 364.529 273.85C365.317 274.131 366.265 273.344 366.133 272.517Z" fill="white"/>
<path d="M336.887 383.767C336.756 382.941 335.611 382.486 334.949 382.997L334.882 383.053C334.258 383.611 334.494 384.82 335.283 385.1C336.071 385.381 337.018 384.594 336.887 383.767Z" fill="white"/>
<path d="M303.339 365.472C303.208 364.646 302.063 364.191 301.401 364.702L301.334 364.758C300.71 365.316 300.946 366.524 301.735 366.805C302.523 367.085 303.47 366.298 303.339 365.472Z" fill="white"/>
<path d="M276.213 374.439C276.081 373.612 274.937 373.158 274.274 373.668L274.208 373.724C273.583 374.282 273.82 375.491 274.608 375.771C275.397 376.052 276.344 375.265 276.213 374.439Z" fill="white"/>
<path d="M273.31 389.888C273.178 389.062 272.034 388.607 271.372 389.118L271.305 389.174C270.681 389.732 270.917 390.94 271.706 391.221C272.494 391.501 273.441 390.714 273.31 389.888Z" fill="white"/>
<path d="M298.743 395.064C298.611 394.237 297.467 393.783 296.804 394.293L296.738 394.349C296.113 394.908 296.35 396.116 297.138 396.397C297.926 396.677 298.874 395.89 298.743 395.064Z" fill="white"/>
<path d="M290.239 360.464C290.108 359.637 288.964 359.183 288.301 359.693L288.234 359.75C287.61 360.308 287.847 361.516 288.635 361.797C289.423 362.078 290.371 361.292 290.239 360.464Z" fill="white"/>
<path d="M321.442 369.258C321.31 368.431 320.166 367.976 319.503 368.487L319.437 368.543C318.812 369.101 319.049 370.31 319.837 370.59C320.625 370.872 321.573 370.085 321.442 369.258Z" fill="white"/>
<path d="M395.615 360.408C395.483 359.581 394.339 359.126 393.677 359.637L393.61 359.693C392.986 360.251 393.222 361.46 394.011 361.74C394.798 362.021 395.746 361.234 395.615 360.408Z" fill="white"/>
<path d="M349.72 404.384C349.589 403.557 348.445 403.103 347.782 403.613L347.715 403.669C347.091 404.227 347.328 405.436 348.116 405.716C348.905 405.998 349.852 405.21 349.72 404.384Z" fill="white"/>
<path d="M369.294 379.903C369.163 379.077 368.019 378.622 367.356 379.133L367.289 379.189C366.665 379.747 366.901 380.956 367.69 381.236C368.478 381.517 369.426 380.73 369.294 379.903Z" fill="white"/>
<path d="M380.921 399.814C380.789 398.988 379.645 398.532 378.982 399.043L378.916 399.099C378.291 399.657 378.528 400.866 379.316 401.146C380.105 401.427 381.052 400.641 380.921 399.814Z" fill="white"/>
<path d="M348.571 295.55C348.44 294.724 347.295 294.269 346.633 294.779L346.566 294.836C345.942 295.394 346.178 296.602 346.967 296.883C347.754 297.164 348.702 296.377 348.571 295.55Z" fill="white"/>
<path d="M374.895 346.377C374.764 345.55 373.62 345.096 372.957 345.606L372.89 345.662C372.266 346.22 372.502 347.429 373.291 347.71C374.079 347.991 375.026 347.204 374.895 346.377Z" fill="white"/>
<path d="M366.359 365.628C366.228 364.802 365.084 364.347 364.421 364.858L364.354 364.914C363.73 365.472 363.967 366.681 364.755 366.961C365.543 367.243 366.491 366.456 366.359 365.628Z" fill="white"/>
<path d="M394.427 381.091C394.296 380.264 393.152 379.81 392.489 380.32L392.422 380.377C391.798 380.934 392.035 382.143 392.823 382.424C393.612 382.705 394.559 381.918 394.427 381.091Z" fill="white"/>
<path d="M317.62 403.418C317.489 402.591 316.345 402.137 315.682 402.647L315.615 402.703C314.991 403.261 315.228 404.47 316.016 404.751C316.803 405.031 317.751 404.244 317.62 403.418Z" fill="white"/>
<path d="M253.617 397.575C253.486 396.749 252.342 396.294 251.679 396.805L251.612 396.861C250.988 397.419 251.225 398.628 252.013 398.908C252.801 399.189 253.749 398.402 253.617 397.575Z" fill="white"/>
<path d="M309.98 387.063C309.849 386.237 308.705 385.782 308.042 386.293L307.975 386.349C307.351 386.907 307.588 388.115 308.376 388.396C309.164 388.676 310.112 387.89 309.98 387.063Z" fill="white"/>
<path d="M255.991 375.626C255.86 374.8 254.716 374.345 254.053 374.856L253.986 374.912C253.362 375.47 253.599 376.679 254.387 376.959C255.175 377.241 256.123 376.454 255.991 375.626Z" fill="white"/>
<path d="M346.197 339.332C346.066 338.505 344.921 338.051 344.259 338.561L344.192 338.617C343.568 339.175 343.804 340.384 344.593 340.665C345.38 340.945 346.328 340.158 346.197 339.332Z" fill="white"/>
<path d="M327.319 284.238C327.187 283.411 326.043 282.957 325.38 283.467L325.314 283.523C324.689 284.081 324.926 285.29 325.714 285.571C326.502 285.851 327.45 285.064 327.319 284.238Z" fill="white"/>
<path d="M322.602 332.015C322.471 331.189 321.327 330.734 320.664 331.245L320.597 331.301C319.973 331.859 320.209 333.067 320.998 333.348C321.786 333.628 322.734 332.842 322.602 332.015Z" fill="white"/>
<path d="M314.921 316.429C314.789 315.602 313.645 315.148 312.983 315.658L312.916 315.715C312.292 316.272 312.528 317.481 313.317 317.762C314.105 318.042 315.052 317.256 314.921 316.429Z" fill="white"/>
<path d="M348.887 365.414C348.756 364.587 347.612 364.132 346.949 364.643L346.882 364.699C346.258 365.257 346.495 366.466 347.283 366.746C348.072 367.027 349.019 366.24 348.887 365.414Z" fill="white"/>
<path d="M324.945 355.802C324.813 354.976 323.669 354.521 323.007 355.032L322.94 355.088C322.316 355.646 322.552 356.855 323.341 357.135C324.128 357.417 325.076 356.629 324.945 355.802Z" fill="white"/>
<path d="M335.194 303.048C335.063 302.222 333.919 301.767 333.256 302.278L333.189 302.334C332.565 302.892 332.801 304.101 333.59 304.381C334.377 304.663 335.326 303.876 335.194 303.048Z" fill="white"/>
<path d="M298.743 340.404C298.611 339.577 297.467 339.123 296.804 339.633L296.738 339.689C296.113 340.247 296.35 341.456 297.138 341.736C297.926 342.017 298.874 341.23 298.743 340.404Z" fill="white"/>
<path d="M355.005 323.257C354.874 322.43 353.729 321.976 353.067 322.486L353 322.543C352.376 323.101 352.612 324.31 353.401 324.59C354.189 324.871 355.136 324.084 355.005 323.257Z" fill="white"/>
<path d="M407.188 278.501C407.056 277.675 405.912 277.22 405.249 277.731L405.184 277.787C404.559 278.345 404.796 279.553 405.584 279.834C406.373 280.116 407.319 279.329 407.188 278.501Z" fill="white"/>
<path d="M386.001 244.612C385.869 243.786 384.725 243.331 384.063 243.842L383.996 243.898C383.372 244.456 383.608 245.665 384.397 245.945C385.185 246.226 386.132 245.439 386.001 244.612Z" fill="white"/>
<path d="M344.937 248.856C344.805 248.03 343.661 247.575 342.998 248.086L342.932 248.142C342.307 248.7 342.544 249.909 343.332 250.189C344.121 250.47 345.068 249.683 344.937 248.856Z" fill="white"/>
<path d="M303.051 127.209C295.175 132.221 292.031 142.723 293.533 148.929C294.29 152.057 295.71 155.205 295.09 158.363C294.555 161.092 292.593 163.275 291.124 165.637C286.227 173.514 287.094 184.538 293.163 191.553C299.232 198.567 310.017 201.01 318.517 197.296" fill="#263238"/>
<path d="M298.391 168.196C279.231 126.055 324.805 104.885 349.673 111.908C373.044 118.509 383.012 130.14 386.858 145.771C390.706 161.409 390.521 178.345 384.393 193.239C381.371 200.582 375.928 208.044 368.04 208.961" fill="#263238"/>
<path d="M320.837 271.109C320.507 250.975 320.273 223.318 320.266 223.432C320.266 223.432 302.959 220.559 299.373 197.979C297.59 186.75 298.154 168.338 299.102 153.288C299.956 139.742 308.931 123.121 322.428 124.549L364.575 135.201C368.676 135.635 371.763 139.134 371.68 143.257L368.934 230.435" fill="#FFBE9D"/>
<path d="M306.639 167.076C306.568 168.596 307.795 169.909 309.381 170.013C310.963 170.117 312.307 168.972 312.378 167.452C312.449 165.933 311.222 164.618 309.64 164.514C308.055 164.41 306.711 165.557 306.639 167.076Z" fill="#263238"/>
<path d="M336.559 167.077C336.488 168.597 337.715 169.91 339.301 170.014C340.883 170.118 342.227 168.973 342.298 167.454C342.369 165.935 341.143 164.62 339.56 164.516C337.975 164.411 336.631 165.558 336.559 167.077Z" fill="#263238"/>
<path d="M303.523 161.815C303.869 162.205 306.116 160.654 309.23 160.767C312.342 160.834 314.575 162.512 314.925 162.142C315.097 161.979 314.753 161.285 313.782 160.528C312.827 159.774 311.178 159.016 309.238 158.96C307.298 158.906 305.642 159.566 304.68 160.266C303.699 160.969 303.351 161.641 303.523 161.815Z" fill="#263238"/>
<path d="M333.096 162.561C333.458 162.937 335.647 161.304 338.761 161.299C341.873 161.248 344.167 162.841 344.504 162.458C344.668 162.288 344.304 161.608 343.301 160.888C342.318 160.17 340.643 159.475 338.701 159.492C336.761 159.512 335.131 160.234 334.195 160.969C333.244 161.708 332.92 162.393 333.096 162.561Z" fill="#263238"/>
<path d="M322.418 186.557C322.433 186.38 320.495 186.045 317.356 185.643C316.56 185.561 315.807 185.403 315.673 184.86C315.485 184.284 315.819 183.427 316.204 182.501C316.952 180.576 317.735 178.558 318.558 176.442C321.826 167.815 324.191 160.721 323.842 160.592C323.494 160.464 320.562 167.352 317.294 175.979C316.508 178.106 315.755 180.134 315.04 182.074C314.738 182.978 314.221 184.004 314.627 185.197C314.841 185.792 315.426 186.223 315.936 186.361C316.446 186.517 316.894 186.525 317.288 186.549C320.447 186.72 322.407 186.734 322.418 186.557Z" fill="#263238"/>
<path d="M320.267 223.431C320.267 223.431 335.457 224.41 350.507 215.365C350.507 215.365 342.866 231.074 320.267 228.962V223.431Z" fill="#EB996E"/>
<path d="M332.327 158.129C332.635 158.976 335.746 158.574 339.401 159.015C343.067 159.383 346.014 160.453 346.5 159.693C346.717 159.329 346.202 158.532 345.011 157.712C343.829 156.893 341.944 156.115 339.749 155.87C337.555 155.63 335.544 155.979 334.213 156.52C332.871 157.062 332.195 157.727 332.327 158.129Z" fill="#263238"/>
<path d="M304.242 153.985C304.791 154.693 306.938 153.959 309.519 153.924C312.099 153.799 314.286 154.4 314.79 153.659C315.011 153.3 314.666 152.591 313.711 151.921C312.77 151.253 311.195 150.708 309.421 150.761C307.648 150.817 306.111 151.459 305.213 152.184C304.3 152.911 304 153.64 304.242 153.985Z" fill="#263238"/>
<path d="M367.81 172.983C368.14 172.823 379.896 167.624 380.035 181.143C380.173 194.662 366.571 192.012 366.544 191.624C366.516 191.236 367.81 172.983 367.81 172.983Z" fill="#FFBE9D"/>
<path d="M370.623 186.46C370.682 186.416 370.86 186.623 371.26 186.801C371.65 186.974 372.319 187.091 373.021 186.82C374.444 186.281 375.624 184.001 375.664 181.564C375.686 180.333 375.417 179.164 374.971 178.199C374.548 177.214 373.902 176.53 373.181 176.409C372.464 176.251 371.959 176.686 371.798 177.069C371.62 177.448 371.709 177.718 371.638 177.741C371.601 177.776 371.346 177.518 371.449 176.958C371.502 176.689 371.657 176.369 371.972 176.105C372.293 175.837 372.769 175.699 373.271 175.748C374.314 175.81 375.262 176.759 375.752 177.819C376.3 178.883 376.631 180.197 376.606 181.579C376.547 184.304 375.179 186.868 373.23 187.452C372.282 187.709 371.486 187.431 371.073 187.116C370.65 186.787 370.576 186.485 370.623 186.46Z" fill="#EB996E"/>
<path d="M317.928 117.881C310.407 121.767 307.311 137.155 310.423 145.028C313.535 152.901 321.921 156.747 330.191 158.558C338.461 160.37 346.569 160.584 354.724 158.316C355.291 163.801 358.579 169.431 363.901 170.878C370.946 172.794 378.047 166.342 379.615 159.211C381.183 152.08 378.834 144.736 376.512 137.814" fill="#263238"/>
<path d="M377.577 166.935C377.609 166.977 377.239 167.328 376.535 167.92C375.828 168.508 374.792 169.349 373.417 170.272C372.041 171.182 370.304 172.196 368.16 172.815C366.046 173.427 363.455 173.649 360.986 172.71C358.523 171.773 356.705 169.908 355.556 168.016C354.392 166.101 353.869 164.134 353.611 162.497C353.357 160.85 353.36 159.503 353.398 158.582C353.442 157.659 353.524 157.154 353.575 157.156C353.723 157.153 353.562 159.211 354.154 162.4C354.474 163.98 355.035 165.85 356.168 167.636C357.286 169.408 359.008 171.125 361.264 171.98C363.519 172.841 365.939 172.67 367.968 172.122C370.017 171.572 371.731 170.643 373.12 169.806C375.88 168.079 377.497 166.823 377.577 166.935Z" fill="#263238"/>
<path d="M323.34 195.239C323.794 196.389 324.259 197.557 325.02 198.531C325.781 199.506 326.894 200.278 328.128 200.336C329.444 200.399 330.713 199.62 331.447 198.525C332.181 197.431 332.431 196.067 332.372 194.752C332.319 193.562 331.774 192.141 330.591 192.001C330.099 191.943 329.614 192.133 329.155 192.319C327.083 193.159 325.01 194 322.938 194.84" fill="#EB996E"/>
<path d="M325.824 200.354C325.855 200.159 327.22 200.713 329.139 199.944C330.068 199.569 331.085 198.83 331.645 197.666C332.206 196.517 332.317 194.96 331.727 193.6C331.59 193.259 331.385 192.948 331.185 192.67C330.939 192.412 330.984 192.423 330.716 192.463C330.462 192.531 330.053 192.724 329.72 192.854C329.373 192.995 329.032 193.134 328.699 193.27C327.368 193.809 326.164 194.279 325.146 194.659C323.11 195.42 321.821 195.82 321.761 195.679C321.7 195.538 322.88 194.883 324.837 193.938C325.816 193.465 326.988 192.92 328.297 192.33C328.626 192.183 328.961 192.033 329.303 191.88C329.666 191.731 329.943 191.568 330.439 191.412C330.682 191.344 331.026 191.305 331.362 191.439C331.69 191.572 331.894 191.795 332.048 191.981C332.325 192.351 332.57 192.731 332.746 193.16C333.477 194.859 333.301 196.74 332.557 198.134C331.796 199.558 330.501 200.359 329.402 200.685C328.283 201.03 327.32 200.947 326.708 200.79C326.088 200.626 325.799 200.416 325.824 200.354Z" fill="#263238"/>
<path d="M382.969 163.729C381.584 163.632 370.419 165.077 371.299 185.832C372.12 205.217 385.72 200.948 390.06 193.65C394.17 186.737 396.545 164.682 382.969 163.729Z" fill="#455A64"/>
<path d="M389.874 166.18C389.859 166.18 389.842 165.993 389.822 165.634C389.805 165.23 389.783 164.706 389.756 164.053C389.716 162.62 389.66 160.623 389.591 158.141C389.489 153.043 389.347 145.963 389.183 137.786L389.434 138.033C387.592 138.035 385.658 138.038 383.677 138.041L383.936 137.776C383.978 139.321 384.022 140.951 384.067 142.605C384.26 150.394 384.44 157.647 384.59 163.718L384.595 163.897L384.422 163.937C381.832 164.544 379.784 166.05 378.493 167.754C377.178 169.46 376.524 171.273 376.124 172.761C375.726 174.261 375.591 175.48 375.515 176.306C375.478 176.72 375.458 177.038 375.448 177.253C375.434 177.468 375.427 177.579 375.416 177.579C375.405 177.579 375.389 177.469 375.38 177.253C375.369 177.037 375.367 176.716 375.383 176.298C375.418 175.463 375.513 174.23 375.88 172.7C376.25 171.181 376.879 169.322 378.21 167.541C379.514 165.763 381.64 164.162 384.321 163.512L384.153 163.73C383.979 157.66 383.77 150.407 383.547 142.619C383.504 140.965 383.461 139.334 383.42 137.789L383.413 137.523H383.678C385.658 137.525 387.593 137.528 389.435 137.531H389.682L389.685 137.778C389.775 145.956 389.853 153.038 389.91 158.136C389.917 160.619 389.924 162.616 389.929 164.05C389.921 164.703 389.916 165.227 389.911 165.632C389.901 165.993 389.889 166.18 389.874 166.18Z" fill="#455A64"/>
<path d="M382.968 137.784C382.968 137.784 377.13 124.118 363.216 117.375C356.476 114.109 351.433 112.424 346.547 111.195C346.547 111.195 354.665 109.268 367.801 115.112C373.769 117.767 379.782 121.225 383.759 126.408C386.284 129.7 389.438 136.134 389.433 137.784H382.968Z" fill="#455A64"/>
<path d="M346.948 303.249C346.943 303.243 347.027 303.15 347.197 302.976C347.363 302.797 347.629 302.549 347.952 302.199C348.609 301.507 349.55 300.452 350.651 298.996C351.756 297.543 352.996 295.67 354.298 293.398C355.603 291.127 356.956 288.454 358.43 285.464C361.379 279.486 364.793 272.24 368.325 263.939C370.094 259.79 371.894 255.378 373.686 250.734C374.129 249.572 374.578 248.396 375.031 247.21C375.48 246.022 375.941 244.8 376.637 243.665C377.323 242.529 378.317 241.525 379.541 240.905C380.148 240.592 380.83 240.355 381.575 240.387C381.946 240.417 382.325 240.54 382.637 240.772C382.958 241.003 383.151 241.341 383.312 241.671L383.345 241.738L383.327 241.816C383.227 242.273 383.084 242.74 382.79 243.149C382.502 243.561 382.034 243.863 381.542 243.966C380.544 244.169 379.593 243.853 378.752 243.454C376.945 242.701 375.874 240.559 376.282 238.609C376.47 237.627 377.082 236.732 377.905 236.167C378.726 235.598 379.735 235.299 380.747 235.357C381.736 235.42 382.821 235.824 383.371 236.803C383.654 237.282 383.623 237.99 383.267 238.434C382.934 238.887 382.477 239.159 382 239.36C380.309 240.031 378.277 239.44 377.207 238.002C376.671 237.283 376.447 236.349 376.558 235.481C376.651 234.606 377.028 233.78 377.597 233.125C378.166 232.468 378.96 231.99 379.848 231.88C380.72 231.793 381.65 232.036 382.281 232.715C382.597 233.05 382.773 233.525 382.759 233.992C382.756 234.47 382.515 234.923 382.183 235.224C381.515 235.832 380.596 236.05 379.738 235.883C378.845 235.695 378.206 235.025 377.792 234.318C377.378 233.594 377.174 232.797 377.06 232.011C376.861 230.45 376.881 228.806 377.591 227.347C377.971 226.641 378.498 225.984 379.295 225.662C380.074 225.351 380.933 225.433 381.67 225.737C382.385 226.05 383.099 226.698 383.135 227.589C383.198 228.455 382.59 229.229 381.866 229.542C381.15 229.884 380.271 229.899 379.565 229.509C378.865 229.132 378.388 228.461 378.144 227.753C377.878 227.052 377.897 226.241 378.007 225.565C378.098 224.864 378.226 224.163 378.47 223.489C378.702 222.822 379.109 222.159 379.682 221.722C380.241 221.278 380.876 220.952 381.566 220.786C381.9 220.715 382.287 220.646 382.668 220.773C383.029 220.893 383.33 221.107 383.583 221.356C383.833 221.609 384.037 221.906 384.171 222.242C384.308 222.57 384.358 222.985 384.205 223.347C383.91 224.106 383.065 224.353 382.417 224.337C381.731 224.346 381.072 224.072 380.539 223.706C379.466 222.946 378.775 221.771 378.531 220.559C378.262 219.35 378.4 218.066 378.951 216.997C379.239 216.473 379.59 215.981 380.074 215.622C380.55 215.262 381.102 215.037 381.673 214.934C382.24 214.843 382.854 214.879 383.374 215.173C383.885 215.462 384.263 216.003 384.292 216.591C384.331 217.779 383.411 218.712 382.407 218.99C381.332 219.274 380.301 218.692 379.688 217.969C379.052 217.231 378.723 216.307 378.662 215.41C378.577 213.59 379.294 212.058 379.641 210.622C380.048 209.184 380.42 207.87 380.755 206.685C381.427 204.339 381.951 202.51 382.314 201.244C382.493 200.64 382.631 200.172 382.732 199.833C382.829 199.516 382.891 199.357 382.891 199.357C382.891 199.357 382.863 199.526 382.783 199.848C382.695 200.19 382.573 200.663 382.415 201.273C382.074 202.545 381.582 204.383 380.951 206.74C380.629 207.928 380.271 209.246 379.881 210.687C379.54 212.137 378.853 213.678 378.953 215.389C379.016 216.226 379.333 217.09 379.924 217.764C380.486 218.428 381.433 218.922 382.321 218.67C383.188 218.437 383.997 217.564 383.942 216.617C383.92 216.154 383.612 215.718 383.197 215.486C382.775 215.248 382.243 215.212 381.734 215.297C381.225 215.392 380.722 215.599 380.302 215.923C379.879 216.236 379.551 216.696 379.293 217.174C378.793 218.153 378.667 219.348 378.923 220.474C379.154 221.604 379.804 222.681 380.775 223.363C381.269 223.695 381.82 223.92 382.419 223.913C382.995 223.923 383.621 223.699 383.804 223.19C384.007 222.707 383.683 222.082 383.273 221.667C383.059 221.456 382.804 221.283 382.536 221.195C382.281 221.105 381.978 221.153 381.669 221.219C380.448 221.534 379.286 222.365 378.901 223.644C378.678 224.267 378.555 224.94 378.468 225.622C378.361 226.32 378.356 226.959 378.587 227.598C378.804 228.219 379.217 228.786 379.792 229.09C380.349 229.401 381.071 229.392 381.662 229.108C382.26 228.84 382.699 228.254 382.651 227.614C382.632 226.979 382.09 226.457 381.475 226.186C380.848 225.927 380.102 225.864 379.477 226.12C378.86 226.358 378.357 226.952 378.034 227.571C377.398 228.872 377.361 230.449 377.558 231.938C377.667 232.683 377.863 233.424 378.231 234.064C378.593 234.689 379.163 235.249 379.842 235.383C380.527 235.523 381.321 235.325 381.829 234.852C382.369 234.397 382.374 233.563 381.897 233.057C381.43 232.541 380.626 232.311 379.905 232.392C379.178 232.482 378.482 232.888 377.987 233.464C376.979 234.596 376.687 236.453 377.627 237.693C378.53 238.93 380.366 239.463 381.804 238.878C382.209 238.71 382.609 238.46 382.844 238.13C383.088 237.805 383.105 237.403 382.911 237.046C382.509 236.308 381.587 235.923 380.716 235.876C378.945 235.753 377.098 236.972 376.788 238.711C376.435 240.427 377.362 242.327 378.975 242.991C379.757 243.37 380.642 243.635 381.428 243.468C382.238 243.322 382.679 242.536 382.829 241.721L382.845 241.866C382.613 241.3 382.137 240.922 381.541 240.888C380.947 240.861 380.328 241.059 379.77 241.349C378.633 241.925 377.712 242.845 377.058 243.923C376.393 245 375.937 246.194 375.487 247.38C375.031 248.567 374.58 249.742 374.133 250.905C372.328 255.55 370.513 259.962 368.728 264.109C365.165 272.408 361.713 279.644 358.721 285.606C357.227 288.587 355.849 291.256 354.518 293.523C353.189 295.79 351.922 297.657 350.79 299.099C348.526 301.995 346.948 303.249 346.948 303.249Z" fill="white"/>
<path d="M395.088 153.996C394.998 154.015 395.13 152.58 394.178 150.298C393.254 148.058 390.983 145.018 386.999 143.108C385.022 142.175 382.654 141.585 380.081 141.416C377.505 141.247 374.732 141.493 371.874 142.042C366.142 143.096 360.123 145.571 353.382 146.586C350.005 147.028 346.659 147.007 343.48 146.576C340.298 146.129 337.321 145.227 334.58 144.162C329.129 141.912 324.733 138.773 321.62 135.601C318.489 132.439 316.466 129.413 315.341 127.203C315.022 126.67 314.788 126.171 314.605 125.729C314.417 125.302 314.256 124.934 314.12 124.623C314.003 124.346 313.908 124.122 313.831 123.939C313.769 123.784 313.741 123.703 313.75 123.699C313.758 123.696 313.803 123.77 313.881 123.918C313.97 124.094 314.08 124.312 314.216 124.58C314.364 124.884 314.54 125.244 314.744 125.661C314.941 126.094 315.188 126.583 315.519 127.105C316.691 129.272 318.746 132.241 321.879 135.339C324.995 138.447 329.365 141.518 334.759 143.716C337.472 144.756 340.414 145.636 343.552 146.07C346.689 146.488 349.982 146.505 353.309 146.07C359.959 145.071 365.989 142.612 371.787 141.569C374.676 141.027 377.49 140.793 380.112 140.983C382.731 141.174 385.143 141.796 387.162 142.775C391.214 144.772 393.484 147.916 394.367 150.219C394.846 151.378 394.97 152.352 395.062 152.996C395.076 153.297 395.086 153.542 395.096 153.74C395.099 153.91 395.097 153.996 395.088 153.996Z" fill="#455A64"/>
<path d="M379.997 132.445C379.999 132.463 379.752 132.506 379.28 132.572C378.808 132.636 378.113 132.739 377.223 132.894C375.44 133.19 372.887 133.758 369.746 134.54C366.609 135.318 362.847 136.261 358.564 136.706C354.291 137.159 349.528 137.121 344.619 136.403C339.706 135.692 335.132 134.382 331.146 132.78C327.16 131.174 323.744 129.318 321.034 127.53C319.691 126.619 318.485 125.777 317.473 124.98C316.48 124.157 315.589 123.492 314.931 122.867C314.301 122.274 313.795 121.799 313.41 121.436C313.066 121.105 312.892 120.925 312.904 120.913C312.917 120.9 313.115 121.054 313.481 121.36C313.881 121.703 314.407 122.152 315.063 122.714C315.738 123.314 316.644 123.952 317.648 124.75C318.671 125.521 319.885 126.337 321.232 127.222C326.647 130.685 334.916 134.502 344.692 135.889C349.558 136.6 354.276 136.653 358.514 136.23C362.758 135.815 366.507 134.917 369.66 134.183C372.813 133.447 375.39 132.931 377.19 132.695C378.088 132.57 378.79 132.5 379.266 132.469C379.745 132.436 379.996 132.427 379.997 132.445Z" fill="#455A64"/>
<path d="M381.484 199.447C381.477 199.464 381.343 199.424 381.092 199.333C380.845 199.233 380.484 199.072 380.055 198.796C379.197 198.26 378.054 197.256 377.128 195.674C376.19 194.1 375.569 191.969 375.333 189.588C375.103 187.204 375.102 184.577 375.323 181.832C375.555 179.087 376.018 176.496 376.608 174.185C377.189 171.879 377.885 169.809 378.84 168.248C379.78 166.679 380.918 165.671 381.783 165.144C382.216 164.875 382.576 164.712 382.826 164.618C383.076 164.526 383.213 164.494 383.219 164.509C383.239 164.554 382.707 164.741 381.896 165.313C381.087 165.878 380.029 166.892 379.158 168.435C378.273 169.971 377.625 172.005 377.074 174.302C376.515 176.596 376.071 179.161 375.843 181.877C375.623 184.589 375.61 187.2 375.811 189.543C376.017 191.882 376.585 193.953 377.449 195.494C378.303 197.046 379.367 198.057 380.169 198.63C380.973 199.211 381.505 199.398 381.484 199.447Z" fill="#263238"/>
<path d="M337.686 202.32L327.43 204.333C325.884 204.636 324.385 203.629 324.081 202.083L324.007 201.706C323.704 200.16 324.711 198.661 326.257 198.358L336.513 196.345C338.059 196.042 339.558 197.049 339.862 198.595L339.936 198.972C340.239 200.518 339.232 202.017 337.686 202.32Z" fill="#455A64"/>
<path d="M338.471 197.885L385.917 183C387.091 182.632 388.342 183.28 388.717 184.452C389.107 185.667 388.403 186.962 387.17 187.295L338.652 200.402L338.471 197.885Z" fill="#455A64"/>
<path d="M373.541 191.342C373.531 191.307 374.091 191.112 375.112 190.789C376.222 190.451 377.684 190.006 379.45 189.468C381.27 188.905 383.506 188.313 385.87 187.538C386.44 187.318 386.995 187.02 387.424 186.582C387.836 186.156 388.103 185.54 388.092 184.932C388.091 184.322 387.702 183.774 387.112 183.574C386.518 183.376 385.808 183.464 385.129 183.634C379.614 185.408 374.625 187.013 370.904 188.211C369.139 188.756 367.679 189.207 366.571 189.55C365.545 189.855 364.971 190.008 364.96 189.973C364.949 189.939 365.501 189.721 366.508 189.357C367.604 188.975 369.046 188.47 370.789 187.861C374.422 186.627 379.402 184.922 385.001 183.129C385.726 182.952 386.512 182.831 387.284 183.085C388.064 183.334 388.618 184.137 388.602 184.92C388.608 185.694 388.286 186.408 387.779 186.931C387.273 187.44 386.649 187.759 386.043 187.987C383.591 188.764 381.403 189.3 379.553 189.823C377.768 190.296 376.29 190.688 375.169 190.985C374.129 191.248 373.55 191.376 373.541 191.342Z" fill="#263238"/>
<path d="M295.958 155C297.582 160.702 291.786 165.591 289.746 171.159C287.773 176.542 289.453 182.574 291.882 187.766C294.311 192.958 297.508 197.886 298.751 203.482C301.818 217.281 289.341 232.148 291.717 246.082C292.583 251.158 294.626 256.455 296.399 261.289C298.172 266.123 298.047 270.545 296.399 275.422C293.703 283.403 289.124 287.167 285.9 294.949C284.251 298.929 284.38 303.387 284.463 307.694C284.546 312.001 284.515 316.492 282.599 320.349C280.683 324.207 276.295 327.19 272.135 326.072C276.489 331.191 284.528 332.721 290.458 329.56C295.93 326.643 298.99 320.718 301.608 315.098C314.291 287.886 320.998 285.589 320.65 255.569C320.628 253.636 320.266 223.57 320.266 223.57C320.266 223.57 315.517 222.303 312.78 220.415C298.615 210.639 298.099 193.215 298.212 179.713" fill="#263238"/>
<path d="M324.302 246.082V257.411C324.302 257.411 315.587 301.857 312.973 326.549C310.359 351.241 309.916 357.755 309.916 357.755C309.916 357.755 316.168 367.508 329.24 350.95C342.312 334.392 344.636 331.777 349.865 331.487C349.865 331.487 343.474 262.059 343.764 259.445C344.055 256.83 346.088 254.507 346.088 254.507L324.302 246.082Z" fill="#FFBE9D"/>
<path d="M341.443 220.518C341.443 220.518 327.209 239.401 326.047 242.015C324.885 244.629 324.304 246.081 324.304 246.081L346.091 254.506L367.297 231.267L375.141 210.642L372.817 186.241C372.817 186.241 368.169 185.95 367.297 190.017C366.425 194.084 366.716 197.86 366.716 197.86L360.207 192.631L349.722 189.436C349.722 189.436 347.253 193.502 351.321 195.536C355.387 197.57 356.55 197.57 356.55 197.57L360.208 203.961L358.608 211.121L351.194 204.168C349.706 202.773 347.437 202.631 345.788 203.831L340.997 207.314L336.506 205.308L327.791 212.966L324.305 216.161C324.305 216.161 326.629 220.518 331.277 218.485C335.925 216.452 335.925 216.452 335.925 216.452L341.443 220.518Z" fill="#FFBE9D"/>
<path d="M324.302 249.907C324.302 249.907 324.284 249.702 324.297 249.302C324.311 248.903 324.345 248.307 324.44 247.53C324.539 246.754 324.69 245.794 324.985 244.682C325.308 243.586 325.674 242.285 326.514 241.024C329.769 236.02 334.901 229.06 341.295 220.412L341.333 220.668C339.608 219.402 337.741 218.032 335.806 216.612L336 216.634C335.061 217.047 334.103 217.468 333.128 217.897C332.148 218.305 331.19 218.827 330.066 219.089C328.962 219.341 327.718 219.26 326.666 218.703C325.599 218.176 324.739 217.309 324.109 216.265L324.024 216.124L324.154 216.002C327.902 212.485 332.066 208.927 336.345 205.131L336.474 205.017L336.623 205.105C337.82 205.813 339.148 206.597 340.491 207.39L340.235 207.396C341.722 206.418 343.232 205.424 344.762 204.417C345.544 203.915 346.261 203.403 347.112 202.899C348.023 202.434 349.194 202.533 350.024 203.154C352.9 205.584 355.845 208.072 358.842 210.604L358.427 210.744C358.906 208.591 359.427 206.26 359.951 203.907L359.978 204.092C358.822 202.071 357.576 199.896 356.319 197.702L356.545 197.833C355.856 197.758 355.331 197.55 354.739 197.346C354.165 197.135 353.596 196.895 353.029 196.641C352.461 196.389 351.897 196.116 351.333 195.837C351.051 195.697 350.767 195.513 350.483 195.351C350.233 195.131 349.939 194.963 349.73 194.692C349.061 193.985 348.673 192.987 348.722 192.022C348.743 191.052 349.033 190.144 349.495 189.303L349.592 189.128L349.793 189.19C353.335 190.27 356.832 191.336 360.277 192.387L360.325 192.402L360.364 192.433C362.56 194.199 364.729 195.943 366.87 197.664L366.457 197.882C366.32 195.249 366.504 192.658 367.011 190.149C367.23 188.867 367.992 187.603 369.13 186.932C370.254 186.237 371.543 185.974 372.826 185.998L373.035 186.002L373.056 186.22C373.872 194.894 374.642 203.067 375.354 210.624L375.359 210.675L375.34 210.722C372.434 218.326 369.798 225.22 367.46 231.333L367.447 231.365L367.425 231.39C360.452 238.98 354.841 245.088 350.959 249.314C349.025 251.402 347.524 253.024 346.492 254.138C345.988 254.675 345.6 255.087 345.325 255.38C345.059 255.658 344.915 255.791 344.915 255.791C344.915 255.791 345.034 255.635 345.286 255.346C345.554 255.044 345.929 254.621 346.417 254.07C347.433 252.94 348.911 251.298 350.813 249.181C354.667 244.93 360.237 238.785 367.159 231.148L367.124 231.205C369.439 225.083 372.051 218.18 374.931 210.566L374.917 210.665C374.189 203.11 373.402 194.938 372.567 186.266L372.796 186.488C371.636 186.467 370.395 186.723 369.396 187.352C368.374 187.965 367.713 189.048 367.502 190.25C367.007 192.704 366.829 195.281 366.965 197.843L366.995 198.418L366.552 198.062C364.409 196.343 362.239 194.6 360.041 192.836L360.127 192.881C356.682 191.832 353.184 190.766 349.642 189.688L349.94 189.574C349.534 190.31 349.255 191.182 349.243 192.032C349.202 192.89 349.533 193.72 350.112 194.34C350.289 194.576 350.56 194.726 350.778 194.924C351.043 195.072 351.286 195.234 351.564 195.372C352.124 195.647 352.681 195.918 353.242 196.167C354.342 196.648 355.522 197.157 356.545 197.313L356.71 197.338L356.771 197.443C358.027 199.638 359.272 201.814 360.428 203.835L360.478 203.922L360.456 204.02C359.93 206.373 359.408 208.704 358.927 210.856L358.835 211.269L358.512 210.996C355.527 208.468 352.594 205.985 349.729 203.558C349.047 203.047 348.083 202.963 347.333 203.345C346.587 203.787 345.793 204.342 345.034 204.829C343.502 205.834 341.99 206.825 340.502 207.801L340.375 207.884L340.246 207.807C338.905 207.012 337.578 206.224 336.382 205.515L336.659 205.489C332.375 209.275 328.202 212.823 324.449 216.324L324.494 216.061C325.058 217.004 325.884 217.847 326.856 218.323C327.822 218.837 328.946 218.914 329.978 218.683C331.005 218.451 331.982 217.933 332.965 217.526C333.942 217.101 334.902 216.683 335.842 216.273L335.946 216.228L336.037 216.295C337.967 217.723 339.829 219.101 341.548 220.373L341.696 220.482L341.586 220.628C335.157 229.244 329.977 236.177 326.682 241.129C325.848 242.352 325.466 243.641 325.132 244.722C324.822 245.82 324.655 246.772 324.542 247.542C324.431 248.313 324.379 248.906 324.349 249.304C324.32 249.703 324.302 249.907 324.302 249.907Z" fill="#EB996E"/>
<path d="M351.263 224.893C351.159 224.876 351.543 223.352 351.703 220.877C351.754 219.649 351.683 218.143 351.015 216.679C350.351 215.212 349.04 213.936 347.545 212.782C344.529 210.455 341.621 208.581 339.482 207.291C338.481 206.702 337.629 206.2 336.928 205.788C336.324 205.435 335.992 205.231 336.009 205.198C336.025 205.167 336.387 205.31 337.023 205.609C337.659 205.906 338.566 206.365 339.666 206.973C341.865 208.188 344.823 210.024 347.866 212.373C349.382 213.543 350.762 214.892 351.453 216.482C352.144 218.067 352.169 219.648 352.07 220.9C351.965 222.166 351.737 223.162 351.579 223.845C351.413 224.529 351.297 224.9 351.263 224.893Z" fill="#EB996E"/>
<path d="M366.509 215.827C366.43 215.807 366.641 214.819 366.879 213.214C367.118 211.609 367.345 209.377 367.326 206.904C367.303 204.431 367.038 202.203 366.771 200.602C366.506 199.001 366.279 198.017 366.357 197.996C366.418 197.978 366.772 198.932 367.132 200.533C367.494 202.132 367.822 204.39 367.847 206.9C367.866 209.41 367.576 211.672 367.241 213.277C366.908 214.885 366.57 215.843 366.509 215.827Z" fill="#EB996E"/>
<path d="M269.402 141.733L258.978 123.362C263.589 115.877 266.255 107.065 266.255 97.6282C266.255 70.4902 244.255 48.4902 217.117 48.4902C189.978 48.4902 167.979 70.4902 167.979 97.6282C167.979 124.766 189.979 146.766 217.117 146.766C228.449 146.766 238.876 142.92 247.189 136.476L247.172 136.498L269.402 141.733Z" fill="white"/>
<path d="M269.402 141.734C268.493 141.525 261.362 139.889 247.142 136.625L246.947 136.58L247.069 136.42L247.087 136.398L247.269 136.58C244.466 138.749 241.11 140.887 237.164 142.667C233.214 144.417 228.688 145.846 223.692 146.51C221.198 146.828 218.592 147.032 215.914 146.901C214.576 146.825 213.214 146.792 211.84 146.677C210.476 146.47 209.092 146.261 207.69 146.049C202.129 144.95 196.443 142.838 191.14 139.546C185.84 136.266 180.932 131.812 176.998 126.34C173.071 120.878 170.093 114.402 168.699 107.365C167.319 100.338 167.434 92.805 169.28 85.516C171.139 78.252 174.611 71.156 179.807 65.318L181.813 63.111C182.472 62.369 183.259 61.757 183.973 61.076C184.721 60.432 185.395 59.703 186.2 59.134C186.987 58.545 187.773 57.958 188.557 57.372C189.32 56.755 190.161 56.258 190.997 55.758C191.83 55.252 192.66 54.748 193.489 54.245C194.361 53.822 195.23 53.4 196.097 52.978C196.972 52.575 197.813 52.097 198.73 51.808C205.864 48.975 213.473 47.897 220.746 48.424C228.021 48.947 234.982 51.034 240.954 54.395C246.944 57.729 251.997 62.181 255.896 67.154C259.808 72.129 262.564 77.617 264.272 83.082C265.968 88.572 266.427 94.018 266.41 99.059C266.265 104.112 265.347 108.768 264.009 112.855C262.667 116.947 260.905 120.468 259.085 123.43L259.087 123.303C265.702 135.121 268.966 140.955 269.402 141.734C268.958 140.961 265.624 135.165 258.87 123.424L258.834 123.361L258.872 123.297C260.666 120.339 262.4 116.831 263.716 112.758C265.029 108.691 265.924 104.064 266.051 99.047C266.051 94.042 265.58 88.64 263.884 83.2C262.177 77.785 259.432 72.351 255.546 67.429C251.672 62.508 246.659 58.106 240.723 54.812C234.805 51.491 227.911 49.435 220.709 48.923C213.508 48.408 205.98 49.481 198.922 52.286C198.014 52.572 197.182 53.046 196.317 53.446C195.459 53.863 194.599 54.28 193.736 54.699C192.917 55.198 192.095 55.697 191.271 56.198C190.444 56.693 189.611 57.184 188.856 57.796C188.081 58.376 187.303 58.958 186.524 59.54C185.728 60.103 185.062 60.826 184.321 61.462C183.614 62.136 182.836 62.741 182.184 63.476L180.2 65.66C175.057 71.436 171.622 78.457 169.78 85.643C167.95 92.854 167.831 100.31 169.191 107.267C170.564 114.233 173.505 120.647 177.387 126.061C181.276 131.485 186.13 135.905 191.375 139.165C196.624 142.437 202.255 144.543 207.767 145.646C209.157 145.86 210.529 146.071 211.882 146.279C213.244 146.397 214.595 146.432 215.923 146.512C218.58 146.65 221.167 146.454 223.643 146.147C228.603 145.505 233.102 144.102 237.034 142.379C240.962 140.626 244.309 138.517 247.109 136.375L247.894 135.774L247.291 136.556L247.274 136.577L247.201 136.372C261.383 139.798 268.496 141.515 269.402 141.734Z" fill="#263238"/>
<path d="M202.478 101.619C204.682 101.619 206.468 99.8323 206.468 97.6287C206.468 95.4251 204.682 93.6387 202.478 93.6387C200.275 93.6387 198.488 95.4251 198.488 97.6287C198.488 99.8323 200.275 101.619 202.478 101.619Z" fill="#263238"/>
<path d="M218.444 101.619C220.648 101.619 222.434 99.8323 222.434 97.6287C222.434 95.4251 220.648 93.6387 218.444 93.6387C216.24 93.6387 214.454 95.4251 214.454 97.6287C214.454 99.8323 216.24 101.619 218.444 101.619Z" fill="#263238"/>
<path d="M234.903 101.621C237.107 101.621 238.893 99.8342 238.893 97.6306C238.893 95.427 237.107 93.6406 234.903 93.6406C232.699 93.6406 230.913 95.427 230.913 97.6306C230.913 99.8342 232.699 101.621 234.903 101.621Z" fill="#263238"/>
<path d="M466.044 411.142C466.044 411.286 364.385 411.403 239.01 411.403C113.593 411.403 11.9551 411.286 11.9551 411.142C11.9551 410.998 113.593 410.881 239.01 410.881C364.385 410.881 466.044 410.999 466.044 411.142Z" fill="#263238"/>
<path d="M337.554 411.385C337.554 411.385 344.336 399.803 358.943 399.307C373.549 398.81 380.852 411.385 380.852 411.385H337.554Z" fill="#455A64"/>
<path d="M365.544 411.024C365.437 411.024 365.411 410.168 365.116 408.843C364.827 407.522 364.187 405.741 363.032 404.032C361.869 402.328 360.45 401.077 359.327 400.321C358.205 399.559 357.419 399.22 357.458 399.121C357.479 399.057 358.337 399.248 359.566 399.939C360.792 400.623 362.339 401.885 363.559 403.673C364.772 405.466 365.375 407.369 365.559 408.761C365.75 410.16 365.613 411.028 365.544 411.024Z" fill="#263238"/>
<path d="M328.512 410.855L328.511 410.762C328.46 407.701 325.965 405.246 322.904 405.246H198.56C195.463 405.246 192.952 407.757 192.952 410.854H328.512V410.855Z" fill="#455A64"/>
<path d="M90.4727 193.045C90.4727 195.661 92.4317 351.825 92.4317 351.825L208.417 379.731H218.01L211.906 161.713H203.185L90.4727 193.045Z" fill="#263238"/>
<path d="M115.001 345.287L79.0537 411.173H111.91C106.034 410.586 163.938 411.173 163.938 411.173L111.91 397.377L128.179 360.425L126.791 345.287H115.001Z" fill="#263238"/>
<path d="M115.804 357.448L111.911 234.655L147.229 231.268L151.583 362.38L138.966 363.021L115.804 357.448Z" fill="#263238"/>
<path d="M156.52 367.245C156.52 367.245 156.506 367.053 156.499 366.675C156.494 366.282 156.487 365.723 156.478 364.991C156.469 363.493 156.455 361.303 156.437 358.467C156.42 352.76 156.395 344.464 156.365 334.043C156.342 313.171 156.31 283.799 156.272 249.738L156.521 249.987C143.45 249.99 129.389 249.994 114.847 249.998L115.107 249.738C115.107 251.53 115.107 253.464 115.107 255.404C115.091 288.618 115.077 319.533 115.065 345.288V345.345L115.039 345.393C104.222 365.226 95.2477 381.677 88.9717 393.186C85.8277 398.918 83.3617 403.417 81.6727 406.498C80.8307 408.019 80.1837 409.187 79.7387 409.99C79.2987 410.778 79.0557 411.176 79.0557 411.176C79.0557 411.176 79.2577 410.756 79.6787 409.958C80.1107 409.148 80.7387 407.97 81.5557 406.435C83.2207 403.342 85.6517 398.824 88.7497 393.067C94.9877 381.538 103.905 365.055 114.655 345.186L114.629 345.29C114.617 319.535 114.603 288.62 114.587 255.406C114.587 253.466 114.587 251.532 114.587 249.74V249.479H114.847C129.389 249.483 143.45 249.487 156.521 249.49H156.771V249.74C156.733 283.801 156.701 313.173 156.678 334.045C156.647 344.466 156.622 352.762 156.606 358.469C156.588 361.306 156.574 363.495 156.565 364.993C156.556 365.724 156.548 366.284 156.544 366.677C156.535 367.052 156.52 367.245 156.52 367.245Z" fill="#455A64"/>
<path d="M128.179 360.426C128.311 360.485 123.308 372.049 117.008 386.253C110.705 400.462 105.49 411.929 105.359 411.871C105.228 411.812 110.229 400.25 116.531 386.041C122.833 371.838 128.048 360.368 128.179 360.426Z" fill="#455A64"/>
<path d="M208.418 379.73C208.418 379.73 208.399 379.54 208.389 379.168C208.381 378.776 208.37 378.229 208.356 377.52C208.338 376.05 208.313 373.918 208.28 371.183C208.239 365.679 208.115 357.716 207.921 347.877C207.546 328.199 206.659 301.025 205.569 271.015C204.479 240.994 203.649 213.811 203.369 194.128C203.222 184.287 203.155 176.322 203.176 170.818C203.185 168.083 203.193 165.951 203.197 164.481C203.205 163.773 203.211 163.224 203.216 162.833C203.223 162.462 203.24 162.271 203.24 162.271C203.24 162.271 203.259 162.461 203.269 162.833C203.277 163.224 203.288 163.772 203.302 164.481C203.32 165.951 203.345 168.082 203.378 170.817C203.419 176.32 203.543 184.282 203.737 194.121C204.112 213.799 204.999 240.975 206.09 270.996C207.18 301.007 208.009 328.187 208.29 347.87C208.437 357.712 208.504 365.677 208.484 371.181C208.474 373.917 208.467 376.05 208.462 377.52C208.454 378.229 208.448 378.777 208.443 379.168C208.435 379.54 208.418 379.73 208.418 379.73Z" fill="#455A64"/>
<path d="M150.193 248.828C150.337 248.828 150.454 274.946 150.454 307.156C150.454 339.377 150.337 365.489 150.193 365.489C150.049 365.489 149.933 339.377 149.933 307.156C149.933 274.946 150.049 248.828 150.193 248.828Z" fill="#455A64"/>
<path d="M87.6963 400.89C87.6813 400.901 87.5103 400.661 87.1973 400.195C87.0343 399.949 86.8433 399.661 86.6233 399.329C86.3873 398.991 86.1433 398.585 85.9033 398.107C84.8203 396.266 83.5903 393.387 82.7323 389.657C81.8783 385.927 81.5883 381.319 82.1133 376.289C82.6883 371.268 84.0363 365.81 86.4463 360.484C87.6613 357.817 89.2303 355.398 90.9803 353.271C91.4023 352.725 91.8363 352.199 92.3053 351.71C92.7643 351.214 93.2063 350.709 93.6683 350.235C94.6313 349.325 95.5353 348.391 96.5263 347.602C98.4293 345.93 100.442 344.599 102.336 343.391C103.322 342.85 104.251 342.284 105.189 341.826C106.14 341.395 107.017 340.903 107.919 340.58C111.461 339.14 114.51 338.438 116.639 338.257C117.695 338.08 118.533 338.145 119.091 338.108C119.653 338.097 119.946 338.1 119.946 338.118C119.946 338.137 119.652 338.168 119.094 338.213C118.538 338.284 117.708 338.252 116.664 338.459C114.559 338.701 111.551 339.45 108.061 340.92C107.172 341.251 106.308 341.75 105.371 342.185C104.447 342.648 103.532 343.218 102.56 343.762C100.694 344.974 98.7113 346.305 96.8373 347.969C95.8603 348.754 94.9713 349.682 94.0223 350.584C93.5673 351.055 93.1333 351.555 92.6803 352.046C92.2183 352.53 91.7913 353.052 91.3763 353.592C89.6533 355.696 88.1113 358.081 86.9183 360.702C84.5363 365.964 83.1823 371.377 82.5883 376.342C82.0433 381.321 82.2903 385.878 83.0903 389.579C83.8943 393.28 85.0593 396.154 86.0803 398.011C86.3043 398.493 86.5323 398.906 86.7543 399.249C86.9573 399.59 87.1323 399.886 87.2833 400.139C87.5693 400.621 87.7103 400.88 87.6963 400.89Z" fill="#455A64"/>
</svg>
